%TF.GenerationSoftware,KiCad,Pcbnew,5.1.10-88a1d61d58~90~ubuntu20.04.1*%
%TF.CreationDate,2021-11-06T19:29:54+01:00*%
%TF.ProjectId,e-meter-usb-c,652d6d65-7465-4722-9d75-73622d632e6b,rev?*%
%TF.SameCoordinates,Original*%
%TF.FileFunction,Paste,Top*%
%TF.FilePolarity,Positive*%
%FSLAX46Y46*%
G04 Gerber Fmt 4.6, Leading zero omitted, Abs format (unit mm)*
G04 Created by KiCad (PCBNEW 5.1.10-88a1d61d58~90~ubuntu20.04.1) date 2021-11-06 19:29:54*
%MOMM*%
%LPD*%
G01*
G04 APERTURE LIST*
%ADD10R,1.060000X0.650000*%
%ADD11R,0.900000X2.000000*%
%ADD12R,2.000000X0.900000*%
%ADD13R,5.000000X5.000000*%
%ADD14R,2.350000X1.300000*%
%ADD15R,0.900000X0.800000*%
%ADD16R,1.450000X0.600000*%
%ADD17R,1.450000X0.300000*%
%ADD18R,2.500000X1.800000*%
G04 APERTURE END LIST*
%TO.C,R11*%
G36*
G01*
X137430500Y-36239000D02*
X137905500Y-36239000D01*
G75*
G02*
X138143000Y-36476500I0J-237500D01*
G01*
X138143000Y-36976500D01*
G75*
G02*
X137905500Y-37214000I-237500J0D01*
G01*
X137430500Y-37214000D01*
G75*
G02*
X137193000Y-36976500I0J237500D01*
G01*
X137193000Y-36476500D01*
G75*
G02*
X137430500Y-36239000I237500J0D01*
G01*
G37*
G36*
G01*
X137430500Y-34414000D02*
X137905500Y-34414000D01*
G75*
G02*
X138143000Y-34651500I0J-237500D01*
G01*
X138143000Y-35151500D01*
G75*
G02*
X137905500Y-35389000I-237500J0D01*
G01*
X137430500Y-35389000D01*
G75*
G02*
X137193000Y-35151500I0J237500D01*
G01*
X137193000Y-34651500D01*
G75*
G02*
X137430500Y-34414000I237500J0D01*
G01*
G37*
%TD*%
%TO.C,R10*%
G36*
G01*
X149777000Y-35543500D02*
X149777000Y-35068500D01*
G75*
G02*
X150014500Y-34831000I237500J0D01*
G01*
X150514500Y-34831000D01*
G75*
G02*
X150752000Y-35068500I0J-237500D01*
G01*
X150752000Y-35543500D01*
G75*
G02*
X150514500Y-35781000I-237500J0D01*
G01*
X150014500Y-35781000D01*
G75*
G02*
X149777000Y-35543500I0J237500D01*
G01*
G37*
G36*
G01*
X147952000Y-35543500D02*
X147952000Y-35068500D01*
G75*
G02*
X148189500Y-34831000I237500J0D01*
G01*
X148689500Y-34831000D01*
G75*
G02*
X148927000Y-35068500I0J-237500D01*
G01*
X148927000Y-35543500D01*
G75*
G02*
X148689500Y-35781000I-237500J0D01*
G01*
X148189500Y-35781000D01*
G75*
G02*
X147952000Y-35543500I0J237500D01*
G01*
G37*
%TD*%
%TO.C,R9*%
G36*
G01*
X117618500Y-37509000D02*
X118093500Y-37509000D01*
G75*
G02*
X118331000Y-37746500I0J-237500D01*
G01*
X118331000Y-38246500D01*
G75*
G02*
X118093500Y-38484000I-237500J0D01*
G01*
X117618500Y-38484000D01*
G75*
G02*
X117381000Y-38246500I0J237500D01*
G01*
X117381000Y-37746500D01*
G75*
G02*
X117618500Y-37509000I237500J0D01*
G01*
G37*
G36*
G01*
X117618500Y-35684000D02*
X118093500Y-35684000D01*
G75*
G02*
X118331000Y-35921500I0J-237500D01*
G01*
X118331000Y-36421500D01*
G75*
G02*
X118093500Y-36659000I-237500J0D01*
G01*
X117618500Y-36659000D01*
G75*
G02*
X117381000Y-36421500I0J237500D01*
G01*
X117381000Y-35921500D01*
G75*
G02*
X117618500Y-35684000I237500J0D01*
G01*
G37*
%TD*%
%TO.C,R8*%
G36*
G01*
X118093500Y-31452000D02*
X117618500Y-31452000D01*
G75*
G02*
X117381000Y-31214500I0J237500D01*
G01*
X117381000Y-30714500D01*
G75*
G02*
X117618500Y-30477000I237500J0D01*
G01*
X118093500Y-30477000D01*
G75*
G02*
X118331000Y-30714500I0J-237500D01*
G01*
X118331000Y-31214500D01*
G75*
G02*
X118093500Y-31452000I-237500J0D01*
G01*
G37*
G36*
G01*
X118093500Y-33277000D02*
X117618500Y-33277000D01*
G75*
G02*
X117381000Y-33039500I0J237500D01*
G01*
X117381000Y-32539500D01*
G75*
G02*
X117618500Y-32302000I237500J0D01*
G01*
X118093500Y-32302000D01*
G75*
G02*
X118331000Y-32539500I0J-237500D01*
G01*
X118331000Y-33039500D01*
G75*
G02*
X118093500Y-33277000I-237500J0D01*
G01*
G37*
%TD*%
%TO.C,R7*%
G36*
G01*
X137430500Y-32810000D02*
X137905500Y-32810000D01*
G75*
G02*
X138143000Y-33047500I0J-237500D01*
G01*
X138143000Y-33547500D01*
G75*
G02*
X137905500Y-33785000I-237500J0D01*
G01*
X137430500Y-33785000D01*
G75*
G02*
X137193000Y-33547500I0J237500D01*
G01*
X137193000Y-33047500D01*
G75*
G02*
X137430500Y-32810000I237500J0D01*
G01*
G37*
G36*
G01*
X137430500Y-30985000D02*
X137905500Y-30985000D01*
G75*
G02*
X138143000Y-31222500I0J-237500D01*
G01*
X138143000Y-31722500D01*
G75*
G02*
X137905500Y-31960000I-237500J0D01*
G01*
X137430500Y-31960000D01*
G75*
G02*
X137193000Y-31722500I0J237500D01*
G01*
X137193000Y-31222500D01*
G75*
G02*
X137430500Y-30985000I237500J0D01*
G01*
G37*
%TD*%
%TO.C,R6*%
G36*
G01*
X141815000Y-32782500D02*
X141815000Y-33257500D01*
G75*
G02*
X141577500Y-33495000I-237500J0D01*
G01*
X141077500Y-33495000D01*
G75*
G02*
X140840000Y-33257500I0J237500D01*
G01*
X140840000Y-32782500D01*
G75*
G02*
X141077500Y-32545000I237500J0D01*
G01*
X141577500Y-32545000D01*
G75*
G02*
X141815000Y-32782500I0J-237500D01*
G01*
G37*
G36*
G01*
X143640000Y-32782500D02*
X143640000Y-33257500D01*
G75*
G02*
X143402500Y-33495000I-237500J0D01*
G01*
X142902500Y-33495000D01*
G75*
G02*
X142665000Y-33257500I0J237500D01*
G01*
X142665000Y-32782500D01*
G75*
G02*
X142902500Y-32545000I237500J0D01*
G01*
X143402500Y-32545000D01*
G75*
G02*
X143640000Y-32782500I0J-237500D01*
G01*
G37*
%TD*%
%TO.C,R5*%
G36*
G01*
X141815000Y-27194500D02*
X141815000Y-27669500D01*
G75*
G02*
X141577500Y-27907000I-237500J0D01*
G01*
X141077500Y-27907000D01*
G75*
G02*
X140840000Y-27669500I0J237500D01*
G01*
X140840000Y-27194500D01*
G75*
G02*
X141077500Y-26957000I237500J0D01*
G01*
X141577500Y-26957000D01*
G75*
G02*
X141815000Y-27194500I0J-237500D01*
G01*
G37*
G36*
G01*
X143640000Y-27194500D02*
X143640000Y-27669500D01*
G75*
G02*
X143402500Y-27907000I-237500J0D01*
G01*
X142902500Y-27907000D01*
G75*
G02*
X142665000Y-27669500I0J237500D01*
G01*
X142665000Y-27194500D01*
G75*
G02*
X142902500Y-26957000I237500J0D01*
G01*
X143402500Y-26957000D01*
G75*
G02*
X143640000Y-27194500I0J-237500D01*
G01*
G37*
%TD*%
%TO.C,R4*%
G36*
G01*
X130408500Y-55134500D02*
X130408500Y-55609500D01*
G75*
G02*
X130171000Y-55847000I-237500J0D01*
G01*
X129671000Y-55847000D01*
G75*
G02*
X129433500Y-55609500I0J237500D01*
G01*
X129433500Y-55134500D01*
G75*
G02*
X129671000Y-54897000I237500J0D01*
G01*
X130171000Y-54897000D01*
G75*
G02*
X130408500Y-55134500I0J-237500D01*
G01*
G37*
G36*
G01*
X132233500Y-55134500D02*
X132233500Y-55609500D01*
G75*
G02*
X131996000Y-55847000I-237500J0D01*
G01*
X131496000Y-55847000D01*
G75*
G02*
X131258500Y-55609500I0J237500D01*
G01*
X131258500Y-55134500D01*
G75*
G02*
X131496000Y-54897000I237500J0D01*
G01*
X131996000Y-54897000D01*
G75*
G02*
X132233500Y-55134500I0J-237500D01*
G01*
G37*
%TD*%
%TO.C,R3*%
G36*
G01*
X137430500Y-28238000D02*
X137905500Y-28238000D01*
G75*
G02*
X138143000Y-28475500I0J-237500D01*
G01*
X138143000Y-28975500D01*
G75*
G02*
X137905500Y-29213000I-237500J0D01*
G01*
X137430500Y-29213000D01*
G75*
G02*
X137193000Y-28975500I0J237500D01*
G01*
X137193000Y-28475500D01*
G75*
G02*
X137430500Y-28238000I237500J0D01*
G01*
G37*
G36*
G01*
X137430500Y-26413000D02*
X137905500Y-26413000D01*
G75*
G02*
X138143000Y-26650500I0J-237500D01*
G01*
X138143000Y-27150500D01*
G75*
G02*
X137905500Y-27388000I-237500J0D01*
G01*
X137430500Y-27388000D01*
G75*
G02*
X137193000Y-27150500I0J237500D01*
G01*
X137193000Y-26650500D01*
G75*
G02*
X137430500Y-26413000I237500J0D01*
G01*
G37*
%TD*%
%TO.C,R2*%
G36*
G01*
X127905500Y-59099000D02*
X128380500Y-59099000D01*
G75*
G02*
X128618000Y-59336500I0J-237500D01*
G01*
X128618000Y-59836500D01*
G75*
G02*
X128380500Y-60074000I-237500J0D01*
G01*
X127905500Y-60074000D01*
G75*
G02*
X127668000Y-59836500I0J237500D01*
G01*
X127668000Y-59336500D01*
G75*
G02*
X127905500Y-59099000I237500J0D01*
G01*
G37*
G36*
G01*
X127905500Y-57274000D02*
X128380500Y-57274000D01*
G75*
G02*
X128618000Y-57511500I0J-237500D01*
G01*
X128618000Y-58011500D01*
G75*
G02*
X128380500Y-58249000I-237500J0D01*
G01*
X127905500Y-58249000D01*
G75*
G02*
X127668000Y-58011500I0J237500D01*
G01*
X127668000Y-57511500D01*
G75*
G02*
X127905500Y-57274000I237500J0D01*
G01*
G37*
%TD*%
%TO.C,D5*%
G36*
G01*
X136000500Y-35464000D02*
X135525500Y-35464000D01*
G75*
G02*
X135288000Y-35226500I0J237500D01*
G01*
X135288000Y-34651500D01*
G75*
G02*
X135525500Y-34414000I237500J0D01*
G01*
X136000500Y-34414000D01*
G75*
G02*
X136238000Y-34651500I0J-237500D01*
G01*
X136238000Y-35226500D01*
G75*
G02*
X136000500Y-35464000I-237500J0D01*
G01*
G37*
G36*
G01*
X136000500Y-37214000D02*
X135525500Y-37214000D01*
G75*
G02*
X135288000Y-36976500I0J237500D01*
G01*
X135288000Y-36401500D01*
G75*
G02*
X135525500Y-36164000I237500J0D01*
G01*
X136000500Y-36164000D01*
G75*
G02*
X136238000Y-36401500I0J-237500D01*
G01*
X136238000Y-36976500D01*
G75*
G02*
X136000500Y-37214000I-237500J0D01*
G01*
G37*
%TD*%
%TO.C,D4*%
G36*
G01*
X136000500Y-32035000D02*
X135525500Y-32035000D01*
G75*
G02*
X135288000Y-31797500I0J237500D01*
G01*
X135288000Y-31222500D01*
G75*
G02*
X135525500Y-30985000I237500J0D01*
G01*
X136000500Y-30985000D01*
G75*
G02*
X136238000Y-31222500I0J-237500D01*
G01*
X136238000Y-31797500D01*
G75*
G02*
X136000500Y-32035000I-237500J0D01*
G01*
G37*
G36*
G01*
X136000500Y-33785000D02*
X135525500Y-33785000D01*
G75*
G02*
X135288000Y-33547500I0J237500D01*
G01*
X135288000Y-32972500D01*
G75*
G02*
X135525500Y-32735000I237500J0D01*
G01*
X136000500Y-32735000D01*
G75*
G02*
X136238000Y-32972500I0J-237500D01*
G01*
X136238000Y-33547500D01*
G75*
G02*
X136000500Y-33785000I-237500J0D01*
G01*
G37*
%TD*%
%TO.C,D3*%
G36*
G01*
X136000500Y-27463000D02*
X135525500Y-27463000D01*
G75*
G02*
X135288000Y-27225500I0J237500D01*
G01*
X135288000Y-26650500D01*
G75*
G02*
X135525500Y-26413000I237500J0D01*
G01*
X136000500Y-26413000D01*
G75*
G02*
X136238000Y-26650500I0J-237500D01*
G01*
X136238000Y-27225500D01*
G75*
G02*
X136000500Y-27463000I-237500J0D01*
G01*
G37*
G36*
G01*
X136000500Y-29213000D02*
X135525500Y-29213000D01*
G75*
G02*
X135288000Y-28975500I0J237500D01*
G01*
X135288000Y-28400500D01*
G75*
G02*
X135525500Y-28163000I237500J0D01*
G01*
X136000500Y-28163000D01*
G75*
G02*
X136238000Y-28400500I0J-237500D01*
G01*
X136238000Y-28975500D01*
G75*
G02*
X136000500Y-29213000I-237500J0D01*
G01*
G37*
%TD*%
%TO.C,U4*%
G36*
G01*
X124690000Y-28979000D02*
X124690000Y-28679000D01*
G75*
G02*
X124840000Y-28529000I150000J0D01*
G01*
X126490000Y-28529000D01*
G75*
G02*
X126640000Y-28679000I0J-150000D01*
G01*
X126640000Y-28979000D01*
G75*
G02*
X126490000Y-29129000I-150000J0D01*
G01*
X124840000Y-29129000D01*
G75*
G02*
X124690000Y-28979000I0J150000D01*
G01*
G37*
G36*
G01*
X124690000Y-30249000D02*
X124690000Y-29949000D01*
G75*
G02*
X124840000Y-29799000I150000J0D01*
G01*
X126490000Y-29799000D01*
G75*
G02*
X126640000Y-29949000I0J-150000D01*
G01*
X126640000Y-30249000D01*
G75*
G02*
X126490000Y-30399000I-150000J0D01*
G01*
X124840000Y-30399000D01*
G75*
G02*
X124690000Y-30249000I0J150000D01*
G01*
G37*
G36*
G01*
X124690000Y-31519000D02*
X124690000Y-31219000D01*
G75*
G02*
X124840000Y-31069000I150000J0D01*
G01*
X126490000Y-31069000D01*
G75*
G02*
X126640000Y-31219000I0J-150000D01*
G01*
X126640000Y-31519000D01*
G75*
G02*
X126490000Y-31669000I-150000J0D01*
G01*
X124840000Y-31669000D01*
G75*
G02*
X124690000Y-31519000I0J150000D01*
G01*
G37*
G36*
G01*
X124690000Y-32789000D02*
X124690000Y-32489000D01*
G75*
G02*
X124840000Y-32339000I150000J0D01*
G01*
X126490000Y-32339000D01*
G75*
G02*
X126640000Y-32489000I0J-150000D01*
G01*
X126640000Y-32789000D01*
G75*
G02*
X126490000Y-32939000I-150000J0D01*
G01*
X124840000Y-32939000D01*
G75*
G02*
X124690000Y-32789000I0J150000D01*
G01*
G37*
G36*
G01*
X124690000Y-34059000D02*
X124690000Y-33759000D01*
G75*
G02*
X124840000Y-33609000I150000J0D01*
G01*
X126490000Y-33609000D01*
G75*
G02*
X126640000Y-33759000I0J-150000D01*
G01*
X126640000Y-34059000D01*
G75*
G02*
X126490000Y-34209000I-150000J0D01*
G01*
X124840000Y-34209000D01*
G75*
G02*
X124690000Y-34059000I0J150000D01*
G01*
G37*
G36*
G01*
X124690000Y-35329000D02*
X124690000Y-35029000D01*
G75*
G02*
X124840000Y-34879000I150000J0D01*
G01*
X126490000Y-34879000D01*
G75*
G02*
X126640000Y-35029000I0J-150000D01*
G01*
X126640000Y-35329000D01*
G75*
G02*
X126490000Y-35479000I-150000J0D01*
G01*
X124840000Y-35479000D01*
G75*
G02*
X124690000Y-35329000I0J150000D01*
G01*
G37*
G36*
G01*
X124690000Y-36599000D02*
X124690000Y-36299000D01*
G75*
G02*
X124840000Y-36149000I150000J0D01*
G01*
X126490000Y-36149000D01*
G75*
G02*
X126640000Y-36299000I0J-150000D01*
G01*
X126640000Y-36599000D01*
G75*
G02*
X126490000Y-36749000I-150000J0D01*
G01*
X124840000Y-36749000D01*
G75*
G02*
X124690000Y-36599000I0J150000D01*
G01*
G37*
G36*
G01*
X124690000Y-37869000D02*
X124690000Y-37569000D01*
G75*
G02*
X124840000Y-37419000I150000J0D01*
G01*
X126490000Y-37419000D01*
G75*
G02*
X126640000Y-37569000I0J-150000D01*
G01*
X126640000Y-37869000D01*
G75*
G02*
X126490000Y-38019000I-150000J0D01*
G01*
X124840000Y-38019000D01*
G75*
G02*
X124690000Y-37869000I0J150000D01*
G01*
G37*
G36*
G01*
X119740000Y-37869000D02*
X119740000Y-37569000D01*
G75*
G02*
X119890000Y-37419000I150000J0D01*
G01*
X121540000Y-37419000D01*
G75*
G02*
X121690000Y-37569000I0J-150000D01*
G01*
X121690000Y-37869000D01*
G75*
G02*
X121540000Y-38019000I-150000J0D01*
G01*
X119890000Y-38019000D01*
G75*
G02*
X119740000Y-37869000I0J150000D01*
G01*
G37*
G36*
G01*
X119740000Y-36599000D02*
X119740000Y-36299000D01*
G75*
G02*
X119890000Y-36149000I150000J0D01*
G01*
X121540000Y-36149000D01*
G75*
G02*
X121690000Y-36299000I0J-150000D01*
G01*
X121690000Y-36599000D01*
G75*
G02*
X121540000Y-36749000I-150000J0D01*
G01*
X119890000Y-36749000D01*
G75*
G02*
X119740000Y-36599000I0J150000D01*
G01*
G37*
G36*
G01*
X119740000Y-35329000D02*
X119740000Y-35029000D01*
G75*
G02*
X119890000Y-34879000I150000J0D01*
G01*
X121540000Y-34879000D01*
G75*
G02*
X121690000Y-35029000I0J-150000D01*
G01*
X121690000Y-35329000D01*
G75*
G02*
X121540000Y-35479000I-150000J0D01*
G01*
X119890000Y-35479000D01*
G75*
G02*
X119740000Y-35329000I0J150000D01*
G01*
G37*
G36*
G01*
X119740000Y-34059000D02*
X119740000Y-33759000D01*
G75*
G02*
X119890000Y-33609000I150000J0D01*
G01*
X121540000Y-33609000D01*
G75*
G02*
X121690000Y-33759000I0J-150000D01*
G01*
X121690000Y-34059000D01*
G75*
G02*
X121540000Y-34209000I-150000J0D01*
G01*
X119890000Y-34209000D01*
G75*
G02*
X119740000Y-34059000I0J150000D01*
G01*
G37*
G36*
G01*
X119740000Y-32789000D02*
X119740000Y-32489000D01*
G75*
G02*
X119890000Y-32339000I150000J0D01*
G01*
X121540000Y-32339000D01*
G75*
G02*
X121690000Y-32489000I0J-150000D01*
G01*
X121690000Y-32789000D01*
G75*
G02*
X121540000Y-32939000I-150000J0D01*
G01*
X119890000Y-32939000D01*
G75*
G02*
X119740000Y-32789000I0J150000D01*
G01*
G37*
G36*
G01*
X119740000Y-31519000D02*
X119740000Y-31219000D01*
G75*
G02*
X119890000Y-31069000I150000J0D01*
G01*
X121540000Y-31069000D01*
G75*
G02*
X121690000Y-31219000I0J-150000D01*
G01*
X121690000Y-31519000D01*
G75*
G02*
X121540000Y-31669000I-150000J0D01*
G01*
X119890000Y-31669000D01*
G75*
G02*
X119740000Y-31519000I0J150000D01*
G01*
G37*
G36*
G01*
X119740000Y-30249000D02*
X119740000Y-29949000D01*
G75*
G02*
X119890000Y-29799000I150000J0D01*
G01*
X121540000Y-29799000D01*
G75*
G02*
X121690000Y-29949000I0J-150000D01*
G01*
X121690000Y-30249000D01*
G75*
G02*
X121540000Y-30399000I-150000J0D01*
G01*
X119890000Y-30399000D01*
G75*
G02*
X119740000Y-30249000I0J150000D01*
G01*
G37*
G36*
G01*
X119740000Y-28979000D02*
X119740000Y-28679000D01*
G75*
G02*
X119890000Y-28529000I150000J0D01*
G01*
X121540000Y-28529000D01*
G75*
G02*
X121690000Y-28679000I0J-150000D01*
G01*
X121690000Y-28979000D01*
G75*
G02*
X121540000Y-29129000I-150000J0D01*
G01*
X119890000Y-29129000D01*
G75*
G02*
X119740000Y-28979000I0J150000D01*
G01*
G37*
%TD*%
D10*
%TO.C,U1*%
X130703500Y-48834000D03*
X130703500Y-50734000D03*
X128503500Y-50734000D03*
X128503500Y-49784000D03*
X128503500Y-48834000D03*
%TD*%
D11*
%TO.C,U2*%
X153543000Y-56506000D03*
X152273000Y-56506000D03*
X151003000Y-56506000D03*
X149733000Y-56506000D03*
X148463000Y-56506000D03*
X147193000Y-56506000D03*
X145923000Y-56506000D03*
X144653000Y-56506000D03*
X143383000Y-56506000D03*
X142113000Y-56506000D03*
X140843000Y-56506000D03*
X139573000Y-56506000D03*
X138303000Y-56506000D03*
X137033000Y-56506000D03*
D12*
X136033000Y-53721000D03*
X136033000Y-52451000D03*
X136033000Y-51181000D03*
X136033000Y-49911000D03*
X136033000Y-48641000D03*
X136033000Y-47371000D03*
X136033000Y-46101000D03*
X136033000Y-44831000D03*
X136033000Y-43561000D03*
X136033000Y-42291000D03*
D11*
X137033000Y-39506000D03*
X138303000Y-39506000D03*
X139573000Y-39506000D03*
X140843000Y-39506000D03*
X142113000Y-39506000D03*
X143383000Y-39506000D03*
X144653000Y-39506000D03*
X145923000Y-39506000D03*
X147193000Y-39506000D03*
X148463000Y-39506000D03*
X149733000Y-39506000D03*
X151003000Y-39506000D03*
X152273000Y-39506000D03*
X153543000Y-39506000D03*
D13*
X146043000Y-47006000D03*
%TD*%
D14*
%TO.C,SW1*%
X146374000Y-31841000D03*
X146374000Y-27341000D03*
X155124000Y-27341000D03*
X155124000Y-31841000D03*
%TD*%
D15*
%TO.C,Q4*%
X141240000Y-35814000D03*
X143240000Y-34864000D03*
X143240000Y-36764000D03*
%TD*%
%TO.C,Q3*%
X141240000Y-30226000D03*
X143240000Y-29276000D03*
X143240000Y-31176000D03*
%TD*%
%TO.C,Q1*%
X131810000Y-58674000D03*
X129810000Y-59624000D03*
X129810000Y-57724000D03*
%TD*%
D16*
%TO.C,J2*%
X115805000Y-37794000D03*
X115805000Y-36994000D03*
X115805000Y-32094000D03*
X115805000Y-31294000D03*
X115805000Y-31294000D03*
X115805000Y-32094000D03*
X115805000Y-36994000D03*
X115805000Y-37794000D03*
D17*
X115805000Y-32794000D03*
X115805000Y-33294000D03*
X115805000Y-33794000D03*
X115805000Y-34794000D03*
X115805000Y-35294000D03*
X115805000Y-35794000D03*
X115805000Y-36294000D03*
X115805000Y-34294000D03*
%TD*%
D18*
%TO.C,D2*%
X109284000Y-43434000D03*
X113284000Y-43434000D03*
%TD*%
%TO.C,D1*%
X116872000Y-43434000D03*
X120872000Y-43434000D03*
%TD*%
%TO.C,C7*%
G36*
G01*
X149027000Y-36846500D02*
X149027000Y-37321500D01*
G75*
G02*
X148789500Y-37559000I-237500J0D01*
G01*
X148189500Y-37559000D01*
G75*
G02*
X147952000Y-37321500I0J237500D01*
G01*
X147952000Y-36846500D01*
G75*
G02*
X148189500Y-36609000I237500J0D01*
G01*
X148789500Y-36609000D01*
G75*
G02*
X149027000Y-36846500I0J-237500D01*
G01*
G37*
G36*
G01*
X150752000Y-36846500D02*
X150752000Y-37321500D01*
G75*
G02*
X150514500Y-37559000I-237500J0D01*
G01*
X149914500Y-37559000D01*
G75*
G02*
X149677000Y-37321500I0J237500D01*
G01*
X149677000Y-36846500D01*
G75*
G02*
X149914500Y-36609000I237500J0D01*
G01*
X150514500Y-36609000D01*
G75*
G02*
X150752000Y-36846500I0J-237500D01*
G01*
G37*
%TD*%
%TO.C,C6*%
G36*
G01*
X128453000Y-28464500D02*
X128453000Y-28939500D01*
G75*
G02*
X128215500Y-29177000I-237500J0D01*
G01*
X127615500Y-29177000D01*
G75*
G02*
X127378000Y-28939500I0J237500D01*
G01*
X127378000Y-28464500D01*
G75*
G02*
X127615500Y-28227000I237500J0D01*
G01*
X128215500Y-28227000D01*
G75*
G02*
X128453000Y-28464500I0J-237500D01*
G01*
G37*
G36*
G01*
X130178000Y-28464500D02*
X130178000Y-28939500D01*
G75*
G02*
X129940500Y-29177000I-237500J0D01*
G01*
X129340500Y-29177000D01*
G75*
G02*
X129103000Y-28939500I0J237500D01*
G01*
X129103000Y-28464500D01*
G75*
G02*
X129340500Y-28227000I237500J0D01*
G01*
X129940500Y-28227000D01*
G75*
G02*
X130178000Y-28464500I0J-237500D01*
G01*
G37*
%TD*%
%TO.C,C5*%
G36*
G01*
X153386500Y-35543500D02*
X153386500Y-35068500D01*
G75*
G02*
X153624000Y-34831000I237500J0D01*
G01*
X154224000Y-34831000D01*
G75*
G02*
X154461500Y-35068500I0J-237500D01*
G01*
X154461500Y-35543500D01*
G75*
G02*
X154224000Y-35781000I-237500J0D01*
G01*
X153624000Y-35781000D01*
G75*
G02*
X153386500Y-35543500I0J237500D01*
G01*
G37*
G36*
G01*
X151661500Y-35543500D02*
X151661500Y-35068500D01*
G75*
G02*
X151899000Y-34831000I237500J0D01*
G01*
X152499000Y-34831000D01*
G75*
G02*
X152736500Y-35068500I0J-237500D01*
G01*
X152736500Y-35543500D01*
G75*
G02*
X152499000Y-35781000I-237500J0D01*
G01*
X151899000Y-35781000D01*
G75*
G02*
X151661500Y-35543500I0J237500D01*
G01*
G37*
%TD*%
%TO.C,C4*%
G36*
G01*
X153333500Y-37321500D02*
X153333500Y-36846500D01*
G75*
G02*
X153571000Y-36609000I237500J0D01*
G01*
X154171000Y-36609000D01*
G75*
G02*
X154408500Y-36846500I0J-237500D01*
G01*
X154408500Y-37321500D01*
G75*
G02*
X154171000Y-37559000I-237500J0D01*
G01*
X153571000Y-37559000D01*
G75*
G02*
X153333500Y-37321500I0J237500D01*
G01*
G37*
G36*
G01*
X151608500Y-37321500D02*
X151608500Y-36846500D01*
G75*
G02*
X151846000Y-36609000I237500J0D01*
G01*
X152446000Y-36609000D01*
G75*
G02*
X152683500Y-36846500I0J-237500D01*
G01*
X152683500Y-37321500D01*
G75*
G02*
X152446000Y-37559000I-237500J0D01*
G01*
X151846000Y-37559000D01*
G75*
G02*
X151608500Y-37321500I0J237500D01*
G01*
G37*
%TD*%
%TO.C,C3*%
G36*
G01*
X130984000Y-45622500D02*
X130509000Y-45622500D01*
G75*
G02*
X130271500Y-45385000I0J237500D01*
G01*
X130271500Y-44785000D01*
G75*
G02*
X130509000Y-44547500I237500J0D01*
G01*
X130984000Y-44547500D01*
G75*
G02*
X131221500Y-44785000I0J-237500D01*
G01*
X131221500Y-45385000D01*
G75*
G02*
X130984000Y-45622500I-237500J0D01*
G01*
G37*
G36*
G01*
X130984000Y-47347500D02*
X130509000Y-47347500D01*
G75*
G02*
X130271500Y-47110000I0J237500D01*
G01*
X130271500Y-46510000D01*
G75*
G02*
X130509000Y-46272500I237500J0D01*
G01*
X130984000Y-46272500D01*
G75*
G02*
X131221500Y-46510000I0J-237500D01*
G01*
X131221500Y-47110000D01*
G75*
G02*
X130984000Y-47347500I-237500J0D01*
G01*
G37*
%TD*%
%TO.C,C2*%
G36*
G01*
X129215000Y-52277000D02*
X129215000Y-52752000D01*
G75*
G02*
X128977500Y-52989500I-237500J0D01*
G01*
X128377500Y-52989500D01*
G75*
G02*
X128140000Y-52752000I0J237500D01*
G01*
X128140000Y-52277000D01*
G75*
G02*
X128377500Y-52039500I237500J0D01*
G01*
X128977500Y-52039500D01*
G75*
G02*
X129215000Y-52277000I0J-237500D01*
G01*
G37*
G36*
G01*
X130940000Y-52277000D02*
X130940000Y-52752000D01*
G75*
G02*
X130702500Y-52989500I-237500J0D01*
G01*
X130102500Y-52989500D01*
G75*
G02*
X129865000Y-52752000I0J237500D01*
G01*
X129865000Y-52277000D01*
G75*
G02*
X130102500Y-52039500I237500J0D01*
G01*
X130702500Y-52039500D01*
G75*
G02*
X130940000Y-52277000I0J-237500D01*
G01*
G37*
%TD*%
%TO.C,C1*%
G36*
G01*
X128761500Y-45649000D02*
X128286500Y-45649000D01*
G75*
G02*
X128049000Y-45411500I0J237500D01*
G01*
X128049000Y-44811500D01*
G75*
G02*
X128286500Y-44574000I237500J0D01*
G01*
X128761500Y-44574000D01*
G75*
G02*
X128999000Y-44811500I0J-237500D01*
G01*
X128999000Y-45411500D01*
G75*
G02*
X128761500Y-45649000I-237500J0D01*
G01*
G37*
G36*
G01*
X128761500Y-47374000D02*
X128286500Y-47374000D01*
G75*
G02*
X128049000Y-47136500I0J237500D01*
G01*
X128049000Y-46536500D01*
G75*
G02*
X128286500Y-46299000I237500J0D01*
G01*
X128761500Y-46299000D01*
G75*
G02*
X128999000Y-46536500I0J-237500D01*
G01*
X128999000Y-47136500D01*
G75*
G02*
X128761500Y-47374000I-237500J0D01*
G01*
G37*
%TD*%
M02*
