%TF.GenerationSoftware,KiCad,Pcbnew,5.1.10-88a1d61d58~90~ubuntu20.04.1*%
%TF.CreationDate,2021-11-06T19:29:54+01:00*%
%TF.ProjectId,e-meter-usb-c,652d6d65-7465-4722-9d75-73622d632e6b,rev?*%
%TF.SameCoordinates,Original*%
%TF.FileFunction,Legend,Top*%
%TF.FilePolarity,Positive*%
%FSLAX46Y46*%
G04 Gerber Fmt 4.6, Leading zero omitted, Abs format (unit mm)*
G04 Created by KiCad (PCBNEW 5.1.10-88a1d61d58~90~ubuntu20.04.1) date 2021-11-06 19:29:54*
%MOMM*%
%LPD*%
G01*
G04 APERTURE LIST*
%ADD10C,0.250000*%
%ADD11C,0.300000*%
%ADD12C,0.120000*%
%ADD13C,0.100000*%
%ADD14C,0.150000*%
%ADD15R,1.060000X0.650000*%
%ADD16R,0.900000X2.000000*%
%ADD17R,2.000000X0.900000*%
%ADD18R,5.000000X5.000000*%
%ADD19C,1.000000*%
%ADD20R,2.350000X1.300000*%
%ADD21R,0.900000X0.800000*%
%ADD22R,1.450000X0.600000*%
%ADD23R,1.450000X0.300000*%
%ADD24O,2.100000X1.000000*%
%ADD25C,0.650000*%
%ADD26O,1.600000X1.000000*%
%ADD27R,1.520000X1.520000*%
%ADD28C,3.250000*%
%ADD29C,1.520000*%
%ADD30R,2.500000X1.800000*%
G04 APERTURE END LIST*
D10*
X151001663Y-61064857D02*
X150894520Y-61922000D01*
X150820711Y-62093428D01*
X150701663Y-62207714D01*
X150537377Y-62264857D01*
X150432616Y-62264857D01*
X151846901Y-62264857D02*
X151925473Y-61636285D01*
X151887377Y-61522000D01*
X151789758Y-61464857D01*
X151580235Y-61464857D01*
X151468330Y-61522000D01*
X151854044Y-62207714D02*
X151742139Y-62264857D01*
X151480235Y-62264857D01*
X151382616Y-62207714D01*
X151344520Y-62093428D01*
X151358806Y-61979142D01*
X151425473Y-61864857D01*
X151537377Y-61807714D01*
X151799282Y-61807714D01*
X151911187Y-61750571D01*
X152370711Y-62264857D02*
X152520711Y-61064857D01*
X152532616Y-61807714D02*
X152789758Y-62264857D01*
X152889758Y-61464857D02*
X152413568Y-61922000D01*
X153418330Y-62264857D02*
X153320711Y-62207714D01*
X153275473Y-62150571D01*
X153237377Y-62036285D01*
X153280235Y-61693428D01*
X153346901Y-61579142D01*
X153406425Y-61522000D01*
X153518330Y-61464857D01*
X153675473Y-61464857D01*
X153773092Y-61522000D01*
X153818330Y-61579142D01*
X153856425Y-61693428D01*
X153813568Y-62036285D01*
X153746901Y-62150571D01*
X153687377Y-62207714D01*
X153575473Y-62264857D01*
X153418330Y-62264857D01*
X154256425Y-62264857D02*
X154406425Y-61064857D01*
X154349282Y-61522000D02*
X154461187Y-61464857D01*
X154670711Y-61464857D01*
X154768330Y-61522000D01*
X154813568Y-61579142D01*
X154851663Y-61693428D01*
X154808806Y-62036285D01*
X154742139Y-62150571D01*
X154682616Y-62207714D01*
X154570711Y-62264857D01*
X154361187Y-62264857D01*
X154263568Y-62207714D01*
X156718330Y-62264857D02*
X156423092Y-61693428D01*
X156089758Y-62264857D02*
X156239758Y-61064857D01*
X156658806Y-61064857D01*
X156756425Y-61122000D01*
X156801663Y-61179142D01*
X156839758Y-61293428D01*
X156818330Y-61464857D01*
X156751663Y-61579142D01*
X156692139Y-61636285D01*
X156580235Y-61693428D01*
X156161187Y-61693428D01*
X157761187Y-61464857D02*
X157661187Y-62264857D01*
X157289758Y-61464857D02*
X157211187Y-62093428D01*
X157249282Y-62207714D01*
X157346901Y-62264857D01*
X157504044Y-62264857D01*
X157615949Y-62207714D01*
X157675473Y-62150571D01*
X158184997Y-62264857D02*
X158334997Y-61064857D01*
X158656425Y-62264857D02*
X158734997Y-61636285D01*
X158696901Y-61522000D01*
X158599282Y-61464857D01*
X158442139Y-61464857D01*
X158330235Y-61522000D01*
X158270711Y-61579142D01*
X159606425Y-62207714D02*
X159494520Y-62264857D01*
X159284997Y-62264857D01*
X159187377Y-62207714D01*
X159149282Y-62093428D01*
X159206425Y-61636285D01*
X159273092Y-61522000D01*
X159384997Y-61464857D01*
X159594520Y-61464857D01*
X159692139Y-61522000D01*
X159730235Y-61636285D01*
X159715949Y-61750571D01*
X159177854Y-61864857D01*
D11*
X159174571Y-30285428D02*
X158460285Y-30785428D01*
X159174571Y-31142571D02*
X157674571Y-31142571D01*
X157674571Y-30571142D01*
X157746000Y-30428285D01*
X157817428Y-30356857D01*
X157960285Y-30285428D01*
X158174571Y-30285428D01*
X158317428Y-30356857D01*
X158388857Y-30428285D01*
X158460285Y-30571142D01*
X158460285Y-31142571D01*
X159103142Y-29714000D02*
X159174571Y-29499714D01*
X159174571Y-29142571D01*
X159103142Y-28999714D01*
X159031714Y-28928285D01*
X158888857Y-28856857D01*
X158746000Y-28856857D01*
X158603142Y-28928285D01*
X158531714Y-28999714D01*
X158460285Y-29142571D01*
X158388857Y-29428285D01*
X158317428Y-29571142D01*
X158246000Y-29642571D01*
X158103142Y-29714000D01*
X157960285Y-29714000D01*
X157817428Y-29642571D01*
X157746000Y-29571142D01*
X157674571Y-29428285D01*
X157674571Y-29071142D01*
X157746000Y-28856857D01*
X157674571Y-28428285D02*
X157674571Y-27571142D01*
X159174571Y-27999714D02*
X157674571Y-27999714D01*
X150863857Y-60486857D02*
X150863857Y-59286857D01*
X150863857Y-59858285D02*
X151549571Y-59858285D01*
X151549571Y-60486857D02*
X151549571Y-59286857D01*
X152063857Y-60144000D02*
X152635285Y-60144000D01*
X151949571Y-60486857D02*
X152349571Y-59286857D01*
X152749571Y-60486857D01*
X153149571Y-60486857D02*
X153149571Y-59286857D01*
X153835285Y-60486857D01*
X153835285Y-59286857D01*
X154406714Y-60486857D02*
X154406714Y-59686857D01*
X154406714Y-59286857D02*
X154349571Y-59344000D01*
X154406714Y-59401142D01*
X154463857Y-59344000D01*
X154406714Y-59286857D01*
X154406714Y-59401142D01*
X154806714Y-59686857D02*
X155263857Y-59686857D01*
X154978142Y-60486857D02*
X154978142Y-59458285D01*
X155035285Y-59344000D01*
X155149571Y-59286857D01*
X155263857Y-59286857D01*
X156463857Y-59686857D02*
X156749571Y-60486857D01*
X157035285Y-59686857D01*
X158121000Y-60486857D02*
X157435285Y-60486857D01*
X157778142Y-60486857D02*
X157778142Y-59286857D01*
X157663857Y-59458285D01*
X157549571Y-59572571D01*
X157435285Y-59629714D01*
X158635285Y-60372571D02*
X158692428Y-60429714D01*
X158635285Y-60486857D01*
X158578142Y-60429714D01*
X158635285Y-60372571D01*
X158635285Y-60486857D01*
X159835285Y-60486857D02*
X159149571Y-60486857D01*
X159492428Y-60486857D02*
X159492428Y-59286857D01*
X159378142Y-59458285D01*
X159263857Y-59572571D01*
X159149571Y-59629714D01*
X130961000Y-36238571D02*
X130961000Y-34738571D01*
X131818142Y-36238571D01*
X131818142Y-34738571D01*
X133103857Y-36167142D02*
X132961000Y-36238571D01*
X132675285Y-36238571D01*
X132532428Y-36167142D01*
X132461000Y-36024285D01*
X132461000Y-35452857D01*
X132532428Y-35310000D01*
X132675285Y-35238571D01*
X132961000Y-35238571D01*
X133103857Y-35310000D01*
X133175285Y-35452857D01*
X133175285Y-35595714D01*
X132461000Y-35738571D01*
X133603857Y-35238571D02*
X134175285Y-35238571D01*
X133818142Y-34738571D02*
X133818142Y-36024285D01*
X133889571Y-36167142D01*
X134032428Y-36238571D01*
X134175285Y-36238571D01*
X128893428Y-32809571D02*
X128893428Y-31309571D01*
X129393428Y-32381000D01*
X129893428Y-31309571D01*
X129893428Y-32809571D01*
X131179142Y-32738142D02*
X131036285Y-32809571D01*
X130750571Y-32809571D01*
X130607714Y-32738142D01*
X130536285Y-32595285D01*
X130536285Y-32023857D01*
X130607714Y-31881000D01*
X130750571Y-31809571D01*
X131036285Y-31809571D01*
X131179142Y-31881000D01*
X131250571Y-32023857D01*
X131250571Y-32166714D01*
X130536285Y-32309571D01*
X131679142Y-31809571D02*
X132250571Y-31809571D01*
X131893428Y-31309571D02*
X131893428Y-32595285D01*
X131964857Y-32738142D01*
X132107714Y-32809571D01*
X132250571Y-32809571D01*
X133322000Y-32738142D02*
X133179142Y-32809571D01*
X132893428Y-32809571D01*
X132750571Y-32738142D01*
X132679142Y-32595285D01*
X132679142Y-32023857D01*
X132750571Y-31881000D01*
X132893428Y-31809571D01*
X133179142Y-31809571D01*
X133322000Y-31881000D01*
X133393428Y-32023857D01*
X133393428Y-32166714D01*
X132679142Y-32309571D01*
X134036285Y-32809571D02*
X134036285Y-31809571D01*
X134036285Y-32095285D02*
X134107714Y-31952428D01*
X134179142Y-31881000D01*
X134322000Y-31809571D01*
X134464857Y-31809571D01*
X130945142Y-28491571D02*
X130945142Y-26991571D01*
X131516571Y-26991571D01*
X131659428Y-27063000D01*
X131730857Y-27134428D01*
X131802285Y-27277285D01*
X131802285Y-27491571D01*
X131730857Y-27634428D01*
X131659428Y-27705857D01*
X131516571Y-27777285D01*
X130945142Y-27777285D01*
X132302285Y-27491571D02*
X132588000Y-28491571D01*
X132873714Y-27777285D01*
X133159428Y-28491571D01*
X133445142Y-27491571D01*
X134016571Y-28491571D02*
X134016571Y-27491571D01*
X134016571Y-27777285D02*
X134088000Y-27634428D01*
X134159428Y-27563000D01*
X134302285Y-27491571D01*
X134445142Y-27491571D01*
D12*
%TO.C,R11*%
X138190500Y-35559276D02*
X138190500Y-36068724D01*
X137145500Y-35559276D02*
X137145500Y-36068724D01*
%TO.C,R10*%
X149097276Y-34783500D02*
X149606724Y-34783500D01*
X149097276Y-35828500D02*
X149606724Y-35828500D01*
%TO.C,R9*%
X118378500Y-36829276D02*
X118378500Y-37338724D01*
X117333500Y-36829276D02*
X117333500Y-37338724D01*
%TO.C,R8*%
X117333500Y-32131724D02*
X117333500Y-31622276D01*
X118378500Y-32131724D02*
X118378500Y-31622276D01*
%TO.C,R7*%
X138190500Y-32130276D02*
X138190500Y-32639724D01*
X137145500Y-32130276D02*
X137145500Y-32639724D01*
%TO.C,R6*%
X142494724Y-33542500D02*
X141985276Y-33542500D01*
X142494724Y-32497500D02*
X141985276Y-32497500D01*
%TO.C,R5*%
X142494724Y-27954500D02*
X141985276Y-27954500D01*
X142494724Y-26909500D02*
X141985276Y-26909500D01*
%TO.C,R4*%
X131088224Y-55894500D02*
X130578776Y-55894500D01*
X131088224Y-54849500D02*
X130578776Y-54849500D01*
%TO.C,R3*%
X138190500Y-27558276D02*
X138190500Y-28067724D01*
X137145500Y-27558276D02*
X137145500Y-28067724D01*
%TO.C,R2*%
X128665500Y-58419276D02*
X128665500Y-58928724D01*
X127620500Y-58419276D02*
X127620500Y-58928724D01*
%TO.C,D5*%
X135028000Y-35014000D02*
X135028000Y-37474000D01*
X135028000Y-37474000D02*
X136498000Y-37474000D01*
X136498000Y-37474000D02*
X136498000Y-35014000D01*
%TO.C,D4*%
X135028000Y-31585000D02*
X135028000Y-34045000D01*
X135028000Y-34045000D02*
X136498000Y-34045000D01*
X136498000Y-34045000D02*
X136498000Y-31585000D01*
%TO.C,D3*%
X135028000Y-27013000D02*
X135028000Y-29473000D01*
X135028000Y-29473000D02*
X136498000Y-29473000D01*
X136498000Y-29473000D02*
X136498000Y-27013000D01*
%TO.C,U4*%
X123190000Y-38334000D02*
X125140000Y-38334000D01*
X123190000Y-38334000D02*
X121240000Y-38334000D01*
X123190000Y-28214000D02*
X125140000Y-28214000D01*
X123190000Y-28214000D02*
X119740000Y-28214000D01*
%TO.C,U1*%
X128703500Y-51394000D02*
X130503500Y-51394000D01*
X130503500Y-48174000D02*
X128053500Y-48174000D01*
%TO.C,U2*%
X136188000Y-38886000D02*
X135408000Y-38886000D01*
X135408000Y-38886000D02*
X135408000Y-39886000D01*
X136188000Y-57126000D02*
X135408000Y-57126000D01*
X135408000Y-57126000D02*
X135408000Y-56126000D01*
X161153000Y-38886000D02*
X161153000Y-57126000D01*
X161153000Y-57126000D02*
X154733000Y-57126000D01*
X161153000Y-38886000D02*
X154733000Y-38886000D01*
X154733000Y-38886000D02*
X154733000Y-38506000D01*
%TO.C,TP7*%
X142051000Y-61341000D02*
G75*
G03*
X142051000Y-61341000I-700000J0D01*
G01*
%TO.C,TP6*%
X128843000Y-61341000D02*
G75*
G03*
X128843000Y-61341000I-700000J0D01*
G01*
%TO.C,TP5*%
X131510000Y-39624000D02*
G75*
G03*
X131510000Y-39624000I-700000J0D01*
G01*
%TO.C,TP4*%
X113095000Y-27940000D02*
G75*
G03*
X113095000Y-27940000I-700000J0D01*
G01*
%TO.C,TP3*%
X124144000Y-45720000D02*
G75*
G03*
X124144000Y-45720000I-700000J0D01*
G01*
%TO.C,TP2*%
X119318000Y-39878000D02*
G75*
G03*
X119318000Y-39878000I-700000J0D01*
G01*
%TO.C,TP1*%
X118302000Y-27813000D02*
G75*
G03*
X118302000Y-27813000I-700000J0D01*
G01*
%TO.C,SW1*%
X153979000Y-26361000D02*
X153979000Y-26391000D01*
X153979000Y-32821000D02*
X153979000Y-32791000D01*
X147519000Y-32821000D02*
X147519000Y-32791000D01*
X147519000Y-26391000D02*
X147519000Y-26361000D01*
X153979000Y-28291000D02*
X153979000Y-30891000D01*
X147519000Y-26361000D02*
X153979000Y-26361000D01*
X147519000Y-28291000D02*
X147519000Y-30891000D01*
X147519000Y-32821000D02*
X153979000Y-32821000D01*
%TO.C,Q4*%
X141480000Y-34234000D02*
X141480000Y-35164000D01*
X141480000Y-37394000D02*
X141480000Y-36464000D01*
X141480000Y-37394000D02*
X143640000Y-37394000D01*
X141480000Y-34234000D02*
X142940000Y-34234000D01*
%TO.C,Q3*%
X141480000Y-28646000D02*
X141480000Y-29576000D01*
X141480000Y-31806000D02*
X141480000Y-30876000D01*
X141480000Y-31806000D02*
X143640000Y-31806000D01*
X141480000Y-28646000D02*
X142940000Y-28646000D01*
%TO.C,Q1*%
X131570000Y-60254000D02*
X131570000Y-59324000D01*
X131570000Y-57094000D02*
X131570000Y-58024000D01*
X131570000Y-57094000D02*
X129410000Y-57094000D01*
X131570000Y-60254000D02*
X130110000Y-60254000D01*
%TO.C,J2*%
X109760000Y-29844000D02*
X107860000Y-29844000D01*
X113660000Y-29844000D02*
X111660000Y-29844000D01*
X109760000Y-39244000D02*
X107860000Y-39244000D01*
X113660000Y-39244000D02*
X111660000Y-39244000D01*
X107860000Y-29844000D02*
X107860000Y-39244000D01*
%TO.C,J1*%
X124198000Y-46900000D02*
X125728000Y-46900000D01*
X117178000Y-47370000D02*
X126198000Y-47370000D01*
D13*
X117248000Y-47370000D02*
X117178000Y-47370000D01*
D12*
X108198000Y-47370000D02*
X114978000Y-47370000D01*
X108198000Y-60570000D02*
X108198000Y-47370000D01*
D13*
X108208000Y-60570000D02*
X108198000Y-60570000D01*
D12*
X108198000Y-60570000D02*
X114978000Y-60570000D01*
D13*
X108318000Y-60570000D02*
X108198000Y-60570000D01*
D12*
X126198000Y-60570000D02*
X117178000Y-60570000D01*
X126198000Y-47370000D02*
X126198000Y-60570000D01*
%TO.C,D2*%
X114684000Y-45084000D02*
X114684000Y-41784000D01*
X114684000Y-41784000D02*
X109284000Y-41784000D01*
X114684000Y-45084000D02*
X109284000Y-45084000D01*
%TO.C,D1*%
X122272000Y-45084000D02*
X122272000Y-41784000D01*
X122272000Y-41784000D02*
X116872000Y-41784000D01*
X122272000Y-45084000D02*
X116872000Y-45084000D01*
%TO.C,C7*%
X149498267Y-37594000D02*
X149205733Y-37594000D01*
X149498267Y-36574000D02*
X149205733Y-36574000D01*
%TO.C,C6*%
X128924267Y-29212000D02*
X128631733Y-29212000D01*
X128924267Y-28192000D02*
X128631733Y-28192000D01*
%TO.C,C5*%
X152915233Y-34796000D02*
X153207767Y-34796000D01*
X152915233Y-35816000D02*
X153207767Y-35816000D01*
%TO.C,C4*%
X152862233Y-36574000D02*
X153154767Y-36574000D01*
X152862233Y-37594000D02*
X153154767Y-37594000D01*
%TO.C,C3*%
X130236500Y-46093767D02*
X130236500Y-45801233D01*
X131256500Y-46093767D02*
X131256500Y-45801233D01*
%TO.C,C2*%
X129686267Y-53024500D02*
X129393733Y-53024500D01*
X129686267Y-52004500D02*
X129393733Y-52004500D01*
%TO.C,C1*%
X128014000Y-46120267D02*
X128014000Y-45827733D01*
X129034000Y-46120267D02*
X129034000Y-45827733D01*
%TO.C,U4*%
D14*
X122443333Y-32737333D02*
X122443333Y-33530666D01*
X122490000Y-33624000D01*
X122536666Y-33670666D01*
X122630000Y-33717333D01*
X122816666Y-33717333D01*
X122910000Y-33670666D01*
X122956666Y-33624000D01*
X123003333Y-33530666D01*
X123003333Y-32737333D01*
X123890000Y-33064000D02*
X123890000Y-33717333D01*
X123656666Y-32690666D02*
X123423333Y-33390666D01*
X124030000Y-33390666D01*
%TO.C,U2*%
X140041380Y-48767904D02*
X140850904Y-48767904D01*
X140946142Y-48720285D01*
X140993761Y-48672666D01*
X141041380Y-48577428D01*
X141041380Y-48386952D01*
X140993761Y-48291714D01*
X140946142Y-48244095D01*
X140850904Y-48196476D01*
X140041380Y-48196476D01*
X140136619Y-47767904D02*
X140089000Y-47720285D01*
X140041380Y-47625047D01*
X140041380Y-47386952D01*
X140089000Y-47291714D01*
X140136619Y-47244095D01*
X140231857Y-47196476D01*
X140327095Y-47196476D01*
X140469952Y-47244095D01*
X141041380Y-47815523D01*
X141041380Y-47196476D01*
%TO.C,TP7*%
X142502095Y-60793380D02*
X143073523Y-60793380D01*
X142787809Y-61793380D02*
X142787809Y-60793380D01*
X143406857Y-61793380D02*
X143406857Y-60793380D01*
X143787809Y-60793380D01*
X143883047Y-60841000D01*
X143930666Y-60888619D01*
X143978285Y-60983857D01*
X143978285Y-61126714D01*
X143930666Y-61221952D01*
X143883047Y-61269571D01*
X143787809Y-61317190D01*
X143406857Y-61317190D01*
X144311619Y-60793380D02*
X144978285Y-60793380D01*
X144549714Y-61793380D01*
%TO.C,TP6*%
X129294095Y-60920380D02*
X129865523Y-60920380D01*
X129579809Y-61920380D02*
X129579809Y-60920380D01*
X130198857Y-61920380D02*
X130198857Y-60920380D01*
X130579809Y-60920380D01*
X130675047Y-60968000D01*
X130722666Y-61015619D01*
X130770285Y-61110857D01*
X130770285Y-61253714D01*
X130722666Y-61348952D01*
X130675047Y-61396571D01*
X130579809Y-61444190D01*
X130198857Y-61444190D01*
X131627428Y-60920380D02*
X131436952Y-60920380D01*
X131341714Y-60968000D01*
X131294095Y-61015619D01*
X131198857Y-61158476D01*
X131151238Y-61348952D01*
X131151238Y-61729904D01*
X131198857Y-61825142D01*
X131246476Y-61872761D01*
X131341714Y-61920380D01*
X131532190Y-61920380D01*
X131627428Y-61872761D01*
X131675047Y-61825142D01*
X131722666Y-61729904D01*
X131722666Y-61491809D01*
X131675047Y-61396571D01*
X131627428Y-61348952D01*
X131532190Y-61301333D01*
X131341714Y-61301333D01*
X131246476Y-61348952D01*
X131198857Y-61396571D01*
X131151238Y-61491809D01*
%TO.C,TP5*%
X129421095Y-37425380D02*
X129992523Y-37425380D01*
X129706809Y-38425380D02*
X129706809Y-37425380D01*
X130325857Y-38425380D02*
X130325857Y-37425380D01*
X130706809Y-37425380D01*
X130802047Y-37473000D01*
X130849666Y-37520619D01*
X130897285Y-37615857D01*
X130897285Y-37758714D01*
X130849666Y-37853952D01*
X130802047Y-37901571D01*
X130706809Y-37949190D01*
X130325857Y-37949190D01*
X131802047Y-37425380D02*
X131325857Y-37425380D01*
X131278238Y-37901571D01*
X131325857Y-37853952D01*
X131421095Y-37806333D01*
X131659190Y-37806333D01*
X131754428Y-37853952D01*
X131802047Y-37901571D01*
X131849666Y-37996809D01*
X131849666Y-38234904D01*
X131802047Y-38330142D01*
X131754428Y-38377761D01*
X131659190Y-38425380D01*
X131421095Y-38425380D01*
X131325857Y-38377761D01*
X131278238Y-38330142D01*
%TO.C,TP4*%
X108466095Y-27265380D02*
X109037523Y-27265380D01*
X108751809Y-28265380D02*
X108751809Y-27265380D01*
X109370857Y-28265380D02*
X109370857Y-27265380D01*
X109751809Y-27265380D01*
X109847047Y-27313000D01*
X109894666Y-27360619D01*
X109942285Y-27455857D01*
X109942285Y-27598714D01*
X109894666Y-27693952D01*
X109847047Y-27741571D01*
X109751809Y-27789190D01*
X109370857Y-27789190D01*
X110799428Y-27598714D02*
X110799428Y-28265380D01*
X110561333Y-27217761D02*
X110323238Y-27932047D01*
X110942285Y-27932047D01*
%TO.C,TP3*%
X124849095Y-45172380D02*
X125420523Y-45172380D01*
X125134809Y-46172380D02*
X125134809Y-45172380D01*
X125753857Y-46172380D02*
X125753857Y-45172380D01*
X126134809Y-45172380D01*
X126230047Y-45220000D01*
X126277666Y-45267619D01*
X126325285Y-45362857D01*
X126325285Y-45505714D01*
X126277666Y-45600952D01*
X126230047Y-45648571D01*
X126134809Y-45696190D01*
X125753857Y-45696190D01*
X126658619Y-45172380D02*
X127277666Y-45172380D01*
X126944333Y-45553333D01*
X127087190Y-45553333D01*
X127182428Y-45600952D01*
X127230047Y-45648571D01*
X127277666Y-45743809D01*
X127277666Y-45981904D01*
X127230047Y-46077142D01*
X127182428Y-46124761D01*
X127087190Y-46172380D01*
X126801476Y-46172380D01*
X126706238Y-46124761D01*
X126658619Y-46077142D01*
%TO.C,TP2*%
X119642095Y-39330380D02*
X120213523Y-39330380D01*
X119927809Y-40330380D02*
X119927809Y-39330380D01*
X120546857Y-40330380D02*
X120546857Y-39330380D01*
X120927809Y-39330380D01*
X121023047Y-39378000D01*
X121070666Y-39425619D01*
X121118285Y-39520857D01*
X121118285Y-39663714D01*
X121070666Y-39758952D01*
X121023047Y-39806571D01*
X120927809Y-39854190D01*
X120546857Y-39854190D01*
X121499238Y-39425619D02*
X121546857Y-39378000D01*
X121642095Y-39330380D01*
X121880190Y-39330380D01*
X121975428Y-39378000D01*
X122023047Y-39425619D01*
X122070666Y-39520857D01*
X122070666Y-39616095D01*
X122023047Y-39758952D01*
X121451619Y-40330380D01*
X122070666Y-40330380D01*
%TO.C,TP1*%
X114054095Y-27265380D02*
X114625523Y-27265380D01*
X114339809Y-28265380D02*
X114339809Y-27265380D01*
X114958857Y-28265380D02*
X114958857Y-27265380D01*
X115339809Y-27265380D01*
X115435047Y-27313000D01*
X115482666Y-27360619D01*
X115530285Y-27455857D01*
X115530285Y-27598714D01*
X115482666Y-27693952D01*
X115435047Y-27741571D01*
X115339809Y-27789190D01*
X114958857Y-27789190D01*
X116482666Y-28265380D02*
X115911238Y-28265380D01*
X116196952Y-28265380D02*
X116196952Y-27265380D01*
X116101714Y-27408238D01*
X116006476Y-27503476D01*
X115911238Y-27551095D01*
%TO.C,SW1*%
X149542666Y-29995761D02*
X149685523Y-30043380D01*
X149923619Y-30043380D01*
X150018857Y-29995761D01*
X150066476Y-29948142D01*
X150114095Y-29852904D01*
X150114095Y-29757666D01*
X150066476Y-29662428D01*
X150018857Y-29614809D01*
X149923619Y-29567190D01*
X149733142Y-29519571D01*
X149637904Y-29471952D01*
X149590285Y-29424333D01*
X149542666Y-29329095D01*
X149542666Y-29233857D01*
X149590285Y-29138619D01*
X149637904Y-29091000D01*
X149733142Y-29043380D01*
X149971238Y-29043380D01*
X150114095Y-29091000D01*
X150447428Y-29043380D02*
X150685523Y-30043380D01*
X150876000Y-29329095D01*
X151066476Y-30043380D01*
X151304571Y-29043380D01*
X152209333Y-30043380D02*
X151637904Y-30043380D01*
X151923619Y-30043380D02*
X151923619Y-29043380D01*
X151828380Y-29186238D01*
X151733142Y-29281476D01*
X151637904Y-29329095D01*
%TO.C,J2*%
X111212380Y-34877333D02*
X111926666Y-34877333D01*
X112069523Y-34924952D01*
X112164761Y-35020190D01*
X112212380Y-35163047D01*
X112212380Y-35258285D01*
X111307619Y-34448761D02*
X111260000Y-34401142D01*
X111212380Y-34305904D01*
X111212380Y-34067809D01*
X111260000Y-33972571D01*
X111307619Y-33924952D01*
X111402857Y-33877333D01*
X111498095Y-33877333D01*
X111640952Y-33924952D01*
X112212380Y-34496380D01*
X112212380Y-33877333D01*
%TO.C,J1*%
X116660380Y-54293333D02*
X117374666Y-54293333D01*
X117517523Y-54340952D01*
X117612761Y-54436190D01*
X117660380Y-54579047D01*
X117660380Y-54674285D01*
X117660380Y-53293333D02*
X117660380Y-53864761D01*
X117660380Y-53579047D02*
X116660380Y-53579047D01*
X116803238Y-53674285D01*
X116898476Y-53769523D01*
X116946095Y-53864761D01*
%TD*%
%LPC*%
%TO.C,R11*%
G36*
G01*
X137430500Y-36239000D02*
X137905500Y-36239000D01*
G75*
G02*
X138143000Y-36476500I0J-237500D01*
G01*
X138143000Y-36976500D01*
G75*
G02*
X137905500Y-37214000I-237500J0D01*
G01*
X137430500Y-37214000D01*
G75*
G02*
X137193000Y-36976500I0J237500D01*
G01*
X137193000Y-36476500D01*
G75*
G02*
X137430500Y-36239000I237500J0D01*
G01*
G37*
G36*
G01*
X137430500Y-34414000D02*
X137905500Y-34414000D01*
G75*
G02*
X138143000Y-34651500I0J-237500D01*
G01*
X138143000Y-35151500D01*
G75*
G02*
X137905500Y-35389000I-237500J0D01*
G01*
X137430500Y-35389000D01*
G75*
G02*
X137193000Y-35151500I0J237500D01*
G01*
X137193000Y-34651500D01*
G75*
G02*
X137430500Y-34414000I237500J0D01*
G01*
G37*
%TD*%
%TO.C,R10*%
G36*
G01*
X149777000Y-35543500D02*
X149777000Y-35068500D01*
G75*
G02*
X150014500Y-34831000I237500J0D01*
G01*
X150514500Y-34831000D01*
G75*
G02*
X150752000Y-35068500I0J-237500D01*
G01*
X150752000Y-35543500D01*
G75*
G02*
X150514500Y-35781000I-237500J0D01*
G01*
X150014500Y-35781000D01*
G75*
G02*
X149777000Y-35543500I0J237500D01*
G01*
G37*
G36*
G01*
X147952000Y-35543500D02*
X147952000Y-35068500D01*
G75*
G02*
X148189500Y-34831000I237500J0D01*
G01*
X148689500Y-34831000D01*
G75*
G02*
X148927000Y-35068500I0J-237500D01*
G01*
X148927000Y-35543500D01*
G75*
G02*
X148689500Y-35781000I-237500J0D01*
G01*
X148189500Y-35781000D01*
G75*
G02*
X147952000Y-35543500I0J237500D01*
G01*
G37*
%TD*%
%TO.C,R9*%
G36*
G01*
X117618500Y-37509000D02*
X118093500Y-37509000D01*
G75*
G02*
X118331000Y-37746500I0J-237500D01*
G01*
X118331000Y-38246500D01*
G75*
G02*
X118093500Y-38484000I-237500J0D01*
G01*
X117618500Y-38484000D01*
G75*
G02*
X117381000Y-38246500I0J237500D01*
G01*
X117381000Y-37746500D01*
G75*
G02*
X117618500Y-37509000I237500J0D01*
G01*
G37*
G36*
G01*
X117618500Y-35684000D02*
X118093500Y-35684000D01*
G75*
G02*
X118331000Y-35921500I0J-237500D01*
G01*
X118331000Y-36421500D01*
G75*
G02*
X118093500Y-36659000I-237500J0D01*
G01*
X117618500Y-36659000D01*
G75*
G02*
X117381000Y-36421500I0J237500D01*
G01*
X117381000Y-35921500D01*
G75*
G02*
X117618500Y-35684000I237500J0D01*
G01*
G37*
%TD*%
%TO.C,R8*%
G36*
G01*
X118093500Y-31452000D02*
X117618500Y-31452000D01*
G75*
G02*
X117381000Y-31214500I0J237500D01*
G01*
X117381000Y-30714500D01*
G75*
G02*
X117618500Y-30477000I237500J0D01*
G01*
X118093500Y-30477000D01*
G75*
G02*
X118331000Y-30714500I0J-237500D01*
G01*
X118331000Y-31214500D01*
G75*
G02*
X118093500Y-31452000I-237500J0D01*
G01*
G37*
G36*
G01*
X118093500Y-33277000D02*
X117618500Y-33277000D01*
G75*
G02*
X117381000Y-33039500I0J237500D01*
G01*
X117381000Y-32539500D01*
G75*
G02*
X117618500Y-32302000I237500J0D01*
G01*
X118093500Y-32302000D01*
G75*
G02*
X118331000Y-32539500I0J-237500D01*
G01*
X118331000Y-33039500D01*
G75*
G02*
X118093500Y-33277000I-237500J0D01*
G01*
G37*
%TD*%
%TO.C,R7*%
G36*
G01*
X137430500Y-32810000D02*
X137905500Y-32810000D01*
G75*
G02*
X138143000Y-33047500I0J-237500D01*
G01*
X138143000Y-33547500D01*
G75*
G02*
X137905500Y-33785000I-237500J0D01*
G01*
X137430500Y-33785000D01*
G75*
G02*
X137193000Y-33547500I0J237500D01*
G01*
X137193000Y-33047500D01*
G75*
G02*
X137430500Y-32810000I237500J0D01*
G01*
G37*
G36*
G01*
X137430500Y-30985000D02*
X137905500Y-30985000D01*
G75*
G02*
X138143000Y-31222500I0J-237500D01*
G01*
X138143000Y-31722500D01*
G75*
G02*
X137905500Y-31960000I-237500J0D01*
G01*
X137430500Y-31960000D01*
G75*
G02*
X137193000Y-31722500I0J237500D01*
G01*
X137193000Y-31222500D01*
G75*
G02*
X137430500Y-30985000I237500J0D01*
G01*
G37*
%TD*%
%TO.C,R6*%
G36*
G01*
X141815000Y-32782500D02*
X141815000Y-33257500D01*
G75*
G02*
X141577500Y-33495000I-237500J0D01*
G01*
X141077500Y-33495000D01*
G75*
G02*
X140840000Y-33257500I0J237500D01*
G01*
X140840000Y-32782500D01*
G75*
G02*
X141077500Y-32545000I237500J0D01*
G01*
X141577500Y-32545000D01*
G75*
G02*
X141815000Y-32782500I0J-237500D01*
G01*
G37*
G36*
G01*
X143640000Y-32782500D02*
X143640000Y-33257500D01*
G75*
G02*
X143402500Y-33495000I-237500J0D01*
G01*
X142902500Y-33495000D01*
G75*
G02*
X142665000Y-33257500I0J237500D01*
G01*
X142665000Y-32782500D01*
G75*
G02*
X142902500Y-32545000I237500J0D01*
G01*
X143402500Y-32545000D01*
G75*
G02*
X143640000Y-32782500I0J-237500D01*
G01*
G37*
%TD*%
%TO.C,R5*%
G36*
G01*
X141815000Y-27194500D02*
X141815000Y-27669500D01*
G75*
G02*
X141577500Y-27907000I-237500J0D01*
G01*
X141077500Y-27907000D01*
G75*
G02*
X140840000Y-27669500I0J237500D01*
G01*
X140840000Y-27194500D01*
G75*
G02*
X141077500Y-26957000I237500J0D01*
G01*
X141577500Y-26957000D01*
G75*
G02*
X141815000Y-27194500I0J-237500D01*
G01*
G37*
G36*
G01*
X143640000Y-27194500D02*
X143640000Y-27669500D01*
G75*
G02*
X143402500Y-27907000I-237500J0D01*
G01*
X142902500Y-27907000D01*
G75*
G02*
X142665000Y-27669500I0J237500D01*
G01*
X142665000Y-27194500D01*
G75*
G02*
X142902500Y-26957000I237500J0D01*
G01*
X143402500Y-26957000D01*
G75*
G02*
X143640000Y-27194500I0J-237500D01*
G01*
G37*
%TD*%
%TO.C,R4*%
G36*
G01*
X130408500Y-55134500D02*
X130408500Y-55609500D01*
G75*
G02*
X130171000Y-55847000I-237500J0D01*
G01*
X129671000Y-55847000D01*
G75*
G02*
X129433500Y-55609500I0J237500D01*
G01*
X129433500Y-55134500D01*
G75*
G02*
X129671000Y-54897000I237500J0D01*
G01*
X130171000Y-54897000D01*
G75*
G02*
X130408500Y-55134500I0J-237500D01*
G01*
G37*
G36*
G01*
X132233500Y-55134500D02*
X132233500Y-55609500D01*
G75*
G02*
X131996000Y-55847000I-237500J0D01*
G01*
X131496000Y-55847000D01*
G75*
G02*
X131258500Y-55609500I0J237500D01*
G01*
X131258500Y-55134500D01*
G75*
G02*
X131496000Y-54897000I237500J0D01*
G01*
X131996000Y-54897000D01*
G75*
G02*
X132233500Y-55134500I0J-237500D01*
G01*
G37*
%TD*%
%TO.C,R3*%
G36*
G01*
X137430500Y-28238000D02*
X137905500Y-28238000D01*
G75*
G02*
X138143000Y-28475500I0J-237500D01*
G01*
X138143000Y-28975500D01*
G75*
G02*
X137905500Y-29213000I-237500J0D01*
G01*
X137430500Y-29213000D01*
G75*
G02*
X137193000Y-28975500I0J237500D01*
G01*
X137193000Y-28475500D01*
G75*
G02*
X137430500Y-28238000I237500J0D01*
G01*
G37*
G36*
G01*
X137430500Y-26413000D02*
X137905500Y-26413000D01*
G75*
G02*
X138143000Y-26650500I0J-237500D01*
G01*
X138143000Y-27150500D01*
G75*
G02*
X137905500Y-27388000I-237500J0D01*
G01*
X137430500Y-27388000D01*
G75*
G02*
X137193000Y-27150500I0J237500D01*
G01*
X137193000Y-26650500D01*
G75*
G02*
X137430500Y-26413000I237500J0D01*
G01*
G37*
%TD*%
%TO.C,R2*%
G36*
G01*
X127905500Y-59099000D02*
X128380500Y-59099000D01*
G75*
G02*
X128618000Y-59336500I0J-237500D01*
G01*
X128618000Y-59836500D01*
G75*
G02*
X128380500Y-60074000I-237500J0D01*
G01*
X127905500Y-60074000D01*
G75*
G02*
X127668000Y-59836500I0J237500D01*
G01*
X127668000Y-59336500D01*
G75*
G02*
X127905500Y-59099000I237500J0D01*
G01*
G37*
G36*
G01*
X127905500Y-57274000D02*
X128380500Y-57274000D01*
G75*
G02*
X128618000Y-57511500I0J-237500D01*
G01*
X128618000Y-58011500D01*
G75*
G02*
X128380500Y-58249000I-237500J0D01*
G01*
X127905500Y-58249000D01*
G75*
G02*
X127668000Y-58011500I0J237500D01*
G01*
X127668000Y-57511500D01*
G75*
G02*
X127905500Y-57274000I237500J0D01*
G01*
G37*
%TD*%
%TO.C,D5*%
G36*
G01*
X136000500Y-35464000D02*
X135525500Y-35464000D01*
G75*
G02*
X135288000Y-35226500I0J237500D01*
G01*
X135288000Y-34651500D01*
G75*
G02*
X135525500Y-34414000I237500J0D01*
G01*
X136000500Y-34414000D01*
G75*
G02*
X136238000Y-34651500I0J-237500D01*
G01*
X136238000Y-35226500D01*
G75*
G02*
X136000500Y-35464000I-237500J0D01*
G01*
G37*
G36*
G01*
X136000500Y-37214000D02*
X135525500Y-37214000D01*
G75*
G02*
X135288000Y-36976500I0J237500D01*
G01*
X135288000Y-36401500D01*
G75*
G02*
X135525500Y-36164000I237500J0D01*
G01*
X136000500Y-36164000D01*
G75*
G02*
X136238000Y-36401500I0J-237500D01*
G01*
X136238000Y-36976500D01*
G75*
G02*
X136000500Y-37214000I-237500J0D01*
G01*
G37*
%TD*%
%TO.C,D4*%
G36*
G01*
X136000500Y-32035000D02*
X135525500Y-32035000D01*
G75*
G02*
X135288000Y-31797500I0J237500D01*
G01*
X135288000Y-31222500D01*
G75*
G02*
X135525500Y-30985000I237500J0D01*
G01*
X136000500Y-30985000D01*
G75*
G02*
X136238000Y-31222500I0J-237500D01*
G01*
X136238000Y-31797500D01*
G75*
G02*
X136000500Y-32035000I-237500J0D01*
G01*
G37*
G36*
G01*
X136000500Y-33785000D02*
X135525500Y-33785000D01*
G75*
G02*
X135288000Y-33547500I0J237500D01*
G01*
X135288000Y-32972500D01*
G75*
G02*
X135525500Y-32735000I237500J0D01*
G01*
X136000500Y-32735000D01*
G75*
G02*
X136238000Y-32972500I0J-237500D01*
G01*
X136238000Y-33547500D01*
G75*
G02*
X136000500Y-33785000I-237500J0D01*
G01*
G37*
%TD*%
%TO.C,D3*%
G36*
G01*
X136000500Y-27463000D02*
X135525500Y-27463000D01*
G75*
G02*
X135288000Y-27225500I0J237500D01*
G01*
X135288000Y-26650500D01*
G75*
G02*
X135525500Y-26413000I237500J0D01*
G01*
X136000500Y-26413000D01*
G75*
G02*
X136238000Y-26650500I0J-237500D01*
G01*
X136238000Y-27225500D01*
G75*
G02*
X136000500Y-27463000I-237500J0D01*
G01*
G37*
G36*
G01*
X136000500Y-29213000D02*
X135525500Y-29213000D01*
G75*
G02*
X135288000Y-28975500I0J237500D01*
G01*
X135288000Y-28400500D01*
G75*
G02*
X135525500Y-28163000I237500J0D01*
G01*
X136000500Y-28163000D01*
G75*
G02*
X136238000Y-28400500I0J-237500D01*
G01*
X136238000Y-28975500D01*
G75*
G02*
X136000500Y-29213000I-237500J0D01*
G01*
G37*
%TD*%
%TO.C,U4*%
G36*
G01*
X124690000Y-28979000D02*
X124690000Y-28679000D01*
G75*
G02*
X124840000Y-28529000I150000J0D01*
G01*
X126490000Y-28529000D01*
G75*
G02*
X126640000Y-28679000I0J-150000D01*
G01*
X126640000Y-28979000D01*
G75*
G02*
X126490000Y-29129000I-150000J0D01*
G01*
X124840000Y-29129000D01*
G75*
G02*
X124690000Y-28979000I0J150000D01*
G01*
G37*
G36*
G01*
X124690000Y-30249000D02*
X124690000Y-29949000D01*
G75*
G02*
X124840000Y-29799000I150000J0D01*
G01*
X126490000Y-29799000D01*
G75*
G02*
X126640000Y-29949000I0J-150000D01*
G01*
X126640000Y-30249000D01*
G75*
G02*
X126490000Y-30399000I-150000J0D01*
G01*
X124840000Y-30399000D01*
G75*
G02*
X124690000Y-30249000I0J150000D01*
G01*
G37*
G36*
G01*
X124690000Y-31519000D02*
X124690000Y-31219000D01*
G75*
G02*
X124840000Y-31069000I150000J0D01*
G01*
X126490000Y-31069000D01*
G75*
G02*
X126640000Y-31219000I0J-150000D01*
G01*
X126640000Y-31519000D01*
G75*
G02*
X126490000Y-31669000I-150000J0D01*
G01*
X124840000Y-31669000D01*
G75*
G02*
X124690000Y-31519000I0J150000D01*
G01*
G37*
G36*
G01*
X124690000Y-32789000D02*
X124690000Y-32489000D01*
G75*
G02*
X124840000Y-32339000I150000J0D01*
G01*
X126490000Y-32339000D01*
G75*
G02*
X126640000Y-32489000I0J-150000D01*
G01*
X126640000Y-32789000D01*
G75*
G02*
X126490000Y-32939000I-150000J0D01*
G01*
X124840000Y-32939000D01*
G75*
G02*
X124690000Y-32789000I0J150000D01*
G01*
G37*
G36*
G01*
X124690000Y-34059000D02*
X124690000Y-33759000D01*
G75*
G02*
X124840000Y-33609000I150000J0D01*
G01*
X126490000Y-33609000D01*
G75*
G02*
X126640000Y-33759000I0J-150000D01*
G01*
X126640000Y-34059000D01*
G75*
G02*
X126490000Y-34209000I-150000J0D01*
G01*
X124840000Y-34209000D01*
G75*
G02*
X124690000Y-34059000I0J150000D01*
G01*
G37*
G36*
G01*
X124690000Y-35329000D02*
X124690000Y-35029000D01*
G75*
G02*
X124840000Y-34879000I150000J0D01*
G01*
X126490000Y-34879000D01*
G75*
G02*
X126640000Y-35029000I0J-150000D01*
G01*
X126640000Y-35329000D01*
G75*
G02*
X126490000Y-35479000I-150000J0D01*
G01*
X124840000Y-35479000D01*
G75*
G02*
X124690000Y-35329000I0J150000D01*
G01*
G37*
G36*
G01*
X124690000Y-36599000D02*
X124690000Y-36299000D01*
G75*
G02*
X124840000Y-36149000I150000J0D01*
G01*
X126490000Y-36149000D01*
G75*
G02*
X126640000Y-36299000I0J-150000D01*
G01*
X126640000Y-36599000D01*
G75*
G02*
X126490000Y-36749000I-150000J0D01*
G01*
X124840000Y-36749000D01*
G75*
G02*
X124690000Y-36599000I0J150000D01*
G01*
G37*
G36*
G01*
X124690000Y-37869000D02*
X124690000Y-37569000D01*
G75*
G02*
X124840000Y-37419000I150000J0D01*
G01*
X126490000Y-37419000D01*
G75*
G02*
X126640000Y-37569000I0J-150000D01*
G01*
X126640000Y-37869000D01*
G75*
G02*
X126490000Y-38019000I-150000J0D01*
G01*
X124840000Y-38019000D01*
G75*
G02*
X124690000Y-37869000I0J150000D01*
G01*
G37*
G36*
G01*
X119740000Y-37869000D02*
X119740000Y-37569000D01*
G75*
G02*
X119890000Y-37419000I150000J0D01*
G01*
X121540000Y-37419000D01*
G75*
G02*
X121690000Y-37569000I0J-150000D01*
G01*
X121690000Y-37869000D01*
G75*
G02*
X121540000Y-38019000I-150000J0D01*
G01*
X119890000Y-38019000D01*
G75*
G02*
X119740000Y-37869000I0J150000D01*
G01*
G37*
G36*
G01*
X119740000Y-36599000D02*
X119740000Y-36299000D01*
G75*
G02*
X119890000Y-36149000I150000J0D01*
G01*
X121540000Y-36149000D01*
G75*
G02*
X121690000Y-36299000I0J-150000D01*
G01*
X121690000Y-36599000D01*
G75*
G02*
X121540000Y-36749000I-150000J0D01*
G01*
X119890000Y-36749000D01*
G75*
G02*
X119740000Y-36599000I0J150000D01*
G01*
G37*
G36*
G01*
X119740000Y-35329000D02*
X119740000Y-35029000D01*
G75*
G02*
X119890000Y-34879000I150000J0D01*
G01*
X121540000Y-34879000D01*
G75*
G02*
X121690000Y-35029000I0J-150000D01*
G01*
X121690000Y-35329000D01*
G75*
G02*
X121540000Y-35479000I-150000J0D01*
G01*
X119890000Y-35479000D01*
G75*
G02*
X119740000Y-35329000I0J150000D01*
G01*
G37*
G36*
G01*
X119740000Y-34059000D02*
X119740000Y-33759000D01*
G75*
G02*
X119890000Y-33609000I150000J0D01*
G01*
X121540000Y-33609000D01*
G75*
G02*
X121690000Y-33759000I0J-150000D01*
G01*
X121690000Y-34059000D01*
G75*
G02*
X121540000Y-34209000I-150000J0D01*
G01*
X119890000Y-34209000D01*
G75*
G02*
X119740000Y-34059000I0J150000D01*
G01*
G37*
G36*
G01*
X119740000Y-32789000D02*
X119740000Y-32489000D01*
G75*
G02*
X119890000Y-32339000I150000J0D01*
G01*
X121540000Y-32339000D01*
G75*
G02*
X121690000Y-32489000I0J-150000D01*
G01*
X121690000Y-32789000D01*
G75*
G02*
X121540000Y-32939000I-150000J0D01*
G01*
X119890000Y-32939000D01*
G75*
G02*
X119740000Y-32789000I0J150000D01*
G01*
G37*
G36*
G01*
X119740000Y-31519000D02*
X119740000Y-31219000D01*
G75*
G02*
X119890000Y-31069000I150000J0D01*
G01*
X121540000Y-31069000D01*
G75*
G02*
X121690000Y-31219000I0J-150000D01*
G01*
X121690000Y-31519000D01*
G75*
G02*
X121540000Y-31669000I-150000J0D01*
G01*
X119890000Y-31669000D01*
G75*
G02*
X119740000Y-31519000I0J150000D01*
G01*
G37*
G36*
G01*
X119740000Y-30249000D02*
X119740000Y-29949000D01*
G75*
G02*
X119890000Y-29799000I150000J0D01*
G01*
X121540000Y-29799000D01*
G75*
G02*
X121690000Y-29949000I0J-150000D01*
G01*
X121690000Y-30249000D01*
G75*
G02*
X121540000Y-30399000I-150000J0D01*
G01*
X119890000Y-30399000D01*
G75*
G02*
X119740000Y-30249000I0J150000D01*
G01*
G37*
G36*
G01*
X119740000Y-28979000D02*
X119740000Y-28679000D01*
G75*
G02*
X119890000Y-28529000I150000J0D01*
G01*
X121540000Y-28529000D01*
G75*
G02*
X121690000Y-28679000I0J-150000D01*
G01*
X121690000Y-28979000D01*
G75*
G02*
X121540000Y-29129000I-150000J0D01*
G01*
X119890000Y-29129000D01*
G75*
G02*
X119740000Y-28979000I0J150000D01*
G01*
G37*
%TD*%
D15*
%TO.C,U1*%
X130703500Y-48834000D03*
X130703500Y-50734000D03*
X128503500Y-50734000D03*
X128503500Y-49784000D03*
X128503500Y-48834000D03*
%TD*%
D16*
%TO.C,U2*%
X153543000Y-56506000D03*
X152273000Y-56506000D03*
X151003000Y-56506000D03*
X149733000Y-56506000D03*
X148463000Y-56506000D03*
X147193000Y-56506000D03*
X145923000Y-56506000D03*
X144653000Y-56506000D03*
X143383000Y-56506000D03*
X142113000Y-56506000D03*
X140843000Y-56506000D03*
X139573000Y-56506000D03*
X138303000Y-56506000D03*
X137033000Y-56506000D03*
D17*
X136033000Y-53721000D03*
X136033000Y-52451000D03*
X136033000Y-51181000D03*
X136033000Y-49911000D03*
X136033000Y-48641000D03*
X136033000Y-47371000D03*
X136033000Y-46101000D03*
X136033000Y-44831000D03*
X136033000Y-43561000D03*
X136033000Y-42291000D03*
D16*
X137033000Y-39506000D03*
X138303000Y-39506000D03*
X139573000Y-39506000D03*
X140843000Y-39506000D03*
X142113000Y-39506000D03*
X143383000Y-39506000D03*
X144653000Y-39506000D03*
X145923000Y-39506000D03*
X147193000Y-39506000D03*
X148463000Y-39506000D03*
X149733000Y-39506000D03*
X151003000Y-39506000D03*
X152273000Y-39506000D03*
X153543000Y-39506000D03*
D18*
X146043000Y-47006000D03*
%TD*%
D19*
%TO.C,TP7*%
X141351000Y-61341000D03*
%TD*%
%TO.C,TP6*%
X128143000Y-61341000D03*
%TD*%
%TO.C,TP5*%
X130810000Y-39624000D03*
%TD*%
%TO.C,TP4*%
X112395000Y-27940000D03*
%TD*%
%TO.C,TP3*%
X123444000Y-45720000D03*
%TD*%
%TO.C,TP2*%
X118618000Y-39878000D03*
%TD*%
%TO.C,TP1*%
X117602000Y-27813000D03*
%TD*%
D20*
%TO.C,SW1*%
X146374000Y-31841000D03*
X146374000Y-27341000D03*
X155124000Y-27341000D03*
X155124000Y-31841000D03*
%TD*%
D21*
%TO.C,Q4*%
X141240000Y-35814000D03*
X143240000Y-34864000D03*
X143240000Y-36764000D03*
%TD*%
%TO.C,Q3*%
X141240000Y-30226000D03*
X143240000Y-29276000D03*
X143240000Y-31176000D03*
%TD*%
%TO.C,Q1*%
X131810000Y-58674000D03*
X129810000Y-59624000D03*
X129810000Y-57724000D03*
%TD*%
D22*
%TO.C,J2*%
X115805000Y-37794000D03*
X115805000Y-36994000D03*
X115805000Y-32094000D03*
X115805000Y-31294000D03*
X115805000Y-31294000D03*
X115805000Y-32094000D03*
X115805000Y-36994000D03*
X115805000Y-37794000D03*
D23*
X115805000Y-32794000D03*
X115805000Y-33294000D03*
X115805000Y-33794000D03*
X115805000Y-34794000D03*
X115805000Y-35294000D03*
X115805000Y-35794000D03*
X115805000Y-36294000D03*
X115805000Y-34294000D03*
D24*
X114890000Y-38864000D03*
X114890000Y-30224000D03*
D25*
X114360000Y-31654000D03*
D26*
X110710000Y-30224000D03*
D25*
X114360000Y-37434000D03*
D26*
X110710000Y-38864000D03*
%TD*%
D27*
%TO.C,J1*%
X124968000Y-50800000D03*
D28*
X116078000Y-48890000D03*
D29*
X122428000Y-52070000D03*
X124968000Y-53340000D03*
X122428000Y-54610000D03*
X124968000Y-55880000D03*
X122428000Y-57150000D03*
D28*
X116078000Y-59050000D03*
%TD*%
D30*
%TO.C,D2*%
X109284000Y-43434000D03*
X113284000Y-43434000D03*
%TD*%
%TO.C,D1*%
X116872000Y-43434000D03*
X120872000Y-43434000D03*
%TD*%
%TO.C,C7*%
G36*
G01*
X149027000Y-36846500D02*
X149027000Y-37321500D01*
G75*
G02*
X148789500Y-37559000I-237500J0D01*
G01*
X148189500Y-37559000D01*
G75*
G02*
X147952000Y-37321500I0J237500D01*
G01*
X147952000Y-36846500D01*
G75*
G02*
X148189500Y-36609000I237500J0D01*
G01*
X148789500Y-36609000D01*
G75*
G02*
X149027000Y-36846500I0J-237500D01*
G01*
G37*
G36*
G01*
X150752000Y-36846500D02*
X150752000Y-37321500D01*
G75*
G02*
X150514500Y-37559000I-237500J0D01*
G01*
X149914500Y-37559000D01*
G75*
G02*
X149677000Y-37321500I0J237500D01*
G01*
X149677000Y-36846500D01*
G75*
G02*
X149914500Y-36609000I237500J0D01*
G01*
X150514500Y-36609000D01*
G75*
G02*
X150752000Y-36846500I0J-237500D01*
G01*
G37*
%TD*%
%TO.C,C6*%
G36*
G01*
X128453000Y-28464500D02*
X128453000Y-28939500D01*
G75*
G02*
X128215500Y-29177000I-237500J0D01*
G01*
X127615500Y-29177000D01*
G75*
G02*
X127378000Y-28939500I0J237500D01*
G01*
X127378000Y-28464500D01*
G75*
G02*
X127615500Y-28227000I237500J0D01*
G01*
X128215500Y-28227000D01*
G75*
G02*
X128453000Y-28464500I0J-237500D01*
G01*
G37*
G36*
G01*
X130178000Y-28464500D02*
X130178000Y-28939500D01*
G75*
G02*
X129940500Y-29177000I-237500J0D01*
G01*
X129340500Y-29177000D01*
G75*
G02*
X129103000Y-28939500I0J237500D01*
G01*
X129103000Y-28464500D01*
G75*
G02*
X129340500Y-28227000I237500J0D01*
G01*
X129940500Y-28227000D01*
G75*
G02*
X130178000Y-28464500I0J-237500D01*
G01*
G37*
%TD*%
%TO.C,C5*%
G36*
G01*
X153386500Y-35543500D02*
X153386500Y-35068500D01*
G75*
G02*
X153624000Y-34831000I237500J0D01*
G01*
X154224000Y-34831000D01*
G75*
G02*
X154461500Y-35068500I0J-237500D01*
G01*
X154461500Y-35543500D01*
G75*
G02*
X154224000Y-35781000I-237500J0D01*
G01*
X153624000Y-35781000D01*
G75*
G02*
X153386500Y-35543500I0J237500D01*
G01*
G37*
G36*
G01*
X151661500Y-35543500D02*
X151661500Y-35068500D01*
G75*
G02*
X151899000Y-34831000I237500J0D01*
G01*
X152499000Y-34831000D01*
G75*
G02*
X152736500Y-35068500I0J-237500D01*
G01*
X152736500Y-35543500D01*
G75*
G02*
X152499000Y-35781000I-237500J0D01*
G01*
X151899000Y-35781000D01*
G75*
G02*
X151661500Y-35543500I0J237500D01*
G01*
G37*
%TD*%
%TO.C,C4*%
G36*
G01*
X153333500Y-37321500D02*
X153333500Y-36846500D01*
G75*
G02*
X153571000Y-36609000I237500J0D01*
G01*
X154171000Y-36609000D01*
G75*
G02*
X154408500Y-36846500I0J-237500D01*
G01*
X154408500Y-37321500D01*
G75*
G02*
X154171000Y-37559000I-237500J0D01*
G01*
X153571000Y-37559000D01*
G75*
G02*
X153333500Y-37321500I0J237500D01*
G01*
G37*
G36*
G01*
X151608500Y-37321500D02*
X151608500Y-36846500D01*
G75*
G02*
X151846000Y-36609000I237500J0D01*
G01*
X152446000Y-36609000D01*
G75*
G02*
X152683500Y-36846500I0J-237500D01*
G01*
X152683500Y-37321500D01*
G75*
G02*
X152446000Y-37559000I-237500J0D01*
G01*
X151846000Y-37559000D01*
G75*
G02*
X151608500Y-37321500I0J237500D01*
G01*
G37*
%TD*%
%TO.C,C3*%
G36*
G01*
X130984000Y-45622500D02*
X130509000Y-45622500D01*
G75*
G02*
X130271500Y-45385000I0J237500D01*
G01*
X130271500Y-44785000D01*
G75*
G02*
X130509000Y-44547500I237500J0D01*
G01*
X130984000Y-44547500D01*
G75*
G02*
X131221500Y-44785000I0J-237500D01*
G01*
X131221500Y-45385000D01*
G75*
G02*
X130984000Y-45622500I-237500J0D01*
G01*
G37*
G36*
G01*
X130984000Y-47347500D02*
X130509000Y-47347500D01*
G75*
G02*
X130271500Y-47110000I0J237500D01*
G01*
X130271500Y-46510000D01*
G75*
G02*
X130509000Y-46272500I237500J0D01*
G01*
X130984000Y-46272500D01*
G75*
G02*
X131221500Y-46510000I0J-237500D01*
G01*
X131221500Y-47110000D01*
G75*
G02*
X130984000Y-47347500I-237500J0D01*
G01*
G37*
%TD*%
%TO.C,C2*%
G36*
G01*
X129215000Y-52277000D02*
X129215000Y-52752000D01*
G75*
G02*
X128977500Y-52989500I-237500J0D01*
G01*
X128377500Y-52989500D01*
G75*
G02*
X128140000Y-52752000I0J237500D01*
G01*
X128140000Y-52277000D01*
G75*
G02*
X128377500Y-52039500I237500J0D01*
G01*
X128977500Y-52039500D01*
G75*
G02*
X129215000Y-52277000I0J-237500D01*
G01*
G37*
G36*
G01*
X130940000Y-52277000D02*
X130940000Y-52752000D01*
G75*
G02*
X130702500Y-52989500I-237500J0D01*
G01*
X130102500Y-52989500D01*
G75*
G02*
X129865000Y-52752000I0J237500D01*
G01*
X129865000Y-52277000D01*
G75*
G02*
X130102500Y-52039500I237500J0D01*
G01*
X130702500Y-52039500D01*
G75*
G02*
X130940000Y-52277000I0J-237500D01*
G01*
G37*
%TD*%
%TO.C,C1*%
G36*
G01*
X128761500Y-45649000D02*
X128286500Y-45649000D01*
G75*
G02*
X128049000Y-45411500I0J237500D01*
G01*
X128049000Y-44811500D01*
G75*
G02*
X128286500Y-44574000I237500J0D01*
G01*
X128761500Y-44574000D01*
G75*
G02*
X128999000Y-44811500I0J-237500D01*
G01*
X128999000Y-45411500D01*
G75*
G02*
X128761500Y-45649000I-237500J0D01*
G01*
G37*
G36*
G01*
X128761500Y-47374000D02*
X128286500Y-47374000D01*
G75*
G02*
X128049000Y-47136500I0J237500D01*
G01*
X128049000Y-46536500D01*
G75*
G02*
X128286500Y-46299000I237500J0D01*
G01*
X128761500Y-46299000D01*
G75*
G02*
X128999000Y-46536500I0J-237500D01*
G01*
X128999000Y-47136500D01*
G75*
G02*
X128761500Y-47374000I-237500J0D01*
G01*
G37*
%TD*%
M02*
