M48
; DRILL file {KiCad 5.1.10-88a1d61d58~90~ubuntu20.04.1} date Sat Nov  6 19:30:07 2021
; FORMAT={-:-/ absolute / metric / decimal}
; #@! TF.CreationDate,2021-11-06T19:30:07+01:00
; #@! TF.GenerationSoftware,Kicad,Pcbnew,5.1.10-88a1d61d58~90~ubuntu20.04.1
; #@! TF.FileFunction,Plated,1,2,PTH
FMAT,2
METRIC
T1C0.400
T2C0.600
T3C0.760
%
G90
G05
T1
X117.221Y-39.116
X117.602Y-29.083
X120.65Y-27.686
X127.381Y-49.784
X127.572Y-52.514
X128.524Y-43.942
X129.794Y-27.432
X129.921Y-56.769
X130.746Y-43.942
X132.08Y-44.45
X132.715Y-41.275
X134.493Y-41.148
X134.493Y-42.291
X134.874Y-28.702
X134.874Y-33.274
X134.874Y-36.703
X139.446Y-57.949
X139.446Y-60.96
X139.7Y-28.702
X139.7Y-30.353
X139.7Y-37.592
X139.7Y-42.164
X143.002Y-46.99
X146.304Y-33.147
X147.32Y-37.084
X149.098Y-46.99
X153.543Y-58.293
X153.924Y-34.036
T3
X122.428Y-52.07
X122.428Y-54.61
X122.428Y-57.15
X124.968Y-50.8
X124.968Y-53.34
X124.968Y-55.88
T2
X111.01Y-30.224G85X110.41Y-30.224
G05
X111.01Y-38.864G85X110.41Y-38.864
G05
X115.44Y-30.224G85X114.34Y-30.224
G05
X115.44Y-38.864G85X114.34Y-38.864
G05
T0
M30
