%FSLAX45Y45*%
G04 Gerber Fmt 4.5, Leading zero omitted, Abs format (unit mm)*
G04 Created by KiCad (PCBNEW 5.1.10-88a1d61d58~90~ubuntu20.04.1) date 2021-11-06 19:30:08*
%MOMM*%
%LPD*%
G01*
G04 APERTURE LIST*
%TA.AperFunction,Profile*%
%ADD10C,0.100000*%
%TD*%
%ADD11C,0.200000*%
%ADD12C,0.300000*%
G04 APERTURE END LIST*
D10*
X10769600Y-6248400D02*
X10769600Y-6299200D01*
X16154400Y-6299200D02*
X16154400Y-6248400D01*
X16103600Y-6299200D02*
X16154400Y-6299200D01*
X16154400Y-2540000D02*
X16103600Y-2540000D01*
X10769600Y-2540000D02*
X10769600Y-6248400D01*
X16103600Y-2540000D02*
X10769600Y-2540000D01*
X16154400Y-6248400D02*
X16154400Y-2540000D01*
X10769600Y-6299200D02*
X16103600Y-6299200D01*
D11*
X11702100Y-3891600D02*
X11742100Y-3931600D01*
X11742100Y-3891600D02*
X11702100Y-3931600D01*
X11740200Y-2888300D02*
X11780200Y-2928300D01*
X11780200Y-2888300D02*
X11740200Y-2928300D01*
X12045000Y-2748600D02*
X12085000Y-2788600D01*
X12085000Y-2748600D02*
X12045000Y-2788600D01*
X12718100Y-4958400D02*
X12758100Y-4998400D01*
X12758100Y-4958400D02*
X12718100Y-4998400D01*
X12737150Y-5231450D02*
X12777150Y-5271450D01*
X12777150Y-5231450D02*
X12737150Y-5271450D01*
X12832400Y-4374200D02*
X12872400Y-4414200D01*
X12872400Y-4374200D02*
X12832400Y-4414200D01*
X12959400Y-2723200D02*
X12999400Y-2763200D01*
X12999400Y-2723200D02*
X12959400Y-2763200D01*
X12972100Y-5656900D02*
X13012100Y-5696900D01*
X13012100Y-5656900D02*
X12972100Y-5696900D01*
X13054650Y-4374200D02*
X13094650Y-4414200D01*
X13094650Y-4374200D02*
X13054650Y-4414200D01*
X13188000Y-4425000D02*
X13228000Y-4465000D01*
X13228000Y-4425000D02*
X13188000Y-4465000D01*
X13251500Y-4107500D02*
X13291500Y-4147500D01*
X13291500Y-4107500D02*
X13251500Y-4147500D01*
X13429300Y-4094800D02*
X13469300Y-4134800D01*
X13469300Y-4094800D02*
X13429300Y-4134800D01*
X13429300Y-4209100D02*
X13469300Y-4249100D01*
X13469300Y-4209100D02*
X13429300Y-4249100D01*
X13467400Y-2850200D02*
X13507400Y-2890200D01*
X13507400Y-2850200D02*
X13467400Y-2890200D01*
X13467400Y-3307400D02*
X13507400Y-3347400D01*
X13507400Y-3307400D02*
X13467400Y-3347400D01*
X13467400Y-3650300D02*
X13507400Y-3690300D01*
X13507400Y-3650300D02*
X13467400Y-3690300D01*
X13924600Y-5774900D02*
X13964600Y-5814900D01*
X13964600Y-5774900D02*
X13924600Y-5814900D01*
X13924600Y-6076000D02*
X13964600Y-6116000D01*
X13964600Y-6076000D02*
X13924600Y-6116000D01*
X13950000Y-2850200D02*
X13990000Y-2890200D01*
X13990000Y-2850200D02*
X13950000Y-2890200D01*
X13950000Y-3015300D02*
X13990000Y-3055300D01*
X13990000Y-3015300D02*
X13950000Y-3055300D01*
X13950000Y-3739200D02*
X13990000Y-3779200D01*
X13990000Y-3739200D02*
X13950000Y-3779200D01*
X13950000Y-4196400D02*
X13990000Y-4236400D01*
X13990000Y-4196400D02*
X13950000Y-4236400D01*
X14280200Y-4679000D02*
X14320200Y-4719000D01*
X14320200Y-4679000D02*
X14280200Y-4719000D01*
X14610400Y-3294700D02*
X14650400Y-3334700D01*
X14650400Y-3294700D02*
X14610400Y-3334700D01*
X14712000Y-3688400D02*
X14752000Y-3728400D01*
X14752000Y-3688400D02*
X14712000Y-3728400D01*
X14889800Y-4679000D02*
X14929800Y-4719000D01*
X14929800Y-4679000D02*
X14889800Y-4719000D01*
X15334300Y-5809300D02*
X15374300Y-5849300D01*
X15374300Y-5809300D02*
X15334300Y-5849300D01*
X15372400Y-3383600D02*
X15412400Y-3423600D01*
X15412400Y-3383600D02*
X15372400Y-3423600D01*
X11101000Y-3022400D02*
G75*
G03*
X11101000Y-3022400I-30000J0D01*
G01*
X11101000Y-3002400D02*
X11041000Y-3002400D01*
X11101000Y-3042400D02*
X11041000Y-3042400D01*
X11041000Y-3002400D02*
G75*
G03*
X11041000Y-3042400I0J-20000D01*
G01*
X11101000Y-3042400D02*
G75*
G03*
X11101000Y-3002400I0J20000D01*
G01*
X11101000Y-3886400D02*
G75*
G03*
X11101000Y-3886400I-30000J0D01*
G01*
X11101000Y-3866400D02*
X11041000Y-3866400D01*
X11101000Y-3906400D02*
X11041000Y-3906400D01*
X11041000Y-3866400D02*
G75*
G03*
X11041000Y-3906400I0J-20000D01*
G01*
X11101000Y-3906400D02*
G75*
G03*
X11101000Y-3866400I0J20000D01*
G01*
X11519000Y-3022400D02*
G75*
G03*
X11519000Y-3022400I-30000J0D01*
G01*
X11544000Y-3002400D02*
X11434000Y-3002400D01*
X11544000Y-3042400D02*
X11434000Y-3042400D01*
X11434000Y-3002400D02*
G75*
G03*
X11434000Y-3042400I0J-20000D01*
G01*
X11544000Y-3042400D02*
G75*
G03*
X11544000Y-3002400I0J20000D01*
G01*
X11519000Y-3886400D02*
G75*
G03*
X11519000Y-3886400I-30000J0D01*
G01*
X11544000Y-3866400D02*
X11434000Y-3866400D01*
X11544000Y-3906400D02*
X11434000Y-3906400D01*
X11434000Y-3866400D02*
G75*
G03*
X11434000Y-3906400I0J-20000D01*
G01*
X11544000Y-3906400D02*
G75*
G03*
X11544000Y-3866400I0J20000D01*
G01*
X12242800Y-5169000D02*
X12242800Y-5245000D01*
X12204800Y-5207000D02*
X12280800Y-5207000D01*
X12242800Y-5423000D02*
X12242800Y-5499000D01*
X12204800Y-5461000D02*
X12280800Y-5461000D01*
X12242800Y-5677000D02*
X12242800Y-5753000D01*
X12204800Y-5715000D02*
X12280800Y-5715000D01*
X12496800Y-5042000D02*
X12496800Y-5118000D01*
X12458800Y-5080000D02*
X12534800Y-5080000D01*
X12496800Y-5296000D02*
X12496800Y-5372000D01*
X12458800Y-5334000D02*
X12534800Y-5334000D01*
X12496800Y-5550000D02*
X12496800Y-5626000D01*
X12458800Y-5588000D02*
X12534800Y-5588000D01*
D12*
X11051028Y-6769914D02*
X11051028Y-6469914D01*
X11122457Y-6469914D01*
X11165314Y-6484200D01*
X11193886Y-6512771D01*
X11208171Y-6541343D01*
X11222457Y-6598486D01*
X11222457Y-6641343D01*
X11208171Y-6698486D01*
X11193886Y-6727057D01*
X11165314Y-6755629D01*
X11122457Y-6769914D01*
X11051028Y-6769914D01*
X11351028Y-6769914D02*
X11351028Y-6569914D01*
X11351028Y-6627057D02*
X11365314Y-6598486D01*
X11379600Y-6584200D01*
X11408171Y-6569914D01*
X11436743Y-6569914D01*
X11536743Y-6769914D02*
X11536743Y-6569914D01*
X11536743Y-6469914D02*
X11522457Y-6484200D01*
X11536743Y-6498486D01*
X11551028Y-6484200D01*
X11536743Y-6469914D01*
X11536743Y-6498486D01*
X11722457Y-6769914D02*
X11693886Y-6755629D01*
X11679600Y-6727057D01*
X11679600Y-6469914D01*
X11879600Y-6769914D02*
X11851028Y-6755629D01*
X11836743Y-6727057D01*
X11836743Y-6469914D01*
X12222457Y-6769914D02*
X12222457Y-6469914D01*
X12322457Y-6684200D01*
X12422457Y-6469914D01*
X12422457Y-6769914D01*
X12693886Y-6769914D02*
X12693886Y-6612771D01*
X12679600Y-6584200D01*
X12651028Y-6569914D01*
X12593886Y-6569914D01*
X12565314Y-6584200D01*
X12693886Y-6755629D02*
X12665314Y-6769914D01*
X12593886Y-6769914D01*
X12565314Y-6755629D01*
X12551028Y-6727057D01*
X12551028Y-6698486D01*
X12565314Y-6669914D01*
X12593886Y-6655629D01*
X12665314Y-6655629D01*
X12693886Y-6641343D01*
X12836743Y-6569914D02*
X12836743Y-6869914D01*
X12836743Y-6584200D02*
X12865314Y-6569914D01*
X12922457Y-6569914D01*
X12951028Y-6584200D01*
X12965314Y-6598486D01*
X12979600Y-6627057D01*
X12979600Y-6712771D01*
X12965314Y-6741343D01*
X12951028Y-6755629D01*
X12922457Y-6769914D01*
X12865314Y-6769914D01*
X12836743Y-6755629D01*
X13108171Y-6741343D02*
X13122457Y-6755629D01*
X13108171Y-6769914D01*
X13093886Y-6755629D01*
X13108171Y-6741343D01*
X13108171Y-6769914D01*
X13108171Y-6584200D02*
X13122457Y-6598486D01*
X13108171Y-6612771D01*
X13093886Y-6598486D01*
X13108171Y-6584200D01*
X13108171Y-6612771D01*
X10724600Y-7244200D02*
X10764600Y-7284200D01*
X10764600Y-7244200D02*
X10724600Y-7284200D01*
X11108171Y-7099914D02*
X11136743Y-7099914D01*
X11165314Y-7114200D01*
X11179600Y-7128486D01*
X11193886Y-7157057D01*
X11208171Y-7214200D01*
X11208171Y-7285629D01*
X11193886Y-7342771D01*
X11179600Y-7371343D01*
X11165314Y-7385629D01*
X11136743Y-7399914D01*
X11108171Y-7399914D01*
X11079600Y-7385629D01*
X11065314Y-7371343D01*
X11051028Y-7342771D01*
X11036743Y-7285629D01*
X11036743Y-7214200D01*
X11051028Y-7157057D01*
X11065314Y-7128486D01*
X11079600Y-7114200D01*
X11108171Y-7099914D01*
X11336743Y-7371343D02*
X11351028Y-7385629D01*
X11336743Y-7399914D01*
X11322457Y-7385629D01*
X11336743Y-7371343D01*
X11336743Y-7399914D01*
X11608171Y-7199914D02*
X11608171Y-7399914D01*
X11536743Y-7085629D02*
X11465314Y-7299914D01*
X11651028Y-7299914D01*
X11822457Y-7099914D02*
X11851028Y-7099914D01*
X11879600Y-7114200D01*
X11893886Y-7128486D01*
X11908171Y-7157057D01*
X11922457Y-7214200D01*
X11922457Y-7285629D01*
X11908171Y-7342771D01*
X11893886Y-7371343D01*
X11879600Y-7385629D01*
X11851028Y-7399914D01*
X11822457Y-7399914D01*
X11793886Y-7385629D01*
X11779600Y-7371343D01*
X11765314Y-7342771D01*
X11751028Y-7285629D01*
X11751028Y-7214200D01*
X11765314Y-7157057D01*
X11779600Y-7128486D01*
X11793886Y-7114200D01*
X11822457Y-7099914D01*
X12108171Y-7099914D02*
X12136743Y-7099914D01*
X12165314Y-7114200D01*
X12179600Y-7128486D01*
X12193886Y-7157057D01*
X12208171Y-7214200D01*
X12208171Y-7285629D01*
X12193886Y-7342771D01*
X12179600Y-7371343D01*
X12165314Y-7385629D01*
X12136743Y-7399914D01*
X12108171Y-7399914D01*
X12079600Y-7385629D01*
X12065314Y-7371343D01*
X12051028Y-7342771D01*
X12036743Y-7285629D01*
X12036743Y-7214200D01*
X12051028Y-7157057D01*
X12065314Y-7128486D01*
X12079600Y-7114200D01*
X12108171Y-7099914D01*
X12336743Y-7399914D02*
X12336743Y-7199914D01*
X12336743Y-7228486D02*
X12351028Y-7214200D01*
X12379600Y-7199914D01*
X12422457Y-7199914D01*
X12451028Y-7214200D01*
X12465314Y-7242771D01*
X12465314Y-7399914D01*
X12465314Y-7242771D02*
X12479600Y-7214200D01*
X12508171Y-7199914D01*
X12551028Y-7199914D01*
X12579600Y-7214200D01*
X12593886Y-7242771D01*
X12593886Y-7399914D01*
X12736743Y-7399914D02*
X12736743Y-7199914D01*
X12736743Y-7228486D02*
X12751028Y-7214200D01*
X12779600Y-7199914D01*
X12822457Y-7199914D01*
X12851028Y-7214200D01*
X12865314Y-7242771D01*
X12865314Y-7399914D01*
X12865314Y-7242771D02*
X12879600Y-7214200D01*
X12908171Y-7199914D01*
X12951028Y-7199914D01*
X12979600Y-7214200D01*
X12993886Y-7242771D01*
X12993886Y-7399914D01*
X13579600Y-7085629D02*
X13322457Y-7471343D01*
X13965314Y-7099914D02*
X13993886Y-7099914D01*
X14022457Y-7114200D01*
X14036743Y-7128486D01*
X14051028Y-7157057D01*
X14065314Y-7214200D01*
X14065314Y-7285629D01*
X14051028Y-7342771D01*
X14036743Y-7371343D01*
X14022457Y-7385629D01*
X13993886Y-7399914D01*
X13965314Y-7399914D01*
X13936743Y-7385629D01*
X13922457Y-7371343D01*
X13908171Y-7342771D01*
X13893886Y-7285629D01*
X13893886Y-7214200D01*
X13908171Y-7157057D01*
X13922457Y-7128486D01*
X13936743Y-7114200D01*
X13965314Y-7099914D01*
X14193886Y-7371343D02*
X14208171Y-7385629D01*
X14193886Y-7399914D01*
X14179600Y-7385629D01*
X14193886Y-7371343D01*
X14193886Y-7399914D01*
X14393886Y-7099914D02*
X14422457Y-7099914D01*
X14451028Y-7114200D01*
X14465314Y-7128486D01*
X14479600Y-7157057D01*
X14493886Y-7214200D01*
X14493886Y-7285629D01*
X14479600Y-7342771D01*
X14465314Y-7371343D01*
X14451028Y-7385629D01*
X14422457Y-7399914D01*
X14393886Y-7399914D01*
X14365314Y-7385629D01*
X14351028Y-7371343D01*
X14336743Y-7342771D01*
X14322457Y-7285629D01*
X14322457Y-7214200D01*
X14336743Y-7157057D01*
X14351028Y-7128486D01*
X14365314Y-7114200D01*
X14393886Y-7099914D01*
X14779600Y-7399914D02*
X14608171Y-7399914D01*
X14693886Y-7399914D02*
X14693886Y-7099914D01*
X14665314Y-7142771D01*
X14636743Y-7171343D01*
X14608171Y-7185629D01*
X15051028Y-7099914D02*
X14908171Y-7099914D01*
X14893886Y-7242771D01*
X14908171Y-7228486D01*
X14936743Y-7214200D01*
X15008171Y-7214200D01*
X15036743Y-7228486D01*
X15051028Y-7242771D01*
X15065314Y-7271343D01*
X15065314Y-7342771D01*
X15051028Y-7371343D01*
X15036743Y-7385629D01*
X15008171Y-7399914D01*
X14936743Y-7399914D01*
X14908171Y-7385629D01*
X14893886Y-7371343D01*
X15165314Y-7099914D02*
X15365314Y-7099914D01*
X15236743Y-7399914D01*
X15465314Y-7099914D02*
X15465314Y-7157057D01*
X15579600Y-7099914D02*
X15579600Y-7157057D01*
X16022457Y-7514200D02*
X16008171Y-7499914D01*
X15979600Y-7457057D01*
X15965314Y-7428486D01*
X15951028Y-7385629D01*
X15936743Y-7314200D01*
X15936743Y-7257057D01*
X15951028Y-7185629D01*
X15965314Y-7142771D01*
X15979600Y-7114200D01*
X16008171Y-7071343D01*
X16022457Y-7057057D01*
X16122457Y-7128486D02*
X16136743Y-7114200D01*
X16165314Y-7099914D01*
X16236743Y-7099914D01*
X16265314Y-7114200D01*
X16279600Y-7128486D01*
X16293886Y-7157057D01*
X16293886Y-7185629D01*
X16279600Y-7228486D01*
X16108171Y-7399914D01*
X16293886Y-7399914D01*
X16465314Y-7228486D02*
X16436743Y-7214200D01*
X16422457Y-7199914D01*
X16408171Y-7171343D01*
X16408171Y-7157057D01*
X16422457Y-7128486D01*
X16436743Y-7114200D01*
X16465314Y-7099914D01*
X16522457Y-7099914D01*
X16551028Y-7114200D01*
X16565314Y-7128486D01*
X16579600Y-7157057D01*
X16579600Y-7171343D01*
X16565314Y-7199914D01*
X16551028Y-7214200D01*
X16522457Y-7228486D01*
X16465314Y-7228486D01*
X16436743Y-7242771D01*
X16422457Y-7257057D01*
X16408171Y-7285629D01*
X16408171Y-7342771D01*
X16422457Y-7371343D01*
X16436743Y-7385629D01*
X16465314Y-7399914D01*
X16522457Y-7399914D01*
X16551028Y-7385629D01*
X16565314Y-7371343D01*
X16579600Y-7342771D01*
X16579600Y-7285629D01*
X16565314Y-7257057D01*
X16551028Y-7242771D01*
X16522457Y-7228486D01*
X16936743Y-7399914D02*
X16936743Y-7099914D01*
X17065314Y-7399914D02*
X17065314Y-7242771D01*
X17051028Y-7214200D01*
X17022457Y-7199914D01*
X16979600Y-7199914D01*
X16951028Y-7214200D01*
X16936743Y-7228486D01*
X17251028Y-7399914D02*
X17222457Y-7385629D01*
X17208171Y-7371343D01*
X17193886Y-7342771D01*
X17193886Y-7257057D01*
X17208171Y-7228486D01*
X17222457Y-7214200D01*
X17251028Y-7199914D01*
X17293886Y-7199914D01*
X17322457Y-7214200D01*
X17336743Y-7228486D01*
X17351028Y-7257057D01*
X17351028Y-7342771D01*
X17336743Y-7371343D01*
X17322457Y-7385629D01*
X17293886Y-7399914D01*
X17251028Y-7399914D01*
X17522457Y-7399914D02*
X17493886Y-7385629D01*
X17479600Y-7357057D01*
X17479600Y-7099914D01*
X17751028Y-7385629D02*
X17722457Y-7399914D01*
X17665314Y-7399914D01*
X17636743Y-7385629D01*
X17622457Y-7357057D01*
X17622457Y-7242771D01*
X17636743Y-7214200D01*
X17665314Y-7199914D01*
X17722457Y-7199914D01*
X17751028Y-7214200D01*
X17765314Y-7242771D01*
X17765314Y-7271343D01*
X17622457Y-7299914D01*
X17879600Y-7385629D02*
X17908171Y-7399914D01*
X17965314Y-7399914D01*
X17993886Y-7385629D01*
X18008171Y-7357057D01*
X18008171Y-7342771D01*
X17993886Y-7314200D01*
X17965314Y-7299914D01*
X17922457Y-7299914D01*
X17893886Y-7285629D01*
X17879600Y-7257057D01*
X17879600Y-7242771D01*
X17893886Y-7214200D01*
X17922457Y-7199914D01*
X17965314Y-7199914D01*
X17993886Y-7214200D01*
X18108171Y-7514200D02*
X18122457Y-7499914D01*
X18151028Y-7457057D01*
X18165314Y-7428486D01*
X18179600Y-7385629D01*
X18193886Y-7314200D01*
X18193886Y-7257057D01*
X18179600Y-7185629D01*
X18165314Y-7142771D01*
X18151028Y-7114200D01*
X18122457Y-7071343D01*
X18108171Y-7057057D01*
X10764600Y-7660200D02*
G75*
G03*
X10764600Y-7660200I-30000J0D01*
G01*
X11108171Y-7495914D02*
X11136743Y-7495914D01*
X11165314Y-7510200D01*
X11179600Y-7524486D01*
X11193886Y-7553057D01*
X11208171Y-7610200D01*
X11208171Y-7681629D01*
X11193886Y-7738771D01*
X11179600Y-7767343D01*
X11165314Y-7781629D01*
X11136743Y-7795914D01*
X11108171Y-7795914D01*
X11079600Y-7781629D01*
X11065314Y-7767343D01*
X11051028Y-7738771D01*
X11036743Y-7681629D01*
X11036743Y-7610200D01*
X11051028Y-7553057D01*
X11065314Y-7524486D01*
X11079600Y-7510200D01*
X11108171Y-7495914D01*
X11336743Y-7767343D02*
X11351028Y-7781629D01*
X11336743Y-7795914D01*
X11322457Y-7781629D01*
X11336743Y-7767343D01*
X11336743Y-7795914D01*
X11608171Y-7495914D02*
X11551028Y-7495914D01*
X11522457Y-7510200D01*
X11508171Y-7524486D01*
X11479600Y-7567343D01*
X11465314Y-7624486D01*
X11465314Y-7738771D01*
X11479600Y-7767343D01*
X11493886Y-7781629D01*
X11522457Y-7795914D01*
X11579600Y-7795914D01*
X11608171Y-7781629D01*
X11622457Y-7767343D01*
X11636743Y-7738771D01*
X11636743Y-7667343D01*
X11622457Y-7638771D01*
X11608171Y-7624486D01*
X11579600Y-7610200D01*
X11522457Y-7610200D01*
X11493886Y-7624486D01*
X11479600Y-7638771D01*
X11465314Y-7667343D01*
X11822457Y-7495914D02*
X11851028Y-7495914D01*
X11879600Y-7510200D01*
X11893886Y-7524486D01*
X11908171Y-7553057D01*
X11922457Y-7610200D01*
X11922457Y-7681629D01*
X11908171Y-7738771D01*
X11893886Y-7767343D01*
X11879600Y-7781629D01*
X11851028Y-7795914D01*
X11822457Y-7795914D01*
X11793886Y-7781629D01*
X11779600Y-7767343D01*
X11765314Y-7738771D01*
X11751028Y-7681629D01*
X11751028Y-7610200D01*
X11765314Y-7553057D01*
X11779600Y-7524486D01*
X11793886Y-7510200D01*
X11822457Y-7495914D01*
X12108171Y-7495914D02*
X12136743Y-7495914D01*
X12165314Y-7510200D01*
X12179600Y-7524486D01*
X12193886Y-7553057D01*
X12208171Y-7610200D01*
X12208171Y-7681629D01*
X12193886Y-7738771D01*
X12179600Y-7767343D01*
X12165314Y-7781629D01*
X12136743Y-7795914D01*
X12108171Y-7795914D01*
X12079600Y-7781629D01*
X12065314Y-7767343D01*
X12051028Y-7738771D01*
X12036743Y-7681629D01*
X12036743Y-7610200D01*
X12051028Y-7553057D01*
X12065314Y-7524486D01*
X12079600Y-7510200D01*
X12108171Y-7495914D01*
X12336743Y-7795914D02*
X12336743Y-7595914D01*
X12336743Y-7624486D02*
X12351028Y-7610200D01*
X12379600Y-7595914D01*
X12422457Y-7595914D01*
X12451028Y-7610200D01*
X12465314Y-7638771D01*
X12465314Y-7795914D01*
X12465314Y-7638771D02*
X12479600Y-7610200D01*
X12508171Y-7595914D01*
X12551028Y-7595914D01*
X12579600Y-7610200D01*
X12593886Y-7638771D01*
X12593886Y-7795914D01*
X12736743Y-7795914D02*
X12736743Y-7595914D01*
X12736743Y-7624486D02*
X12751028Y-7610200D01*
X12779600Y-7595914D01*
X12822457Y-7595914D01*
X12851028Y-7610200D01*
X12865314Y-7638771D01*
X12865314Y-7795914D01*
X12865314Y-7638771D02*
X12879600Y-7610200D01*
X12908171Y-7595914D01*
X12951028Y-7595914D01*
X12979600Y-7610200D01*
X12993886Y-7638771D01*
X12993886Y-7795914D01*
X13579600Y-7481629D02*
X13322457Y-7867343D01*
X13965314Y-7495914D02*
X13993886Y-7495914D01*
X14022457Y-7510200D01*
X14036743Y-7524486D01*
X14051028Y-7553057D01*
X14065314Y-7610200D01*
X14065314Y-7681629D01*
X14051028Y-7738771D01*
X14036743Y-7767343D01*
X14022457Y-7781629D01*
X13993886Y-7795914D01*
X13965314Y-7795914D01*
X13936743Y-7781629D01*
X13922457Y-7767343D01*
X13908171Y-7738771D01*
X13893886Y-7681629D01*
X13893886Y-7610200D01*
X13908171Y-7553057D01*
X13922457Y-7524486D01*
X13936743Y-7510200D01*
X13965314Y-7495914D01*
X14193886Y-7767343D02*
X14208171Y-7781629D01*
X14193886Y-7795914D01*
X14179600Y-7781629D01*
X14193886Y-7767343D01*
X14193886Y-7795914D01*
X14393886Y-7495914D02*
X14422457Y-7495914D01*
X14451028Y-7510200D01*
X14465314Y-7524486D01*
X14479600Y-7553057D01*
X14493886Y-7610200D01*
X14493886Y-7681629D01*
X14479600Y-7738771D01*
X14465314Y-7767343D01*
X14451028Y-7781629D01*
X14422457Y-7795914D01*
X14393886Y-7795914D01*
X14365314Y-7781629D01*
X14351028Y-7767343D01*
X14336743Y-7738771D01*
X14322457Y-7681629D01*
X14322457Y-7610200D01*
X14336743Y-7553057D01*
X14351028Y-7524486D01*
X14365314Y-7510200D01*
X14393886Y-7495914D01*
X14608171Y-7524486D02*
X14622457Y-7510200D01*
X14651028Y-7495914D01*
X14722457Y-7495914D01*
X14751028Y-7510200D01*
X14765314Y-7524486D01*
X14779600Y-7553057D01*
X14779600Y-7581629D01*
X14765314Y-7624486D01*
X14593886Y-7795914D01*
X14779600Y-7795914D01*
X14879600Y-7495914D02*
X15065314Y-7495914D01*
X14965314Y-7610200D01*
X15008171Y-7610200D01*
X15036743Y-7624486D01*
X15051028Y-7638771D01*
X15065314Y-7667343D01*
X15065314Y-7738771D01*
X15051028Y-7767343D01*
X15036743Y-7781629D01*
X15008171Y-7795914D01*
X14922457Y-7795914D01*
X14893886Y-7781629D01*
X14879600Y-7767343D01*
X15322457Y-7495914D02*
X15265314Y-7495914D01*
X15236743Y-7510200D01*
X15222457Y-7524486D01*
X15193886Y-7567343D01*
X15179600Y-7624486D01*
X15179600Y-7738771D01*
X15193886Y-7767343D01*
X15208171Y-7781629D01*
X15236743Y-7795914D01*
X15293886Y-7795914D01*
X15322457Y-7781629D01*
X15336743Y-7767343D01*
X15351028Y-7738771D01*
X15351028Y-7667343D01*
X15336743Y-7638771D01*
X15322457Y-7624486D01*
X15293886Y-7610200D01*
X15236743Y-7610200D01*
X15208171Y-7624486D01*
X15193886Y-7638771D01*
X15179600Y-7667343D01*
X15465314Y-7495914D02*
X15465314Y-7553057D01*
X15579600Y-7495914D02*
X15579600Y-7553057D01*
X16022457Y-7910200D02*
X16008171Y-7895914D01*
X15979600Y-7853057D01*
X15965314Y-7824486D01*
X15951028Y-7781629D01*
X15936743Y-7710200D01*
X15936743Y-7653057D01*
X15951028Y-7581629D01*
X15965314Y-7538771D01*
X15979600Y-7510200D01*
X16008171Y-7467343D01*
X16022457Y-7453057D01*
X16193886Y-7495914D02*
X16222457Y-7495914D01*
X16251028Y-7510200D01*
X16265314Y-7524486D01*
X16279600Y-7553057D01*
X16293886Y-7610200D01*
X16293886Y-7681629D01*
X16279600Y-7738771D01*
X16265314Y-7767343D01*
X16251028Y-7781629D01*
X16222457Y-7795914D01*
X16193886Y-7795914D01*
X16165314Y-7781629D01*
X16151028Y-7767343D01*
X16136743Y-7738771D01*
X16122457Y-7681629D01*
X16122457Y-7610200D01*
X16136743Y-7553057D01*
X16151028Y-7524486D01*
X16165314Y-7510200D01*
X16193886Y-7495914D01*
X16651028Y-7795914D02*
X16651028Y-7495914D01*
X16779600Y-7795914D02*
X16779600Y-7638771D01*
X16765314Y-7610200D01*
X16736743Y-7595914D01*
X16693886Y-7595914D01*
X16665314Y-7610200D01*
X16651028Y-7624486D01*
X16965314Y-7795914D02*
X16936743Y-7781629D01*
X16922457Y-7767343D01*
X16908171Y-7738771D01*
X16908171Y-7653057D01*
X16922457Y-7624486D01*
X16936743Y-7610200D01*
X16965314Y-7595914D01*
X17008171Y-7595914D01*
X17036743Y-7610200D01*
X17051028Y-7624486D01*
X17065314Y-7653057D01*
X17065314Y-7738771D01*
X17051028Y-7767343D01*
X17036743Y-7781629D01*
X17008171Y-7795914D01*
X16965314Y-7795914D01*
X17236743Y-7795914D02*
X17208171Y-7781629D01*
X17193886Y-7753057D01*
X17193886Y-7495914D01*
X17465314Y-7781629D02*
X17436743Y-7795914D01*
X17379600Y-7795914D01*
X17351028Y-7781629D01*
X17336743Y-7753057D01*
X17336743Y-7638771D01*
X17351028Y-7610200D01*
X17379600Y-7595914D01*
X17436743Y-7595914D01*
X17465314Y-7610200D01*
X17479600Y-7638771D01*
X17479600Y-7667343D01*
X17336743Y-7695914D01*
X17593886Y-7781629D02*
X17622457Y-7795914D01*
X17679600Y-7795914D01*
X17708171Y-7781629D01*
X17722457Y-7753057D01*
X17722457Y-7738771D01*
X17708171Y-7710200D01*
X17679600Y-7695914D01*
X17636743Y-7695914D01*
X17608171Y-7681629D01*
X17593886Y-7653057D01*
X17593886Y-7638771D01*
X17608171Y-7610200D01*
X17636743Y-7595914D01*
X17679600Y-7595914D01*
X17708171Y-7610200D01*
X18079600Y-7681629D02*
X18308171Y-7681629D01*
X18193886Y-7795914D02*
X18193886Y-7567343D01*
X18808171Y-7595914D02*
X18808171Y-7795914D01*
X18736743Y-7481629D02*
X18665314Y-7695914D01*
X18851028Y-7695914D01*
X19179600Y-7781629D02*
X19208171Y-7795914D01*
X19265314Y-7795914D01*
X19293886Y-7781629D01*
X19308171Y-7753057D01*
X19308171Y-7738771D01*
X19293886Y-7710200D01*
X19265314Y-7695914D01*
X19222457Y-7695914D01*
X19193886Y-7681629D01*
X19179600Y-7653057D01*
X19179600Y-7638771D01*
X19193886Y-7610200D01*
X19222457Y-7595914D01*
X19265314Y-7595914D01*
X19293886Y-7610200D01*
X19479600Y-7795914D02*
X19451028Y-7781629D01*
X19436743Y-7753057D01*
X19436743Y-7495914D01*
X19636743Y-7795914D02*
X19608171Y-7781629D01*
X19593886Y-7767343D01*
X19579600Y-7738771D01*
X19579600Y-7653057D01*
X19593886Y-7624486D01*
X19608171Y-7610200D01*
X19636743Y-7595914D01*
X19679600Y-7595914D01*
X19708171Y-7610200D01*
X19722457Y-7624486D01*
X19736743Y-7653057D01*
X19736743Y-7738771D01*
X19722457Y-7767343D01*
X19708171Y-7781629D01*
X19679600Y-7795914D01*
X19636743Y-7795914D01*
X19822457Y-7595914D02*
X19936743Y-7595914D01*
X19865314Y-7495914D02*
X19865314Y-7753057D01*
X19879600Y-7781629D01*
X19908171Y-7795914D01*
X19936743Y-7795914D01*
X20022457Y-7781629D02*
X20051028Y-7795914D01*
X20108171Y-7795914D01*
X20136743Y-7781629D01*
X20151028Y-7753057D01*
X20151028Y-7738771D01*
X20136743Y-7710200D01*
X20108171Y-7695914D01*
X20065314Y-7695914D01*
X20036743Y-7681629D01*
X20022457Y-7653057D01*
X20022457Y-7638771D01*
X20036743Y-7610200D01*
X20065314Y-7595914D01*
X20108171Y-7595914D01*
X20136743Y-7610200D01*
X20251028Y-7910200D02*
X20265314Y-7895914D01*
X20293886Y-7853057D01*
X20308171Y-7824486D01*
X20322457Y-7781629D01*
X20336743Y-7710200D01*
X20336743Y-7653057D01*
X20322457Y-7581629D01*
X20308171Y-7538771D01*
X20293886Y-7510200D01*
X20265314Y-7467343D01*
X20251028Y-7453057D01*
X10726600Y-8018200D02*
X10726600Y-8094200D01*
X10688600Y-8056200D02*
X10764600Y-8056200D01*
X11108171Y-7891914D02*
X11136743Y-7891914D01*
X11165314Y-7906200D01*
X11179600Y-7920486D01*
X11193886Y-7949057D01*
X11208171Y-8006200D01*
X11208171Y-8077629D01*
X11193886Y-8134771D01*
X11179600Y-8163343D01*
X11165314Y-8177629D01*
X11136743Y-8191914D01*
X11108171Y-8191914D01*
X11079600Y-8177629D01*
X11065314Y-8163343D01*
X11051028Y-8134771D01*
X11036743Y-8077629D01*
X11036743Y-8006200D01*
X11051028Y-7949057D01*
X11065314Y-7920486D01*
X11079600Y-7906200D01*
X11108171Y-7891914D01*
X11336743Y-8163343D02*
X11351028Y-8177629D01*
X11336743Y-8191914D01*
X11322457Y-8177629D01*
X11336743Y-8163343D01*
X11336743Y-8191914D01*
X11451028Y-7891914D02*
X11651028Y-7891914D01*
X11522457Y-8191914D01*
X11893886Y-7891914D02*
X11836743Y-7891914D01*
X11808171Y-7906200D01*
X11793886Y-7920486D01*
X11765314Y-7963343D01*
X11751028Y-8020486D01*
X11751028Y-8134771D01*
X11765314Y-8163343D01*
X11779600Y-8177629D01*
X11808171Y-8191914D01*
X11865314Y-8191914D01*
X11893886Y-8177629D01*
X11908171Y-8163343D01*
X11922457Y-8134771D01*
X11922457Y-8063343D01*
X11908171Y-8034771D01*
X11893886Y-8020486D01*
X11865314Y-8006200D01*
X11808171Y-8006200D01*
X11779600Y-8020486D01*
X11765314Y-8034771D01*
X11751028Y-8063343D01*
X12108171Y-7891914D02*
X12136743Y-7891914D01*
X12165314Y-7906200D01*
X12179600Y-7920486D01*
X12193886Y-7949057D01*
X12208171Y-8006200D01*
X12208171Y-8077629D01*
X12193886Y-8134771D01*
X12179600Y-8163343D01*
X12165314Y-8177629D01*
X12136743Y-8191914D01*
X12108171Y-8191914D01*
X12079600Y-8177629D01*
X12065314Y-8163343D01*
X12051028Y-8134771D01*
X12036743Y-8077629D01*
X12036743Y-8006200D01*
X12051028Y-7949057D01*
X12065314Y-7920486D01*
X12079600Y-7906200D01*
X12108171Y-7891914D01*
X12336743Y-8191914D02*
X12336743Y-7991914D01*
X12336743Y-8020486D02*
X12351028Y-8006200D01*
X12379600Y-7991914D01*
X12422457Y-7991914D01*
X12451028Y-8006200D01*
X12465314Y-8034771D01*
X12465314Y-8191914D01*
X12465314Y-8034771D02*
X12479600Y-8006200D01*
X12508171Y-7991914D01*
X12551028Y-7991914D01*
X12579600Y-8006200D01*
X12593886Y-8034771D01*
X12593886Y-8191914D01*
X12736743Y-8191914D02*
X12736743Y-7991914D01*
X12736743Y-8020486D02*
X12751028Y-8006200D01*
X12779600Y-7991914D01*
X12822457Y-7991914D01*
X12851028Y-8006200D01*
X12865314Y-8034771D01*
X12865314Y-8191914D01*
X12865314Y-8034771D02*
X12879600Y-8006200D01*
X12908171Y-7991914D01*
X12951028Y-7991914D01*
X12979600Y-8006200D01*
X12993886Y-8034771D01*
X12993886Y-8191914D01*
X13579600Y-7877629D02*
X13322457Y-8263343D01*
X13965314Y-7891914D02*
X13993886Y-7891914D01*
X14022457Y-7906200D01*
X14036743Y-7920486D01*
X14051028Y-7949057D01*
X14065314Y-8006200D01*
X14065314Y-8077629D01*
X14051028Y-8134771D01*
X14036743Y-8163343D01*
X14022457Y-8177629D01*
X13993886Y-8191914D01*
X13965314Y-8191914D01*
X13936743Y-8177629D01*
X13922457Y-8163343D01*
X13908171Y-8134771D01*
X13893886Y-8077629D01*
X13893886Y-8006200D01*
X13908171Y-7949057D01*
X13922457Y-7920486D01*
X13936743Y-7906200D01*
X13965314Y-7891914D01*
X14193886Y-8163343D02*
X14208171Y-8177629D01*
X14193886Y-8191914D01*
X14179600Y-8177629D01*
X14193886Y-8163343D01*
X14193886Y-8191914D01*
X14393886Y-7891914D02*
X14422457Y-7891914D01*
X14451028Y-7906200D01*
X14465314Y-7920486D01*
X14479600Y-7949057D01*
X14493886Y-8006200D01*
X14493886Y-8077629D01*
X14479600Y-8134771D01*
X14465314Y-8163343D01*
X14451028Y-8177629D01*
X14422457Y-8191914D01*
X14393886Y-8191914D01*
X14365314Y-8177629D01*
X14351028Y-8163343D01*
X14336743Y-8134771D01*
X14322457Y-8077629D01*
X14322457Y-8006200D01*
X14336743Y-7949057D01*
X14351028Y-7920486D01*
X14365314Y-7906200D01*
X14393886Y-7891914D01*
X14608171Y-7920486D02*
X14622457Y-7906200D01*
X14651028Y-7891914D01*
X14722457Y-7891914D01*
X14751028Y-7906200D01*
X14765314Y-7920486D01*
X14779600Y-7949057D01*
X14779600Y-7977629D01*
X14765314Y-8020486D01*
X14593886Y-8191914D01*
X14779600Y-8191914D01*
X14922457Y-8191914D02*
X14979600Y-8191914D01*
X15008171Y-8177629D01*
X15022457Y-8163343D01*
X15051028Y-8120486D01*
X15065314Y-8063343D01*
X15065314Y-7949057D01*
X15051028Y-7920486D01*
X15036743Y-7906200D01*
X15008171Y-7891914D01*
X14951028Y-7891914D01*
X14922457Y-7906200D01*
X14908171Y-7920486D01*
X14893886Y-7949057D01*
X14893886Y-8020486D01*
X14908171Y-8049057D01*
X14922457Y-8063343D01*
X14951028Y-8077629D01*
X15008171Y-8077629D01*
X15036743Y-8063343D01*
X15051028Y-8049057D01*
X15065314Y-8020486D01*
X15208171Y-8191914D02*
X15265314Y-8191914D01*
X15293886Y-8177629D01*
X15308171Y-8163343D01*
X15336743Y-8120486D01*
X15351028Y-8063343D01*
X15351028Y-7949057D01*
X15336743Y-7920486D01*
X15322457Y-7906200D01*
X15293886Y-7891914D01*
X15236743Y-7891914D01*
X15208171Y-7906200D01*
X15193886Y-7920486D01*
X15179600Y-7949057D01*
X15179600Y-8020486D01*
X15193886Y-8049057D01*
X15208171Y-8063343D01*
X15236743Y-8077629D01*
X15293886Y-8077629D01*
X15322457Y-8063343D01*
X15336743Y-8049057D01*
X15351028Y-8020486D01*
X15465314Y-7891914D02*
X15465314Y-7949057D01*
X15579600Y-7891914D02*
X15579600Y-7949057D01*
X16022457Y-8306200D02*
X16008171Y-8291914D01*
X15979600Y-8249057D01*
X15965314Y-8220486D01*
X15951028Y-8177629D01*
X15936743Y-8106200D01*
X15936743Y-8049057D01*
X15951028Y-7977629D01*
X15965314Y-7934771D01*
X15979600Y-7906200D01*
X16008171Y-7863343D01*
X16022457Y-7849057D01*
X16265314Y-7891914D02*
X16208171Y-7891914D01*
X16179600Y-7906200D01*
X16165314Y-7920486D01*
X16136743Y-7963343D01*
X16122457Y-8020486D01*
X16122457Y-8134771D01*
X16136743Y-8163343D01*
X16151028Y-8177629D01*
X16179600Y-8191914D01*
X16236743Y-8191914D01*
X16265314Y-8177629D01*
X16279600Y-8163343D01*
X16293886Y-8134771D01*
X16293886Y-8063343D01*
X16279600Y-8034771D01*
X16265314Y-8020486D01*
X16236743Y-8006200D01*
X16179600Y-8006200D01*
X16151028Y-8020486D01*
X16136743Y-8034771D01*
X16122457Y-8063343D01*
X16651028Y-8191914D02*
X16651028Y-7891914D01*
X16779600Y-8191914D02*
X16779600Y-8034771D01*
X16765314Y-8006200D01*
X16736743Y-7991914D01*
X16693886Y-7991914D01*
X16665314Y-8006200D01*
X16651028Y-8020486D01*
X16965314Y-8191914D02*
X16936743Y-8177629D01*
X16922457Y-8163343D01*
X16908171Y-8134771D01*
X16908171Y-8049057D01*
X16922457Y-8020486D01*
X16936743Y-8006200D01*
X16965314Y-7991914D01*
X17008171Y-7991914D01*
X17036743Y-8006200D01*
X17051028Y-8020486D01*
X17065314Y-8049057D01*
X17065314Y-8134771D01*
X17051028Y-8163343D01*
X17036743Y-8177629D01*
X17008171Y-8191914D01*
X16965314Y-8191914D01*
X17236743Y-8191914D02*
X17208171Y-8177629D01*
X17193886Y-8149057D01*
X17193886Y-7891914D01*
X17465314Y-8177629D02*
X17436743Y-8191914D01*
X17379600Y-8191914D01*
X17351028Y-8177629D01*
X17336743Y-8149057D01*
X17336743Y-8034771D01*
X17351028Y-8006200D01*
X17379600Y-7991914D01*
X17436743Y-7991914D01*
X17465314Y-8006200D01*
X17479600Y-8034771D01*
X17479600Y-8063343D01*
X17336743Y-8091914D01*
X17593886Y-8177629D02*
X17622457Y-8191914D01*
X17679600Y-8191914D01*
X17708171Y-8177629D01*
X17722457Y-8149057D01*
X17722457Y-8134771D01*
X17708171Y-8106200D01*
X17679600Y-8091914D01*
X17636743Y-8091914D01*
X17608171Y-8077629D01*
X17593886Y-8049057D01*
X17593886Y-8034771D01*
X17608171Y-8006200D01*
X17636743Y-7991914D01*
X17679600Y-7991914D01*
X17708171Y-8006200D01*
X17822457Y-8306200D02*
X17836743Y-8291914D01*
X17865314Y-8249057D01*
X17879600Y-8220486D01*
X17893886Y-8177629D01*
X17908171Y-8106200D01*
X17908171Y-8049057D01*
X17893886Y-7977629D01*
X17879600Y-7934771D01*
X17865314Y-7906200D01*
X17836743Y-7863343D01*
X17822457Y-7849057D01*
M02*
