%TF.GenerationSoftware,KiCad,Pcbnew,5.1.10-88a1d61d58~90~ubuntu20.04.1*%
%TF.CreationDate,2021-10-26T22:54:14+02:00*%
%TF.ProjectId,e-meter-usb-c,652d6d65-7465-4722-9d75-73622d632e6b,rev?*%
%TF.SameCoordinates,Original*%
%TF.FileFunction,Legend,Top*%
%TF.FilePolarity,Positive*%
%FSLAX46Y46*%
G04 Gerber Fmt 4.6, Leading zero omitted, Abs format (unit mm)*
G04 Created by KiCad (PCBNEW 5.1.10-88a1d61d58~90~ubuntu20.04.1) date 2021-10-26 22:54:14*
%MOMM*%
%LPD*%
G01*
G04 APERTURE LIST*
%ADD10C,0.120000*%
%ADD11C,0.100000*%
%ADD12C,0.150000*%
G04 APERTURE END LIST*
D10*
%TO.C,U4*%
X123190000Y-28214000D02*
X119740000Y-28214000D01*
X123190000Y-28214000D02*
X125140000Y-28214000D01*
X123190000Y-38334000D02*
X121240000Y-38334000D01*
X123190000Y-38334000D02*
X125140000Y-38334000D01*
%TO.C,U1*%
X130503500Y-48174000D02*
X128053500Y-48174000D01*
X128703500Y-51394000D02*
X130503500Y-51394000D01*
%TO.C,U2*%
X154733000Y-38886000D02*
X154733000Y-38506000D01*
X161153000Y-38886000D02*
X154733000Y-38886000D01*
X161153000Y-57126000D02*
X154733000Y-57126000D01*
X161153000Y-38886000D02*
X161153000Y-57126000D01*
X135408000Y-57126000D02*
X135408000Y-56126000D01*
X136188000Y-57126000D02*
X135408000Y-57126000D01*
X135408000Y-38886000D02*
X135408000Y-39886000D01*
X136188000Y-38886000D02*
X135408000Y-38886000D01*
%TO.C,TP7*%
X142051000Y-61341000D02*
G75*
G03*
X142051000Y-61341000I-700000J0D01*
G01*
%TO.C,TP6*%
X133796000Y-61468000D02*
G75*
G03*
X133796000Y-61468000I-700000J0D01*
G01*
%TO.C,TP5*%
X131510000Y-39624000D02*
G75*
G03*
X131510000Y-39624000I-700000J0D01*
G01*
%TO.C,TP4*%
X113095000Y-27940000D02*
G75*
G03*
X113095000Y-27940000I-700000J0D01*
G01*
%TO.C,TP3*%
X124398000Y-45974000D02*
G75*
G03*
X124398000Y-45974000I-700000J0D01*
G01*
%TO.C,TP2*%
X119318000Y-40005000D02*
G75*
G03*
X119318000Y-40005000I-700000J0D01*
G01*
%TO.C,TP1*%
X118302000Y-27813000D02*
G75*
G03*
X118302000Y-27813000I-700000J0D01*
G01*
%TO.C,SW1*%
X147519000Y-32821000D02*
X153979000Y-32821000D01*
X147519000Y-28291000D02*
X147519000Y-30891000D01*
X147519000Y-26361000D02*
X153979000Y-26361000D01*
X153979000Y-28291000D02*
X153979000Y-30891000D01*
X147519000Y-26391000D02*
X147519000Y-26361000D01*
X147519000Y-32821000D02*
X147519000Y-32791000D01*
X153979000Y-32821000D02*
X153979000Y-32791000D01*
X153979000Y-26361000D02*
X153979000Y-26391000D01*
%TO.C,Q4*%
X141226000Y-33726000D02*
X142686000Y-33726000D01*
X141226000Y-36886000D02*
X143386000Y-36886000D01*
X141226000Y-36886000D02*
X141226000Y-35956000D01*
X141226000Y-33726000D02*
X141226000Y-34656000D01*
%TO.C,Q3*%
X141226000Y-28900000D02*
X142686000Y-28900000D01*
X141226000Y-32060000D02*
X143386000Y-32060000D01*
X141226000Y-32060000D02*
X141226000Y-31130000D01*
X141226000Y-28900000D02*
X141226000Y-29830000D01*
%TO.C,Q1*%
X130554000Y-61016000D02*
X129094000Y-61016000D01*
X130554000Y-57856000D02*
X128394000Y-57856000D01*
X130554000Y-57856000D02*
X130554000Y-58786000D01*
X130554000Y-61016000D02*
X130554000Y-60086000D01*
%TO.C,J2*%
X107860000Y-29844000D02*
X107860000Y-39244000D01*
X113660000Y-39244000D02*
X111660000Y-39244000D01*
X109760000Y-39244000D02*
X107860000Y-39244000D01*
X113660000Y-29844000D02*
X111660000Y-29844000D01*
X109760000Y-29844000D02*
X107860000Y-29844000D01*
%TO.C,J1*%
X126198000Y-47370000D02*
X126198000Y-60570000D01*
X126198000Y-60570000D02*
X117178000Y-60570000D01*
D11*
X108318000Y-60570000D02*
X108198000Y-60570000D01*
D10*
X108198000Y-60570000D02*
X114978000Y-60570000D01*
D11*
X108208000Y-60570000D02*
X108198000Y-60570000D01*
D10*
X108198000Y-60570000D02*
X108198000Y-47370000D01*
X108198000Y-47370000D02*
X114978000Y-47370000D01*
D11*
X117248000Y-47370000D02*
X117178000Y-47370000D01*
D10*
X117178000Y-47370000D02*
X126198000Y-47370000D01*
X124198000Y-46900000D02*
X125728000Y-46900000D01*
D11*
%TO.C,D5*%
X137737000Y-35052000D02*
G75*
G03*
X137737000Y-35052000I-50000J0D01*
G01*
%TO.C,D4*%
X137737000Y-32004000D02*
G75*
G03*
X137737000Y-32004000I-50000J0D01*
G01*
%TO.C,D3*%
X137737000Y-28702000D02*
G75*
G03*
X137737000Y-28702000I-50000J0D01*
G01*
D10*
%TO.C,D2*%
X114684000Y-45084000D02*
X109284000Y-45084000D01*
X114684000Y-41784000D02*
X109284000Y-41784000D01*
X114684000Y-45084000D02*
X114684000Y-41784000D01*
%TO.C,D1*%
X122272000Y-45084000D02*
X116872000Y-45084000D01*
X122272000Y-41784000D02*
X116872000Y-41784000D01*
X122272000Y-45084000D02*
X122272000Y-41784000D01*
%TO.C,C7*%
X149498267Y-36574000D02*
X149205733Y-36574000D01*
X149498267Y-37594000D02*
X149205733Y-37594000D01*
%TO.C,C6*%
X128924267Y-28192000D02*
X128631733Y-28192000D01*
X128924267Y-29212000D02*
X128631733Y-29212000D01*
%TO.C,C5*%
X152915233Y-35816000D02*
X153207767Y-35816000D01*
X152915233Y-34796000D02*
X153207767Y-34796000D01*
%TO.C,C4*%
X152862233Y-37594000D02*
X153154767Y-37594000D01*
X152862233Y-36574000D02*
X153154767Y-36574000D01*
%TO.C,C3*%
X131256500Y-46093767D02*
X131256500Y-45801233D01*
X130236500Y-46093767D02*
X130236500Y-45801233D01*
%TO.C,C2*%
X129686267Y-52004500D02*
X129393733Y-52004500D01*
X129686267Y-53024500D02*
X129393733Y-53024500D01*
%TO.C,C1*%
X129034000Y-46120267D02*
X129034000Y-45827733D01*
X128014000Y-46120267D02*
X128014000Y-45827733D01*
%TO.C,TP7*%
D12*
X142502095Y-60793380D02*
X143073523Y-60793380D01*
X142787809Y-61793380D02*
X142787809Y-60793380D01*
X143406857Y-61793380D02*
X143406857Y-60793380D01*
X143787809Y-60793380D01*
X143883047Y-60841000D01*
X143930666Y-60888619D01*
X143978285Y-60983857D01*
X143978285Y-61126714D01*
X143930666Y-61221952D01*
X143883047Y-61269571D01*
X143787809Y-61317190D01*
X143406857Y-61317190D01*
X144311619Y-60793380D02*
X144978285Y-60793380D01*
X144549714Y-61793380D01*
%TO.C,TP6*%
X134247095Y-61301380D02*
X134818523Y-61301380D01*
X134532809Y-62301380D02*
X134532809Y-61301380D01*
X135151857Y-62301380D02*
X135151857Y-61301380D01*
X135532809Y-61301380D01*
X135628047Y-61349000D01*
X135675666Y-61396619D01*
X135723285Y-61491857D01*
X135723285Y-61634714D01*
X135675666Y-61729952D01*
X135628047Y-61777571D01*
X135532809Y-61825190D01*
X135151857Y-61825190D01*
X136580428Y-61301380D02*
X136389952Y-61301380D01*
X136294714Y-61349000D01*
X136247095Y-61396619D01*
X136151857Y-61539476D01*
X136104238Y-61729952D01*
X136104238Y-62110904D01*
X136151857Y-62206142D01*
X136199476Y-62253761D01*
X136294714Y-62301380D01*
X136485190Y-62301380D01*
X136580428Y-62253761D01*
X136628047Y-62206142D01*
X136675666Y-62110904D01*
X136675666Y-61872809D01*
X136628047Y-61777571D01*
X136580428Y-61729952D01*
X136485190Y-61682333D01*
X136294714Y-61682333D01*
X136199476Y-61729952D01*
X136151857Y-61777571D01*
X136104238Y-61872809D01*
%TO.C,TP5*%
X129421095Y-37044380D02*
X129992523Y-37044380D01*
X129706809Y-38044380D02*
X129706809Y-37044380D01*
X130325857Y-38044380D02*
X130325857Y-37044380D01*
X130706809Y-37044380D01*
X130802047Y-37092000D01*
X130849666Y-37139619D01*
X130897285Y-37234857D01*
X130897285Y-37377714D01*
X130849666Y-37472952D01*
X130802047Y-37520571D01*
X130706809Y-37568190D01*
X130325857Y-37568190D01*
X131802047Y-37044380D02*
X131325857Y-37044380D01*
X131278238Y-37520571D01*
X131325857Y-37472952D01*
X131421095Y-37425333D01*
X131659190Y-37425333D01*
X131754428Y-37472952D01*
X131802047Y-37520571D01*
X131849666Y-37615809D01*
X131849666Y-37853904D01*
X131802047Y-37949142D01*
X131754428Y-37996761D01*
X131659190Y-38044380D01*
X131421095Y-38044380D01*
X131325857Y-37996761D01*
X131278238Y-37949142D01*
%TO.C,TP4*%
X108466095Y-27265380D02*
X109037523Y-27265380D01*
X108751809Y-28265380D02*
X108751809Y-27265380D01*
X109370857Y-28265380D02*
X109370857Y-27265380D01*
X109751809Y-27265380D01*
X109847047Y-27313000D01*
X109894666Y-27360619D01*
X109942285Y-27455857D01*
X109942285Y-27598714D01*
X109894666Y-27693952D01*
X109847047Y-27741571D01*
X109751809Y-27789190D01*
X109370857Y-27789190D01*
X110799428Y-27598714D02*
X110799428Y-28265380D01*
X110561333Y-27217761D02*
X110323238Y-27932047D01*
X110942285Y-27932047D01*
%TO.C,TP3*%
X122690095Y-43902380D02*
X123261523Y-43902380D01*
X122975809Y-44902380D02*
X122975809Y-43902380D01*
X123594857Y-44902380D02*
X123594857Y-43902380D01*
X123975809Y-43902380D01*
X124071047Y-43950000D01*
X124118666Y-43997619D01*
X124166285Y-44092857D01*
X124166285Y-44235714D01*
X124118666Y-44330952D01*
X124071047Y-44378571D01*
X123975809Y-44426190D01*
X123594857Y-44426190D01*
X124499619Y-43902380D02*
X125118666Y-43902380D01*
X124785333Y-44283333D01*
X124928190Y-44283333D01*
X125023428Y-44330952D01*
X125071047Y-44378571D01*
X125118666Y-44473809D01*
X125118666Y-44711904D01*
X125071047Y-44807142D01*
X125023428Y-44854761D01*
X124928190Y-44902380D01*
X124642476Y-44902380D01*
X124547238Y-44854761D01*
X124499619Y-44807142D01*
%TO.C,TP2*%
X119642095Y-39457380D02*
X120213523Y-39457380D01*
X119927809Y-40457380D02*
X119927809Y-39457380D01*
X120546857Y-40457380D02*
X120546857Y-39457380D01*
X120927809Y-39457380D01*
X121023047Y-39505000D01*
X121070666Y-39552619D01*
X121118285Y-39647857D01*
X121118285Y-39790714D01*
X121070666Y-39885952D01*
X121023047Y-39933571D01*
X120927809Y-39981190D01*
X120546857Y-39981190D01*
X121499238Y-39552619D02*
X121546857Y-39505000D01*
X121642095Y-39457380D01*
X121880190Y-39457380D01*
X121975428Y-39505000D01*
X122023047Y-39552619D01*
X122070666Y-39647857D01*
X122070666Y-39743095D01*
X122023047Y-39885952D01*
X121451619Y-40457380D01*
X122070666Y-40457380D01*
%TO.C,TP1*%
X114054095Y-27265380D02*
X114625523Y-27265380D01*
X114339809Y-28265380D02*
X114339809Y-27265380D01*
X114958857Y-28265380D02*
X114958857Y-27265380D01*
X115339809Y-27265380D01*
X115435047Y-27313000D01*
X115482666Y-27360619D01*
X115530285Y-27455857D01*
X115530285Y-27598714D01*
X115482666Y-27693952D01*
X115435047Y-27741571D01*
X115339809Y-27789190D01*
X114958857Y-27789190D01*
X116482666Y-28265380D02*
X115911238Y-28265380D01*
X116196952Y-28265380D02*
X116196952Y-27265380D01*
X116101714Y-27408238D01*
X116006476Y-27503476D01*
X115911238Y-27551095D01*
%TD*%
M02*
