%TF.GenerationSoftware,KiCad,Pcbnew,5.1.10-88a1d61d58~90~ubuntu20.04.1*%
%TF.CreationDate,2021-10-26T22:54:14+02:00*%
%TF.ProjectId,e-meter-usb-c,652d6d65-7465-4722-9d75-73622d632e6b,rev?*%
%TF.SameCoordinates,Original*%
%TF.FileFunction,Paste,Top*%
%TF.FilePolarity,Positive*%
%FSLAX46Y46*%
G04 Gerber Fmt 4.6, Leading zero omitted, Abs format (unit mm)*
G04 Created by KiCad (PCBNEW 5.1.10-88a1d61d58~90~ubuntu20.04.1) date 2021-10-26 22:54:14*
%MOMM*%
%LPD*%
G01*
G04 APERTURE LIST*
%ADD10R,1.060000X0.650000*%
%ADD11R,0.900000X2.000000*%
%ADD12R,2.000000X0.900000*%
%ADD13R,5.000000X5.000000*%
%ADD14R,2.350000X1.300000*%
%ADD15R,0.900000X0.800000*%
%ADD16R,1.450000X0.600000*%
%ADD17R,1.450000X0.300000*%
%ADD18R,2.500000X1.800000*%
G04 APERTURE END LIST*
%TO.C,U4*%
G36*
G01*
X124690000Y-28979000D02*
X124690000Y-28679000D01*
G75*
G02*
X124840000Y-28529000I150000J0D01*
G01*
X126490000Y-28529000D01*
G75*
G02*
X126640000Y-28679000I0J-150000D01*
G01*
X126640000Y-28979000D01*
G75*
G02*
X126490000Y-29129000I-150000J0D01*
G01*
X124840000Y-29129000D01*
G75*
G02*
X124690000Y-28979000I0J150000D01*
G01*
G37*
G36*
G01*
X124690000Y-30249000D02*
X124690000Y-29949000D01*
G75*
G02*
X124840000Y-29799000I150000J0D01*
G01*
X126490000Y-29799000D01*
G75*
G02*
X126640000Y-29949000I0J-150000D01*
G01*
X126640000Y-30249000D01*
G75*
G02*
X126490000Y-30399000I-150000J0D01*
G01*
X124840000Y-30399000D01*
G75*
G02*
X124690000Y-30249000I0J150000D01*
G01*
G37*
G36*
G01*
X124690000Y-31519000D02*
X124690000Y-31219000D01*
G75*
G02*
X124840000Y-31069000I150000J0D01*
G01*
X126490000Y-31069000D01*
G75*
G02*
X126640000Y-31219000I0J-150000D01*
G01*
X126640000Y-31519000D01*
G75*
G02*
X126490000Y-31669000I-150000J0D01*
G01*
X124840000Y-31669000D01*
G75*
G02*
X124690000Y-31519000I0J150000D01*
G01*
G37*
G36*
G01*
X124690000Y-32789000D02*
X124690000Y-32489000D01*
G75*
G02*
X124840000Y-32339000I150000J0D01*
G01*
X126490000Y-32339000D01*
G75*
G02*
X126640000Y-32489000I0J-150000D01*
G01*
X126640000Y-32789000D01*
G75*
G02*
X126490000Y-32939000I-150000J0D01*
G01*
X124840000Y-32939000D01*
G75*
G02*
X124690000Y-32789000I0J150000D01*
G01*
G37*
G36*
G01*
X124690000Y-34059000D02*
X124690000Y-33759000D01*
G75*
G02*
X124840000Y-33609000I150000J0D01*
G01*
X126490000Y-33609000D01*
G75*
G02*
X126640000Y-33759000I0J-150000D01*
G01*
X126640000Y-34059000D01*
G75*
G02*
X126490000Y-34209000I-150000J0D01*
G01*
X124840000Y-34209000D01*
G75*
G02*
X124690000Y-34059000I0J150000D01*
G01*
G37*
G36*
G01*
X124690000Y-35329000D02*
X124690000Y-35029000D01*
G75*
G02*
X124840000Y-34879000I150000J0D01*
G01*
X126490000Y-34879000D01*
G75*
G02*
X126640000Y-35029000I0J-150000D01*
G01*
X126640000Y-35329000D01*
G75*
G02*
X126490000Y-35479000I-150000J0D01*
G01*
X124840000Y-35479000D01*
G75*
G02*
X124690000Y-35329000I0J150000D01*
G01*
G37*
G36*
G01*
X124690000Y-36599000D02*
X124690000Y-36299000D01*
G75*
G02*
X124840000Y-36149000I150000J0D01*
G01*
X126490000Y-36149000D01*
G75*
G02*
X126640000Y-36299000I0J-150000D01*
G01*
X126640000Y-36599000D01*
G75*
G02*
X126490000Y-36749000I-150000J0D01*
G01*
X124840000Y-36749000D01*
G75*
G02*
X124690000Y-36599000I0J150000D01*
G01*
G37*
G36*
G01*
X124690000Y-37869000D02*
X124690000Y-37569000D01*
G75*
G02*
X124840000Y-37419000I150000J0D01*
G01*
X126490000Y-37419000D01*
G75*
G02*
X126640000Y-37569000I0J-150000D01*
G01*
X126640000Y-37869000D01*
G75*
G02*
X126490000Y-38019000I-150000J0D01*
G01*
X124840000Y-38019000D01*
G75*
G02*
X124690000Y-37869000I0J150000D01*
G01*
G37*
G36*
G01*
X119740000Y-37869000D02*
X119740000Y-37569000D01*
G75*
G02*
X119890000Y-37419000I150000J0D01*
G01*
X121540000Y-37419000D01*
G75*
G02*
X121690000Y-37569000I0J-150000D01*
G01*
X121690000Y-37869000D01*
G75*
G02*
X121540000Y-38019000I-150000J0D01*
G01*
X119890000Y-38019000D01*
G75*
G02*
X119740000Y-37869000I0J150000D01*
G01*
G37*
G36*
G01*
X119740000Y-36599000D02*
X119740000Y-36299000D01*
G75*
G02*
X119890000Y-36149000I150000J0D01*
G01*
X121540000Y-36149000D01*
G75*
G02*
X121690000Y-36299000I0J-150000D01*
G01*
X121690000Y-36599000D01*
G75*
G02*
X121540000Y-36749000I-150000J0D01*
G01*
X119890000Y-36749000D01*
G75*
G02*
X119740000Y-36599000I0J150000D01*
G01*
G37*
G36*
G01*
X119740000Y-35329000D02*
X119740000Y-35029000D01*
G75*
G02*
X119890000Y-34879000I150000J0D01*
G01*
X121540000Y-34879000D01*
G75*
G02*
X121690000Y-35029000I0J-150000D01*
G01*
X121690000Y-35329000D01*
G75*
G02*
X121540000Y-35479000I-150000J0D01*
G01*
X119890000Y-35479000D01*
G75*
G02*
X119740000Y-35329000I0J150000D01*
G01*
G37*
G36*
G01*
X119740000Y-34059000D02*
X119740000Y-33759000D01*
G75*
G02*
X119890000Y-33609000I150000J0D01*
G01*
X121540000Y-33609000D01*
G75*
G02*
X121690000Y-33759000I0J-150000D01*
G01*
X121690000Y-34059000D01*
G75*
G02*
X121540000Y-34209000I-150000J0D01*
G01*
X119890000Y-34209000D01*
G75*
G02*
X119740000Y-34059000I0J150000D01*
G01*
G37*
G36*
G01*
X119740000Y-32789000D02*
X119740000Y-32489000D01*
G75*
G02*
X119890000Y-32339000I150000J0D01*
G01*
X121540000Y-32339000D01*
G75*
G02*
X121690000Y-32489000I0J-150000D01*
G01*
X121690000Y-32789000D01*
G75*
G02*
X121540000Y-32939000I-150000J0D01*
G01*
X119890000Y-32939000D01*
G75*
G02*
X119740000Y-32789000I0J150000D01*
G01*
G37*
G36*
G01*
X119740000Y-31519000D02*
X119740000Y-31219000D01*
G75*
G02*
X119890000Y-31069000I150000J0D01*
G01*
X121540000Y-31069000D01*
G75*
G02*
X121690000Y-31219000I0J-150000D01*
G01*
X121690000Y-31519000D01*
G75*
G02*
X121540000Y-31669000I-150000J0D01*
G01*
X119890000Y-31669000D01*
G75*
G02*
X119740000Y-31519000I0J150000D01*
G01*
G37*
G36*
G01*
X119740000Y-30249000D02*
X119740000Y-29949000D01*
G75*
G02*
X119890000Y-29799000I150000J0D01*
G01*
X121540000Y-29799000D01*
G75*
G02*
X121690000Y-29949000I0J-150000D01*
G01*
X121690000Y-30249000D01*
G75*
G02*
X121540000Y-30399000I-150000J0D01*
G01*
X119890000Y-30399000D01*
G75*
G02*
X119740000Y-30249000I0J150000D01*
G01*
G37*
G36*
G01*
X119740000Y-28979000D02*
X119740000Y-28679000D01*
G75*
G02*
X119890000Y-28529000I150000J0D01*
G01*
X121540000Y-28529000D01*
G75*
G02*
X121690000Y-28679000I0J-150000D01*
G01*
X121690000Y-28979000D01*
G75*
G02*
X121540000Y-29129000I-150000J0D01*
G01*
X119890000Y-29129000D01*
G75*
G02*
X119740000Y-28979000I0J150000D01*
G01*
G37*
%TD*%
D10*
%TO.C,U1*%
X130703500Y-48834000D03*
X130703500Y-50734000D03*
X128503500Y-50734000D03*
X128503500Y-49784000D03*
X128503500Y-48834000D03*
%TD*%
D11*
%TO.C,U2*%
X153543000Y-56506000D03*
X152273000Y-56506000D03*
X151003000Y-56506000D03*
X149733000Y-56506000D03*
X148463000Y-56506000D03*
X147193000Y-56506000D03*
X145923000Y-56506000D03*
X144653000Y-56506000D03*
X143383000Y-56506000D03*
X142113000Y-56506000D03*
X140843000Y-56506000D03*
X139573000Y-56506000D03*
X138303000Y-56506000D03*
X137033000Y-56506000D03*
D12*
X136033000Y-53721000D03*
X136033000Y-52451000D03*
X136033000Y-51181000D03*
X136033000Y-49911000D03*
X136033000Y-48641000D03*
X136033000Y-47371000D03*
X136033000Y-46101000D03*
X136033000Y-44831000D03*
X136033000Y-43561000D03*
X136033000Y-42291000D03*
D11*
X137033000Y-39506000D03*
X138303000Y-39506000D03*
X139573000Y-39506000D03*
X140843000Y-39506000D03*
X142113000Y-39506000D03*
X143383000Y-39506000D03*
X144653000Y-39506000D03*
X145923000Y-39506000D03*
X147193000Y-39506000D03*
X148463000Y-39506000D03*
X149733000Y-39506000D03*
X151003000Y-39506000D03*
X152273000Y-39506000D03*
X153543000Y-39506000D03*
D13*
X146043000Y-47006000D03*
%TD*%
D14*
%TO.C,SW1*%
X146374000Y-31841000D03*
X146374000Y-27341000D03*
X155124000Y-27341000D03*
X155124000Y-31841000D03*
%TD*%
%TO.C,R11*%
G36*
G01*
X136855500Y-34126000D02*
X136855500Y-33946000D01*
G75*
G02*
X136945500Y-33856000I90000J0D01*
G01*
X137223500Y-33856000D01*
G75*
G02*
X137313500Y-33946000I0J-90000D01*
G01*
X137313500Y-34126000D01*
G75*
G02*
X137223500Y-34216000I-90000J0D01*
G01*
X136945500Y-34216000D01*
G75*
G02*
X136855500Y-34126000I0J90000D01*
G01*
G37*
G36*
G01*
X135990500Y-34126000D02*
X135990500Y-33946000D01*
G75*
G02*
X136080500Y-33856000I90000J0D01*
G01*
X136358500Y-33856000D01*
G75*
G02*
X136448500Y-33946000I0J-90000D01*
G01*
X136448500Y-34126000D01*
G75*
G02*
X136358500Y-34216000I-90000J0D01*
G01*
X136080500Y-34216000D01*
G75*
G02*
X135990500Y-34126000I0J90000D01*
G01*
G37*
%TD*%
%TO.C,R10*%
G36*
G01*
X150317500Y-35650000D02*
X150317500Y-35470000D01*
G75*
G02*
X150407500Y-35380000I90000J0D01*
G01*
X150685500Y-35380000D01*
G75*
G02*
X150775500Y-35470000I0J-90000D01*
G01*
X150775500Y-35650000D01*
G75*
G02*
X150685500Y-35740000I-90000J0D01*
G01*
X150407500Y-35740000D01*
G75*
G02*
X150317500Y-35650000I0J90000D01*
G01*
G37*
G36*
G01*
X149452500Y-35650000D02*
X149452500Y-35470000D01*
G75*
G02*
X149542500Y-35380000I90000J0D01*
G01*
X149820500Y-35380000D01*
G75*
G02*
X149910500Y-35470000I0J-90000D01*
G01*
X149910500Y-35650000D01*
G75*
G02*
X149820500Y-35740000I-90000J0D01*
G01*
X149542500Y-35740000D01*
G75*
G02*
X149452500Y-35650000I0J90000D01*
G01*
G37*
%TD*%
%TO.C,R9*%
G36*
G01*
X117766000Y-36880000D02*
X117946000Y-36880000D01*
G75*
G02*
X118036000Y-36970000I0J-90000D01*
G01*
X118036000Y-37248000D01*
G75*
G02*
X117946000Y-37338000I-90000J0D01*
G01*
X117766000Y-37338000D01*
G75*
G02*
X117676000Y-37248000I0J90000D01*
G01*
X117676000Y-36970000D01*
G75*
G02*
X117766000Y-36880000I90000J0D01*
G01*
G37*
G36*
G01*
X117766000Y-36015000D02*
X117946000Y-36015000D01*
G75*
G02*
X118036000Y-36105000I0J-90000D01*
G01*
X118036000Y-36383000D01*
G75*
G02*
X117946000Y-36473000I-90000J0D01*
G01*
X117766000Y-36473000D01*
G75*
G02*
X117676000Y-36383000I0J90000D01*
G01*
X117676000Y-36105000D01*
G75*
G02*
X117766000Y-36015000I90000J0D01*
G01*
G37*
%TD*%
%TO.C,R8*%
G36*
G01*
X117946000Y-32562500D02*
X117766000Y-32562500D01*
G75*
G02*
X117676000Y-32472500I0J90000D01*
G01*
X117676000Y-32194500D01*
G75*
G02*
X117766000Y-32104500I90000J0D01*
G01*
X117946000Y-32104500D01*
G75*
G02*
X118036000Y-32194500I0J-90000D01*
G01*
X118036000Y-32472500D01*
G75*
G02*
X117946000Y-32562500I-90000J0D01*
G01*
G37*
G36*
G01*
X117946000Y-33427500D02*
X117766000Y-33427500D01*
G75*
G02*
X117676000Y-33337500I0J90000D01*
G01*
X117676000Y-33059500D01*
G75*
G02*
X117766000Y-32969500I90000J0D01*
G01*
X117946000Y-32969500D01*
G75*
G02*
X118036000Y-33059500I0J-90000D01*
G01*
X118036000Y-33337500D01*
G75*
G02*
X117946000Y-33427500I-90000J0D01*
G01*
G37*
%TD*%
%TO.C,R7*%
G36*
G01*
X136855500Y-31078000D02*
X136855500Y-30898000D01*
G75*
G02*
X136945500Y-30808000I90000J0D01*
G01*
X137223500Y-30808000D01*
G75*
G02*
X137313500Y-30898000I0J-90000D01*
G01*
X137313500Y-31078000D01*
G75*
G02*
X137223500Y-31168000I-90000J0D01*
G01*
X136945500Y-31168000D01*
G75*
G02*
X136855500Y-31078000I0J90000D01*
G01*
G37*
G36*
G01*
X135990500Y-31078000D02*
X135990500Y-30898000D01*
G75*
G02*
X136080500Y-30808000I90000J0D01*
G01*
X136358500Y-30808000D01*
G75*
G02*
X136448500Y-30898000I0J-90000D01*
G01*
X136448500Y-31078000D01*
G75*
G02*
X136358500Y-31168000I-90000J0D01*
G01*
X136080500Y-31168000D01*
G75*
G02*
X135990500Y-31078000I0J90000D01*
G01*
G37*
%TD*%
%TO.C,R6*%
G36*
G01*
X141782500Y-32930000D02*
X141782500Y-33110000D01*
G75*
G02*
X141692500Y-33200000I-90000J0D01*
G01*
X141414500Y-33200000D01*
G75*
G02*
X141324500Y-33110000I0J90000D01*
G01*
X141324500Y-32930000D01*
G75*
G02*
X141414500Y-32840000I90000J0D01*
G01*
X141692500Y-32840000D01*
G75*
G02*
X141782500Y-32930000I0J-90000D01*
G01*
G37*
G36*
G01*
X142647500Y-32930000D02*
X142647500Y-33110000D01*
G75*
G02*
X142557500Y-33200000I-90000J0D01*
G01*
X142279500Y-33200000D01*
G75*
G02*
X142189500Y-33110000I0J90000D01*
G01*
X142189500Y-32930000D01*
G75*
G02*
X142279500Y-32840000I90000J0D01*
G01*
X142557500Y-32840000D01*
G75*
G02*
X142647500Y-32930000I0J-90000D01*
G01*
G37*
%TD*%
%TO.C,R5*%
G36*
G01*
X141782500Y-28104000D02*
X141782500Y-28284000D01*
G75*
G02*
X141692500Y-28374000I-90000J0D01*
G01*
X141414500Y-28374000D01*
G75*
G02*
X141324500Y-28284000I0J90000D01*
G01*
X141324500Y-28104000D01*
G75*
G02*
X141414500Y-28014000I90000J0D01*
G01*
X141692500Y-28014000D01*
G75*
G02*
X141782500Y-28104000I0J-90000D01*
G01*
G37*
G36*
G01*
X142647500Y-28104000D02*
X142647500Y-28284000D01*
G75*
G02*
X142557500Y-28374000I-90000J0D01*
G01*
X142279500Y-28374000D01*
G75*
G02*
X142189500Y-28284000I0J90000D01*
G01*
X142189500Y-28104000D01*
G75*
G02*
X142279500Y-28014000I90000J0D01*
G01*
X142557500Y-28014000D01*
G75*
G02*
X142647500Y-28104000I0J-90000D01*
G01*
G37*
%TD*%
%TO.C,R4*%
G36*
G01*
X132170000Y-59232500D02*
X131990000Y-59232500D01*
G75*
G02*
X131900000Y-59142500I0J90000D01*
G01*
X131900000Y-58864500D01*
G75*
G02*
X131990000Y-58774500I90000J0D01*
G01*
X132170000Y-58774500D01*
G75*
G02*
X132260000Y-58864500I0J-90000D01*
G01*
X132260000Y-59142500D01*
G75*
G02*
X132170000Y-59232500I-90000J0D01*
G01*
G37*
G36*
G01*
X132170000Y-60097500D02*
X131990000Y-60097500D01*
G75*
G02*
X131900000Y-60007500I0J90000D01*
G01*
X131900000Y-59729500D01*
G75*
G02*
X131990000Y-59639500I90000J0D01*
G01*
X132170000Y-59639500D01*
G75*
G02*
X132260000Y-59729500I0J-90000D01*
G01*
X132260000Y-60007500D01*
G75*
G02*
X132170000Y-60097500I-90000J0D01*
G01*
G37*
%TD*%
%TO.C,R3*%
G36*
G01*
X136855500Y-27776000D02*
X136855500Y-27596000D01*
G75*
G02*
X136945500Y-27506000I90000J0D01*
G01*
X137223500Y-27506000D01*
G75*
G02*
X137313500Y-27596000I0J-90000D01*
G01*
X137313500Y-27776000D01*
G75*
G02*
X137223500Y-27866000I-90000J0D01*
G01*
X136945500Y-27866000D01*
G75*
G02*
X136855500Y-27776000I0J90000D01*
G01*
G37*
G36*
G01*
X135990500Y-27776000D02*
X135990500Y-27596000D01*
G75*
G02*
X136080500Y-27506000I90000J0D01*
G01*
X136358500Y-27506000D01*
G75*
G02*
X136448500Y-27596000I0J-90000D01*
G01*
X136448500Y-27776000D01*
G75*
G02*
X136358500Y-27866000I-90000J0D01*
G01*
X136080500Y-27866000D01*
G75*
G02*
X135990500Y-27776000I0J90000D01*
G01*
G37*
%TD*%
%TO.C,R2*%
G36*
G01*
X127418000Y-59639500D02*
X127598000Y-59639500D01*
G75*
G02*
X127688000Y-59729500I0J-90000D01*
G01*
X127688000Y-60007500D01*
G75*
G02*
X127598000Y-60097500I-90000J0D01*
G01*
X127418000Y-60097500D01*
G75*
G02*
X127328000Y-60007500I0J90000D01*
G01*
X127328000Y-59729500D01*
G75*
G02*
X127418000Y-59639500I90000J0D01*
G01*
G37*
G36*
G01*
X127418000Y-58774500D02*
X127598000Y-58774500D01*
G75*
G02*
X127688000Y-58864500I0J-90000D01*
G01*
X127688000Y-59142500D01*
G75*
G02*
X127598000Y-59232500I-90000J0D01*
G01*
X127418000Y-59232500D01*
G75*
G02*
X127328000Y-59142500I0J90000D01*
G01*
X127328000Y-58864500D01*
G75*
G02*
X127418000Y-58774500I90000J0D01*
G01*
G37*
%TD*%
D15*
%TO.C,Q4*%
X140986000Y-35306000D03*
X142986000Y-34356000D03*
X142986000Y-36256000D03*
%TD*%
%TO.C,Q3*%
X140986000Y-30480000D03*
X142986000Y-29530000D03*
X142986000Y-31430000D03*
%TD*%
%TO.C,Q1*%
X130794000Y-59436000D03*
X128794000Y-60386000D03*
X128794000Y-58486000D03*
%TD*%
D16*
%TO.C,J2*%
X115805000Y-37794000D03*
X115805000Y-36994000D03*
X115805000Y-32094000D03*
X115805000Y-31294000D03*
X115805000Y-31294000D03*
X115805000Y-32094000D03*
X115805000Y-36994000D03*
X115805000Y-37794000D03*
D17*
X115805000Y-32794000D03*
X115805000Y-33294000D03*
X115805000Y-33794000D03*
X115805000Y-34794000D03*
X115805000Y-35294000D03*
X115805000Y-35794000D03*
X115805000Y-36294000D03*
X115805000Y-34294000D03*
%TD*%
%TO.C,D5*%
G36*
G01*
X136448500Y-34962000D02*
X136448500Y-35142000D01*
G75*
G02*
X136358500Y-35232000I-90000J0D01*
G01*
X136080500Y-35232000D01*
G75*
G02*
X135990500Y-35142000I0J90000D01*
G01*
X135990500Y-34962000D01*
G75*
G02*
X136080500Y-34872000I90000J0D01*
G01*
X136358500Y-34872000D01*
G75*
G02*
X136448500Y-34962000I0J-90000D01*
G01*
G37*
G36*
G01*
X137313500Y-34962000D02*
X137313500Y-35142000D01*
G75*
G02*
X137223500Y-35232000I-90000J0D01*
G01*
X136945500Y-35232000D01*
G75*
G02*
X136855500Y-35142000I0J90000D01*
G01*
X136855500Y-34962000D01*
G75*
G02*
X136945500Y-34872000I90000J0D01*
G01*
X137223500Y-34872000D01*
G75*
G02*
X137313500Y-34962000I0J-90000D01*
G01*
G37*
%TD*%
%TO.C,D4*%
G36*
G01*
X136448500Y-31914000D02*
X136448500Y-32094000D01*
G75*
G02*
X136358500Y-32184000I-90000J0D01*
G01*
X136080500Y-32184000D01*
G75*
G02*
X135990500Y-32094000I0J90000D01*
G01*
X135990500Y-31914000D01*
G75*
G02*
X136080500Y-31824000I90000J0D01*
G01*
X136358500Y-31824000D01*
G75*
G02*
X136448500Y-31914000I0J-90000D01*
G01*
G37*
G36*
G01*
X137313500Y-31914000D02*
X137313500Y-32094000D01*
G75*
G02*
X137223500Y-32184000I-90000J0D01*
G01*
X136945500Y-32184000D01*
G75*
G02*
X136855500Y-32094000I0J90000D01*
G01*
X136855500Y-31914000D01*
G75*
G02*
X136945500Y-31824000I90000J0D01*
G01*
X137223500Y-31824000D01*
G75*
G02*
X137313500Y-31914000I0J-90000D01*
G01*
G37*
%TD*%
%TO.C,D3*%
G36*
G01*
X136448500Y-28612000D02*
X136448500Y-28792000D01*
G75*
G02*
X136358500Y-28882000I-90000J0D01*
G01*
X136080500Y-28882000D01*
G75*
G02*
X135990500Y-28792000I0J90000D01*
G01*
X135990500Y-28612000D01*
G75*
G02*
X136080500Y-28522000I90000J0D01*
G01*
X136358500Y-28522000D01*
G75*
G02*
X136448500Y-28612000I0J-90000D01*
G01*
G37*
G36*
G01*
X137313500Y-28612000D02*
X137313500Y-28792000D01*
G75*
G02*
X137223500Y-28882000I-90000J0D01*
G01*
X136945500Y-28882000D01*
G75*
G02*
X136855500Y-28792000I0J90000D01*
G01*
X136855500Y-28612000D01*
G75*
G02*
X136945500Y-28522000I90000J0D01*
G01*
X137223500Y-28522000D01*
G75*
G02*
X137313500Y-28612000I0J-90000D01*
G01*
G37*
%TD*%
D18*
%TO.C,D2*%
X109284000Y-43434000D03*
X113284000Y-43434000D03*
%TD*%
%TO.C,D1*%
X116872000Y-43434000D03*
X120872000Y-43434000D03*
%TD*%
%TO.C,C7*%
G36*
G01*
X149027000Y-36846500D02*
X149027000Y-37321500D01*
G75*
G02*
X148789500Y-37559000I-237500J0D01*
G01*
X148189500Y-37559000D01*
G75*
G02*
X147952000Y-37321500I0J237500D01*
G01*
X147952000Y-36846500D01*
G75*
G02*
X148189500Y-36609000I237500J0D01*
G01*
X148789500Y-36609000D01*
G75*
G02*
X149027000Y-36846500I0J-237500D01*
G01*
G37*
G36*
G01*
X150752000Y-36846500D02*
X150752000Y-37321500D01*
G75*
G02*
X150514500Y-37559000I-237500J0D01*
G01*
X149914500Y-37559000D01*
G75*
G02*
X149677000Y-37321500I0J237500D01*
G01*
X149677000Y-36846500D01*
G75*
G02*
X149914500Y-36609000I237500J0D01*
G01*
X150514500Y-36609000D01*
G75*
G02*
X150752000Y-36846500I0J-237500D01*
G01*
G37*
%TD*%
%TO.C,C6*%
G36*
G01*
X128453000Y-28464500D02*
X128453000Y-28939500D01*
G75*
G02*
X128215500Y-29177000I-237500J0D01*
G01*
X127615500Y-29177000D01*
G75*
G02*
X127378000Y-28939500I0J237500D01*
G01*
X127378000Y-28464500D01*
G75*
G02*
X127615500Y-28227000I237500J0D01*
G01*
X128215500Y-28227000D01*
G75*
G02*
X128453000Y-28464500I0J-237500D01*
G01*
G37*
G36*
G01*
X130178000Y-28464500D02*
X130178000Y-28939500D01*
G75*
G02*
X129940500Y-29177000I-237500J0D01*
G01*
X129340500Y-29177000D01*
G75*
G02*
X129103000Y-28939500I0J237500D01*
G01*
X129103000Y-28464500D01*
G75*
G02*
X129340500Y-28227000I237500J0D01*
G01*
X129940500Y-28227000D01*
G75*
G02*
X130178000Y-28464500I0J-237500D01*
G01*
G37*
%TD*%
%TO.C,C5*%
G36*
G01*
X153386500Y-35543500D02*
X153386500Y-35068500D01*
G75*
G02*
X153624000Y-34831000I237500J0D01*
G01*
X154224000Y-34831000D01*
G75*
G02*
X154461500Y-35068500I0J-237500D01*
G01*
X154461500Y-35543500D01*
G75*
G02*
X154224000Y-35781000I-237500J0D01*
G01*
X153624000Y-35781000D01*
G75*
G02*
X153386500Y-35543500I0J237500D01*
G01*
G37*
G36*
G01*
X151661500Y-35543500D02*
X151661500Y-35068500D01*
G75*
G02*
X151899000Y-34831000I237500J0D01*
G01*
X152499000Y-34831000D01*
G75*
G02*
X152736500Y-35068500I0J-237500D01*
G01*
X152736500Y-35543500D01*
G75*
G02*
X152499000Y-35781000I-237500J0D01*
G01*
X151899000Y-35781000D01*
G75*
G02*
X151661500Y-35543500I0J237500D01*
G01*
G37*
%TD*%
%TO.C,C4*%
G36*
G01*
X153333500Y-37321500D02*
X153333500Y-36846500D01*
G75*
G02*
X153571000Y-36609000I237500J0D01*
G01*
X154171000Y-36609000D01*
G75*
G02*
X154408500Y-36846500I0J-237500D01*
G01*
X154408500Y-37321500D01*
G75*
G02*
X154171000Y-37559000I-237500J0D01*
G01*
X153571000Y-37559000D01*
G75*
G02*
X153333500Y-37321500I0J237500D01*
G01*
G37*
G36*
G01*
X151608500Y-37321500D02*
X151608500Y-36846500D01*
G75*
G02*
X151846000Y-36609000I237500J0D01*
G01*
X152446000Y-36609000D01*
G75*
G02*
X152683500Y-36846500I0J-237500D01*
G01*
X152683500Y-37321500D01*
G75*
G02*
X152446000Y-37559000I-237500J0D01*
G01*
X151846000Y-37559000D01*
G75*
G02*
X151608500Y-37321500I0J237500D01*
G01*
G37*
%TD*%
%TO.C,C3*%
G36*
G01*
X130984000Y-45622500D02*
X130509000Y-45622500D01*
G75*
G02*
X130271500Y-45385000I0J237500D01*
G01*
X130271500Y-44785000D01*
G75*
G02*
X130509000Y-44547500I237500J0D01*
G01*
X130984000Y-44547500D01*
G75*
G02*
X131221500Y-44785000I0J-237500D01*
G01*
X131221500Y-45385000D01*
G75*
G02*
X130984000Y-45622500I-237500J0D01*
G01*
G37*
G36*
G01*
X130984000Y-47347500D02*
X130509000Y-47347500D01*
G75*
G02*
X130271500Y-47110000I0J237500D01*
G01*
X130271500Y-46510000D01*
G75*
G02*
X130509000Y-46272500I237500J0D01*
G01*
X130984000Y-46272500D01*
G75*
G02*
X131221500Y-46510000I0J-237500D01*
G01*
X131221500Y-47110000D01*
G75*
G02*
X130984000Y-47347500I-237500J0D01*
G01*
G37*
%TD*%
%TO.C,C2*%
G36*
G01*
X129215000Y-52277000D02*
X129215000Y-52752000D01*
G75*
G02*
X128977500Y-52989500I-237500J0D01*
G01*
X128377500Y-52989500D01*
G75*
G02*
X128140000Y-52752000I0J237500D01*
G01*
X128140000Y-52277000D01*
G75*
G02*
X128377500Y-52039500I237500J0D01*
G01*
X128977500Y-52039500D01*
G75*
G02*
X129215000Y-52277000I0J-237500D01*
G01*
G37*
G36*
G01*
X130940000Y-52277000D02*
X130940000Y-52752000D01*
G75*
G02*
X130702500Y-52989500I-237500J0D01*
G01*
X130102500Y-52989500D01*
G75*
G02*
X129865000Y-52752000I0J237500D01*
G01*
X129865000Y-52277000D01*
G75*
G02*
X130102500Y-52039500I237500J0D01*
G01*
X130702500Y-52039500D01*
G75*
G02*
X130940000Y-52277000I0J-237500D01*
G01*
G37*
%TD*%
%TO.C,C1*%
G36*
G01*
X128761500Y-45649000D02*
X128286500Y-45649000D01*
G75*
G02*
X128049000Y-45411500I0J237500D01*
G01*
X128049000Y-44811500D01*
G75*
G02*
X128286500Y-44574000I237500J0D01*
G01*
X128761500Y-44574000D01*
G75*
G02*
X128999000Y-44811500I0J-237500D01*
G01*
X128999000Y-45411500D01*
G75*
G02*
X128761500Y-45649000I-237500J0D01*
G01*
G37*
G36*
G01*
X128761500Y-47374000D02*
X128286500Y-47374000D01*
G75*
G02*
X128049000Y-47136500I0J237500D01*
G01*
X128049000Y-46536500D01*
G75*
G02*
X128286500Y-46299000I237500J0D01*
G01*
X128761500Y-46299000D01*
G75*
G02*
X128999000Y-46536500I0J-237500D01*
G01*
X128999000Y-47136500D01*
G75*
G02*
X128761500Y-47374000I-237500J0D01*
G01*
G37*
%TD*%
M02*
