%TF.GenerationSoftware,KiCad,Pcbnew,5.1.10-88a1d61d58~90~ubuntu20.04.1*%
%TF.CreationDate,2021-11-06T01:12:53+01:00*%
%TF.ProjectId,e-meter-usb-c,652d6d65-7465-4722-9d75-73622d632e6b,rev?*%
%TF.SameCoordinates,Original*%
%TF.FileFunction,Copper,L1,Top*%
%TF.FilePolarity,Positive*%
%FSLAX46Y46*%
G04 Gerber Fmt 4.6, Leading zero omitted, Abs format (unit mm)*
G04 Created by KiCad (PCBNEW 5.1.10-88a1d61d58~90~ubuntu20.04.1) date 2021-11-06 01:12:53*
%MOMM*%
%LPD*%
G01*
G04 APERTURE LIST*
%TA.AperFunction,NonConductor*%
%ADD10C,0.250000*%
%TD*%
%TA.AperFunction,NonConductor*%
%ADD11C,0.300000*%
%TD*%
%TA.AperFunction,SMDPad,CuDef*%
%ADD12R,1.060000X0.650000*%
%TD*%
%TA.AperFunction,SMDPad,CuDef*%
%ADD13R,0.900000X2.000000*%
%TD*%
%TA.AperFunction,SMDPad,CuDef*%
%ADD14R,2.000000X0.900000*%
%TD*%
%TA.AperFunction,SMDPad,CuDef*%
%ADD15R,5.000000X5.000000*%
%TD*%
%TA.AperFunction,SMDPad,CuDef*%
%ADD16C,1.000000*%
%TD*%
%TA.AperFunction,SMDPad,CuDef*%
%ADD17R,2.350000X1.300000*%
%TD*%
%TA.AperFunction,SMDPad,CuDef*%
%ADD18R,0.900000X0.800000*%
%TD*%
%TA.AperFunction,SMDPad,CuDef*%
%ADD19R,1.450000X0.600000*%
%TD*%
%TA.AperFunction,SMDPad,CuDef*%
%ADD20R,1.450000X0.300000*%
%TD*%
%TA.AperFunction,ComponentPad*%
%ADD21O,2.100000X1.000000*%
%TD*%
%TA.AperFunction,ComponentPad*%
%ADD22O,1.600000X1.000000*%
%TD*%
%TA.AperFunction,ComponentPad*%
%ADD23R,1.520000X1.520000*%
%TD*%
%TA.AperFunction,ComponentPad*%
%ADD24C,1.520000*%
%TD*%
%TA.AperFunction,SMDPad,CuDef*%
%ADD25R,2.500000X1.800000*%
%TD*%
%TA.AperFunction,ViaPad*%
%ADD26C,0.800000*%
%TD*%
%TA.AperFunction,Conductor*%
%ADD27C,0.400000*%
%TD*%
%TA.AperFunction,Conductor*%
%ADD28C,0.250000*%
%TD*%
%TA.AperFunction,Conductor*%
%ADD29C,0.500000*%
%TD*%
G04 APERTURE END LIST*
D10*
X150977333Y-61064857D02*
X150977333Y-61922000D01*
X150924952Y-62093428D01*
X150820190Y-62207714D01*
X150663047Y-62264857D01*
X150558285Y-62264857D01*
X151972571Y-62264857D02*
X151972571Y-61636285D01*
X151920190Y-61522000D01*
X151815428Y-61464857D01*
X151605904Y-61464857D01*
X151501142Y-61522000D01*
X151972571Y-62207714D02*
X151867809Y-62264857D01*
X151605904Y-62264857D01*
X151501142Y-62207714D01*
X151448761Y-62093428D01*
X151448761Y-61979142D01*
X151501142Y-61864857D01*
X151605904Y-61807714D01*
X151867809Y-61807714D01*
X151972571Y-61750571D01*
X152496380Y-62264857D02*
X152496380Y-61064857D01*
X152601142Y-61807714D02*
X152915428Y-62264857D01*
X152915428Y-61464857D02*
X152496380Y-61922000D01*
X153544000Y-62264857D02*
X153439238Y-62207714D01*
X153386857Y-62150571D01*
X153334476Y-62036285D01*
X153334476Y-61693428D01*
X153386857Y-61579142D01*
X153439238Y-61522000D01*
X153544000Y-61464857D01*
X153701142Y-61464857D01*
X153805904Y-61522000D01*
X153858285Y-61579142D01*
X153910666Y-61693428D01*
X153910666Y-62036285D01*
X153858285Y-62150571D01*
X153805904Y-62207714D01*
X153701142Y-62264857D01*
X153544000Y-62264857D01*
X154382095Y-62264857D02*
X154382095Y-61064857D01*
X154382095Y-61522000D02*
X154486857Y-61464857D01*
X154696380Y-61464857D01*
X154801142Y-61522000D01*
X154853523Y-61579142D01*
X154905904Y-61693428D01*
X154905904Y-62036285D01*
X154853523Y-62150571D01*
X154801142Y-62207714D01*
X154696380Y-62264857D01*
X154486857Y-62264857D01*
X154382095Y-62207714D01*
X156844000Y-62264857D02*
X156477333Y-61693428D01*
X156215428Y-62264857D02*
X156215428Y-61064857D01*
X156634476Y-61064857D01*
X156739238Y-61122000D01*
X156791619Y-61179142D01*
X156844000Y-61293428D01*
X156844000Y-61464857D01*
X156791619Y-61579142D01*
X156739238Y-61636285D01*
X156634476Y-61693428D01*
X156215428Y-61693428D01*
X157786857Y-61464857D02*
X157786857Y-62264857D01*
X157315428Y-61464857D02*
X157315428Y-62093428D01*
X157367809Y-62207714D01*
X157472571Y-62264857D01*
X157629714Y-62264857D01*
X157734476Y-62207714D01*
X157786857Y-62150571D01*
X158310666Y-62264857D02*
X158310666Y-61064857D01*
X158782095Y-62264857D02*
X158782095Y-61636285D01*
X158729714Y-61522000D01*
X158624952Y-61464857D01*
X158467809Y-61464857D01*
X158363047Y-61522000D01*
X158310666Y-61579142D01*
X159724952Y-62207714D02*
X159620190Y-62264857D01*
X159410666Y-62264857D01*
X159305904Y-62207714D01*
X159253523Y-62093428D01*
X159253523Y-61636285D01*
X159305904Y-61522000D01*
X159410666Y-61464857D01*
X159620190Y-61464857D01*
X159724952Y-61522000D01*
X159777333Y-61636285D01*
X159777333Y-61750571D01*
X159253523Y-61864857D01*
D11*
X159174571Y-30285428D02*
X158460285Y-30785428D01*
X159174571Y-31142571D02*
X157674571Y-31142571D01*
X157674571Y-30571142D01*
X157746000Y-30428285D01*
X157817428Y-30356857D01*
X157960285Y-30285428D01*
X158174571Y-30285428D01*
X158317428Y-30356857D01*
X158388857Y-30428285D01*
X158460285Y-30571142D01*
X158460285Y-31142571D01*
X159103142Y-29714000D02*
X159174571Y-29499714D01*
X159174571Y-29142571D01*
X159103142Y-28999714D01*
X159031714Y-28928285D01*
X158888857Y-28856857D01*
X158746000Y-28856857D01*
X158603142Y-28928285D01*
X158531714Y-28999714D01*
X158460285Y-29142571D01*
X158388857Y-29428285D01*
X158317428Y-29571142D01*
X158246000Y-29642571D01*
X158103142Y-29714000D01*
X157960285Y-29714000D01*
X157817428Y-29642571D01*
X157746000Y-29571142D01*
X157674571Y-29428285D01*
X157674571Y-29071142D01*
X157746000Y-28856857D01*
X157674571Y-28428285D02*
X157674571Y-27571142D01*
X159174571Y-27999714D02*
X157674571Y-27999714D01*
X150863857Y-60486857D02*
X150863857Y-59286857D01*
X150863857Y-59858285D02*
X151549571Y-59858285D01*
X151549571Y-60486857D02*
X151549571Y-59286857D01*
X152063857Y-60144000D02*
X152635285Y-60144000D01*
X151949571Y-60486857D02*
X152349571Y-59286857D01*
X152749571Y-60486857D01*
X153149571Y-60486857D02*
X153149571Y-59286857D01*
X153835285Y-60486857D01*
X153835285Y-59286857D01*
X154406714Y-60486857D02*
X154406714Y-59686857D01*
X154406714Y-59286857D02*
X154349571Y-59344000D01*
X154406714Y-59401142D01*
X154463857Y-59344000D01*
X154406714Y-59286857D01*
X154406714Y-59401142D01*
X154806714Y-59686857D02*
X155263857Y-59686857D01*
X154978142Y-60486857D02*
X154978142Y-59458285D01*
X155035285Y-59344000D01*
X155149571Y-59286857D01*
X155263857Y-59286857D01*
X156463857Y-59686857D02*
X156749571Y-60486857D01*
X157035285Y-59686857D01*
X158121000Y-60486857D02*
X157435285Y-60486857D01*
X157778142Y-60486857D02*
X157778142Y-59286857D01*
X157663857Y-59458285D01*
X157549571Y-59572571D01*
X157435285Y-59629714D01*
X158635285Y-60372571D02*
X158692428Y-60429714D01*
X158635285Y-60486857D01*
X158578142Y-60429714D01*
X158635285Y-60372571D01*
X158635285Y-60486857D01*
X159435285Y-59286857D02*
X159549571Y-59286857D01*
X159663857Y-59344000D01*
X159721000Y-59401142D01*
X159778142Y-59515428D01*
X159835285Y-59744000D01*
X159835285Y-60029714D01*
X159778142Y-60258285D01*
X159721000Y-60372571D01*
X159663857Y-60429714D01*
X159549571Y-60486857D01*
X159435285Y-60486857D01*
X159321000Y-60429714D01*
X159263857Y-60372571D01*
X159206714Y-60258285D01*
X159149571Y-60029714D01*
X159149571Y-59744000D01*
X159206714Y-59515428D01*
X159263857Y-59401142D01*
X159321000Y-59344000D01*
X159435285Y-59286857D01*
X131088000Y-35222571D02*
X131088000Y-33722571D01*
X131945142Y-35222571D01*
X131945142Y-33722571D01*
X133230857Y-35151142D02*
X133088000Y-35222571D01*
X132802285Y-35222571D01*
X132659428Y-35151142D01*
X132588000Y-35008285D01*
X132588000Y-34436857D01*
X132659428Y-34294000D01*
X132802285Y-34222571D01*
X133088000Y-34222571D01*
X133230857Y-34294000D01*
X133302285Y-34436857D01*
X133302285Y-34579714D01*
X132588000Y-34722571D01*
X133730857Y-34222571D02*
X134302285Y-34222571D01*
X133945142Y-33722571D02*
X133945142Y-35008285D01*
X134016571Y-35151142D01*
X134159428Y-35222571D01*
X134302285Y-35222571D01*
X128893428Y-32174571D02*
X128893428Y-30674571D01*
X129393428Y-31746000D01*
X129893428Y-30674571D01*
X129893428Y-32174571D01*
X131179142Y-32103142D02*
X131036285Y-32174571D01*
X130750571Y-32174571D01*
X130607714Y-32103142D01*
X130536285Y-31960285D01*
X130536285Y-31388857D01*
X130607714Y-31246000D01*
X130750571Y-31174571D01*
X131036285Y-31174571D01*
X131179142Y-31246000D01*
X131250571Y-31388857D01*
X131250571Y-31531714D01*
X130536285Y-31674571D01*
X131679142Y-31174571D02*
X132250571Y-31174571D01*
X131893428Y-30674571D02*
X131893428Y-31960285D01*
X131964857Y-32103142D01*
X132107714Y-32174571D01*
X132250571Y-32174571D01*
X133322000Y-32103142D02*
X133179142Y-32174571D01*
X132893428Y-32174571D01*
X132750571Y-32103142D01*
X132679142Y-31960285D01*
X132679142Y-31388857D01*
X132750571Y-31246000D01*
X132893428Y-31174571D01*
X133179142Y-31174571D01*
X133322000Y-31246000D01*
X133393428Y-31388857D01*
X133393428Y-31531714D01*
X132679142Y-31674571D01*
X134036285Y-32174571D02*
X134036285Y-31174571D01*
X134036285Y-31460285D02*
X134107714Y-31317428D01*
X134179142Y-31246000D01*
X134322000Y-31174571D01*
X134464857Y-31174571D01*
X130945142Y-28872571D02*
X130945142Y-27372571D01*
X131516571Y-27372571D01*
X131659428Y-27444000D01*
X131730857Y-27515428D01*
X131802285Y-27658285D01*
X131802285Y-27872571D01*
X131730857Y-28015428D01*
X131659428Y-28086857D01*
X131516571Y-28158285D01*
X130945142Y-28158285D01*
X132302285Y-27872571D02*
X132588000Y-28872571D01*
X132873714Y-28158285D01*
X133159428Y-28872571D01*
X133445142Y-27872571D01*
X134016571Y-28872571D02*
X134016571Y-27872571D01*
X134016571Y-28158285D02*
X134088000Y-28015428D01*
X134159428Y-27944000D01*
X134302285Y-27872571D01*
X134445142Y-27872571D01*
%TO.P,U4,16*%
%TO.N,+3V3*%
%TA.AperFunction,SMDPad,CuDef*%
G36*
G01*
X124690000Y-28979000D02*
X124690000Y-28679000D01*
G75*
G02*
X124840000Y-28529000I150000J0D01*
G01*
X126490000Y-28529000D01*
G75*
G02*
X126640000Y-28679000I0J-150000D01*
G01*
X126640000Y-28979000D01*
G75*
G02*
X126490000Y-29129000I-150000J0D01*
G01*
X124840000Y-29129000D01*
G75*
G02*
X124690000Y-28979000I0J150000D01*
G01*
G37*
%TD.AperFunction*%
%TO.P,U4,15*%
%TO.N,Net-(U4-Pad15)*%
%TA.AperFunction,SMDPad,CuDef*%
G36*
G01*
X124690000Y-30249000D02*
X124690000Y-29949000D01*
G75*
G02*
X124840000Y-29799000I150000J0D01*
G01*
X126490000Y-29799000D01*
G75*
G02*
X126640000Y-29949000I0J-150000D01*
G01*
X126640000Y-30249000D01*
G75*
G02*
X126490000Y-30399000I-150000J0D01*
G01*
X124840000Y-30399000D01*
G75*
G02*
X124690000Y-30249000I0J150000D01*
G01*
G37*
%TD.AperFunction*%
%TO.P,U4,14*%
%TO.N,/UART_RTS*%
%TA.AperFunction,SMDPad,CuDef*%
G36*
G01*
X124690000Y-31519000D02*
X124690000Y-31219000D01*
G75*
G02*
X124840000Y-31069000I150000J0D01*
G01*
X126490000Y-31069000D01*
G75*
G02*
X126640000Y-31219000I0J-150000D01*
G01*
X126640000Y-31519000D01*
G75*
G02*
X126490000Y-31669000I-150000J0D01*
G01*
X124840000Y-31669000D01*
G75*
G02*
X124690000Y-31519000I0J150000D01*
G01*
G37*
%TD.AperFunction*%
%TO.P,U4,13*%
%TO.N,/UART_DTR*%
%TA.AperFunction,SMDPad,CuDef*%
G36*
G01*
X124690000Y-32789000D02*
X124690000Y-32489000D01*
G75*
G02*
X124840000Y-32339000I150000J0D01*
G01*
X126490000Y-32339000D01*
G75*
G02*
X126640000Y-32489000I0J-150000D01*
G01*
X126640000Y-32789000D01*
G75*
G02*
X126490000Y-32939000I-150000J0D01*
G01*
X124840000Y-32939000D01*
G75*
G02*
X124690000Y-32789000I0J150000D01*
G01*
G37*
%TD.AperFunction*%
%TO.P,U4,12*%
%TO.N,Net-(U4-Pad12)*%
%TA.AperFunction,SMDPad,CuDef*%
G36*
G01*
X124690000Y-34059000D02*
X124690000Y-33759000D01*
G75*
G02*
X124840000Y-33609000I150000J0D01*
G01*
X126490000Y-33609000D01*
G75*
G02*
X126640000Y-33759000I0J-150000D01*
G01*
X126640000Y-34059000D01*
G75*
G02*
X126490000Y-34209000I-150000J0D01*
G01*
X124840000Y-34209000D01*
G75*
G02*
X124690000Y-34059000I0J150000D01*
G01*
G37*
%TD.AperFunction*%
%TO.P,U4,11*%
%TO.N,Net-(U4-Pad11)*%
%TA.AperFunction,SMDPad,CuDef*%
G36*
G01*
X124690000Y-35329000D02*
X124690000Y-35029000D01*
G75*
G02*
X124840000Y-34879000I150000J0D01*
G01*
X126490000Y-34879000D01*
G75*
G02*
X126640000Y-35029000I0J-150000D01*
G01*
X126640000Y-35329000D01*
G75*
G02*
X126490000Y-35479000I-150000J0D01*
G01*
X124840000Y-35479000D01*
G75*
G02*
X124690000Y-35329000I0J150000D01*
G01*
G37*
%TD.AperFunction*%
%TO.P,U4,10*%
%TO.N,Net-(U4-Pad10)*%
%TA.AperFunction,SMDPad,CuDef*%
G36*
G01*
X124690000Y-36599000D02*
X124690000Y-36299000D01*
G75*
G02*
X124840000Y-36149000I150000J0D01*
G01*
X126490000Y-36149000D01*
G75*
G02*
X126640000Y-36299000I0J-150000D01*
G01*
X126640000Y-36599000D01*
G75*
G02*
X126490000Y-36749000I-150000J0D01*
G01*
X124840000Y-36749000D01*
G75*
G02*
X124690000Y-36599000I0J150000D01*
G01*
G37*
%TD.AperFunction*%
%TO.P,U4,9*%
%TO.N,Net-(U4-Pad9)*%
%TA.AperFunction,SMDPad,CuDef*%
G36*
G01*
X124690000Y-37869000D02*
X124690000Y-37569000D01*
G75*
G02*
X124840000Y-37419000I150000J0D01*
G01*
X126490000Y-37419000D01*
G75*
G02*
X126640000Y-37569000I0J-150000D01*
G01*
X126640000Y-37869000D01*
G75*
G02*
X126490000Y-38019000I-150000J0D01*
G01*
X124840000Y-38019000D01*
G75*
G02*
X124690000Y-37869000I0J150000D01*
G01*
G37*
%TD.AperFunction*%
%TO.P,U4,8*%
%TO.N,Net-(U4-Pad8)*%
%TA.AperFunction,SMDPad,CuDef*%
G36*
G01*
X119740000Y-37869000D02*
X119740000Y-37569000D01*
G75*
G02*
X119890000Y-37419000I150000J0D01*
G01*
X121540000Y-37419000D01*
G75*
G02*
X121690000Y-37569000I0J-150000D01*
G01*
X121690000Y-37869000D01*
G75*
G02*
X121540000Y-38019000I-150000J0D01*
G01*
X119890000Y-38019000D01*
G75*
G02*
X119740000Y-37869000I0J150000D01*
G01*
G37*
%TD.AperFunction*%
%TO.P,U4,7*%
%TO.N,Net-(U4-Pad7)*%
%TA.AperFunction,SMDPad,CuDef*%
G36*
G01*
X119740000Y-36599000D02*
X119740000Y-36299000D01*
G75*
G02*
X119890000Y-36149000I150000J0D01*
G01*
X121540000Y-36149000D01*
G75*
G02*
X121690000Y-36299000I0J-150000D01*
G01*
X121690000Y-36599000D01*
G75*
G02*
X121540000Y-36749000I-150000J0D01*
G01*
X119890000Y-36749000D01*
G75*
G02*
X119740000Y-36599000I0J150000D01*
G01*
G37*
%TD.AperFunction*%
%TO.P,U4,6*%
%TO.N,/USB_D-*%
%TA.AperFunction,SMDPad,CuDef*%
G36*
G01*
X119740000Y-35329000D02*
X119740000Y-35029000D01*
G75*
G02*
X119890000Y-34879000I150000J0D01*
G01*
X121540000Y-34879000D01*
G75*
G02*
X121690000Y-35029000I0J-150000D01*
G01*
X121690000Y-35329000D01*
G75*
G02*
X121540000Y-35479000I-150000J0D01*
G01*
X119890000Y-35479000D01*
G75*
G02*
X119740000Y-35329000I0J150000D01*
G01*
G37*
%TD.AperFunction*%
%TO.P,U4,5*%
%TO.N,/USB_D+*%
%TA.AperFunction,SMDPad,CuDef*%
G36*
G01*
X119740000Y-34059000D02*
X119740000Y-33759000D01*
G75*
G02*
X119890000Y-33609000I150000J0D01*
G01*
X121540000Y-33609000D01*
G75*
G02*
X121690000Y-33759000I0J-150000D01*
G01*
X121690000Y-34059000D01*
G75*
G02*
X121540000Y-34209000I-150000J0D01*
G01*
X119890000Y-34209000D01*
G75*
G02*
X119740000Y-34059000I0J150000D01*
G01*
G37*
%TD.AperFunction*%
%TO.P,U4,4*%
%TO.N,+3V3*%
%TA.AperFunction,SMDPad,CuDef*%
G36*
G01*
X119740000Y-32789000D02*
X119740000Y-32489000D01*
G75*
G02*
X119890000Y-32339000I150000J0D01*
G01*
X121540000Y-32339000D01*
G75*
G02*
X121690000Y-32489000I0J-150000D01*
G01*
X121690000Y-32789000D01*
G75*
G02*
X121540000Y-32939000I-150000J0D01*
G01*
X119890000Y-32939000D01*
G75*
G02*
X119740000Y-32789000I0J150000D01*
G01*
G37*
%TD.AperFunction*%
%TO.P,U4,3*%
%TO.N,/ESP_FROM_UART*%
%TA.AperFunction,SMDPad,CuDef*%
G36*
G01*
X119740000Y-31519000D02*
X119740000Y-31219000D01*
G75*
G02*
X119890000Y-31069000I150000J0D01*
G01*
X121540000Y-31069000D01*
G75*
G02*
X121690000Y-31219000I0J-150000D01*
G01*
X121690000Y-31519000D01*
G75*
G02*
X121540000Y-31669000I-150000J0D01*
G01*
X119890000Y-31669000D01*
G75*
G02*
X119740000Y-31519000I0J150000D01*
G01*
G37*
%TD.AperFunction*%
%TO.P,U4,2*%
%TO.N,/ESP_TO_UART*%
%TA.AperFunction,SMDPad,CuDef*%
G36*
G01*
X119740000Y-30249000D02*
X119740000Y-29949000D01*
G75*
G02*
X119890000Y-29799000I150000J0D01*
G01*
X121540000Y-29799000D01*
G75*
G02*
X121690000Y-29949000I0J-150000D01*
G01*
X121690000Y-30249000D01*
G75*
G02*
X121540000Y-30399000I-150000J0D01*
G01*
X119890000Y-30399000D01*
G75*
G02*
X119740000Y-30249000I0J150000D01*
G01*
G37*
%TD.AperFunction*%
%TO.P,U4,1*%
%TO.N,GND*%
%TA.AperFunction,SMDPad,CuDef*%
G36*
G01*
X119740000Y-28979000D02*
X119740000Y-28679000D01*
G75*
G02*
X119890000Y-28529000I150000J0D01*
G01*
X121540000Y-28529000D01*
G75*
G02*
X121690000Y-28679000I0J-150000D01*
G01*
X121690000Y-28979000D01*
G75*
G02*
X121540000Y-29129000I-150000J0D01*
G01*
X119890000Y-29129000D01*
G75*
G02*
X119740000Y-28979000I0J150000D01*
G01*
G37*
%TD.AperFunction*%
%TD*%
D12*
%TO.P,U1,5*%
%TO.N,+3V3*%
X130703500Y-48834000D03*
%TO.P,U1,4*%
%TO.N,Net-(C2-Pad1)*%
X130703500Y-50734000D03*
%TO.P,U1,3*%
%TO.N,VCC*%
X128503500Y-50734000D03*
%TO.P,U1,2*%
%TO.N,GND*%
X128503500Y-49784000D03*
%TO.P,U1,1*%
%TO.N,VCC*%
X128503500Y-48834000D03*
%TD*%
D13*
%TO.P,U2,38*%
%TO.N,GND*%
X153543000Y-56506000D03*
%TO.P,U2,37*%
%TO.N,Net-(U2-Pad37)*%
X152273000Y-56506000D03*
%TO.P,U2,36*%
%TO.N,Net-(U2-Pad36)*%
X151003000Y-56506000D03*
%TO.P,U2,35*%
%TO.N,/ESP_TO_UART*%
X149733000Y-56506000D03*
%TO.P,U2,34*%
%TO.N,/ESP_FROM_UART*%
X148463000Y-56506000D03*
%TO.P,U2,33*%
%TO.N,Net-(U2-Pad33)*%
X147193000Y-56506000D03*
%TO.P,U2,32*%
%TO.N,Net-(U2-Pad32)*%
X145923000Y-56506000D03*
%TO.P,U2,31*%
%TO.N,Net-(U2-Pad31)*%
X144653000Y-56506000D03*
%TO.P,U2,30*%
%TO.N,Net-(U2-Pad30)*%
X143383000Y-56506000D03*
%TO.P,U2,29*%
%TO.N,Net-(U2-Pad29)*%
X142113000Y-56506000D03*
%TO.P,U2,28*%
%TO.N,Net-(U2-Pad28)*%
X140843000Y-56506000D03*
%TO.P,U2,27*%
%TO.N,/HAN_TO_ESP*%
X139573000Y-56506000D03*
%TO.P,U2,26*%
%TO.N,Net-(U2-Pad26)*%
X138303000Y-56506000D03*
%TO.P,U2,25*%
%TO.N,/ESP_IO0*%
X137033000Y-56506000D03*
D14*
%TO.P,U2,24*%
%TO.N,Net-(U2-Pad24)*%
X136033000Y-53721000D03*
%TO.P,U2,23*%
%TO.N,Net-(U2-Pad23)*%
X136033000Y-52451000D03*
%TO.P,U2,22*%
%TO.N,Net-(U2-Pad22)*%
X136033000Y-51181000D03*
%TO.P,U2,21*%
%TO.N,Net-(U2-Pad21)*%
X136033000Y-49911000D03*
%TO.P,U2,20*%
%TO.N,Net-(U2-Pad20)*%
X136033000Y-48641000D03*
%TO.P,U2,19*%
%TO.N,Net-(U2-Pad19)*%
X136033000Y-47371000D03*
%TO.P,U2,18*%
%TO.N,Net-(U2-Pad18)*%
X136033000Y-46101000D03*
%TO.P,U2,17*%
%TO.N,Net-(U2-Pad17)*%
X136033000Y-44831000D03*
%TO.P,U2,16*%
%TO.N,/NETWORK_LED*%
X136033000Y-43561000D03*
%TO.P,U2,15*%
%TO.N,GND*%
X136033000Y-42291000D03*
D13*
%TO.P,U2,14*%
%TO.N,/METER_LED*%
X137033000Y-39506000D03*
%TO.P,U2,13*%
%TO.N,Net-(U2-Pad13)*%
X138303000Y-39506000D03*
%TO.P,U2,12*%
%TO.N,Net-(U2-Pad12)*%
X139573000Y-39506000D03*
%TO.P,U2,11*%
%TO.N,Net-(U2-Pad11)*%
X140843000Y-39506000D03*
%TO.P,U2,10*%
%TO.N,Net-(U2-Pad10)*%
X142113000Y-39506000D03*
%TO.P,U2,9*%
%TO.N,Net-(U2-Pad9)*%
X143383000Y-39506000D03*
%TO.P,U2,8*%
%TO.N,Net-(U2-Pad8)*%
X144653000Y-39506000D03*
%TO.P,U2,7*%
%TO.N,Net-(U2-Pad7)*%
X145923000Y-39506000D03*
%TO.P,U2,6*%
%TO.N,Net-(U2-Pad6)*%
X147193000Y-39506000D03*
%TO.P,U2,5*%
%TO.N,Net-(U2-Pad5)*%
X148463000Y-39506000D03*
%TO.P,U2,4*%
%TO.N,Net-(U2-Pad4)*%
X149733000Y-39506000D03*
%TO.P,U2,3*%
%TO.N,/ESP_EN*%
X151003000Y-39506000D03*
%TO.P,U2,2*%
%TO.N,+3V3*%
X152273000Y-39506000D03*
%TO.P,U2,1*%
%TO.N,GND*%
X153543000Y-39506000D03*
D15*
%TO.P,U2,39*%
X146043000Y-47006000D03*
%TD*%
D16*
%TO.P,TP7,1*%
%TO.N,/HAN_TO_ESP*%
X141351000Y-61341000D03*
%TD*%
%TO.P,TP6,1*%
%TO.N,/HAN_DATA*%
X133096000Y-61468000D03*
%TD*%
%TO.P,TP5,1*%
%TO.N,+3V3*%
X130810000Y-39624000D03*
%TD*%
%TO.P,TP4,1*%
%TO.N,/USB_VBUS*%
X112395000Y-27940000D03*
%TD*%
%TO.P,TP3,1*%
%TO.N,/HAN_DATA_REQ*%
X123698000Y-45974000D03*
%TD*%
%TO.P,TP2,1*%
%TO.N,VCC*%
X118618000Y-40005000D03*
%TD*%
%TO.P,TP1,1*%
%TO.N,GND*%
X117602000Y-27813000D03*
%TD*%
D17*
%TO.P,SW1,2*%
%TO.N,GND*%
X146374000Y-31841000D03*
%TO.P,SW1,1*%
%TO.N,/ESP_EN*%
X146374000Y-27341000D03*
X155124000Y-27341000D03*
%TO.P,SW1,2*%
%TO.N,GND*%
X155124000Y-31841000D03*
%TD*%
%TO.P,R11,2*%
%TO.N,/NETWORK_LED*%
%TA.AperFunction,SMDPad,CuDef*%
G36*
G01*
X136742000Y-34136000D02*
X136742000Y-33936000D01*
G75*
G02*
X136842000Y-33836000I100000J0D01*
G01*
X137277000Y-33836000D01*
G75*
G02*
X137377000Y-33936000I0J-100000D01*
G01*
X137377000Y-34136000D01*
G75*
G02*
X137277000Y-34236000I-100000J0D01*
G01*
X136842000Y-34236000D01*
G75*
G02*
X136742000Y-34136000I0J100000D01*
G01*
G37*
%TD.AperFunction*%
%TO.P,R11,1*%
%TO.N,Net-(D5-Pad2)*%
%TA.AperFunction,SMDPad,CuDef*%
G36*
G01*
X135927000Y-34136000D02*
X135927000Y-33936000D01*
G75*
G02*
X136027000Y-33836000I100000J0D01*
G01*
X136462000Y-33836000D01*
G75*
G02*
X136562000Y-33936000I0J-100000D01*
G01*
X136562000Y-34136000D01*
G75*
G02*
X136462000Y-34236000I-100000J0D01*
G01*
X136027000Y-34236000D01*
G75*
G02*
X135927000Y-34136000I0J100000D01*
G01*
G37*
%TD.AperFunction*%
%TD*%
%TO.P,R10,2*%
%TO.N,+3V3*%
%TA.AperFunction,SMDPad,CuDef*%
G36*
G01*
X150204000Y-35660000D02*
X150204000Y-35460000D01*
G75*
G02*
X150304000Y-35360000I100000J0D01*
G01*
X150739000Y-35360000D01*
G75*
G02*
X150839000Y-35460000I0J-100000D01*
G01*
X150839000Y-35660000D01*
G75*
G02*
X150739000Y-35760000I-100000J0D01*
G01*
X150304000Y-35760000D01*
G75*
G02*
X150204000Y-35660000I0J100000D01*
G01*
G37*
%TD.AperFunction*%
%TO.P,R10,1*%
%TO.N,/ESP_EN*%
%TA.AperFunction,SMDPad,CuDef*%
G36*
G01*
X149389000Y-35660000D02*
X149389000Y-35460000D01*
G75*
G02*
X149489000Y-35360000I100000J0D01*
G01*
X149924000Y-35360000D01*
G75*
G02*
X150024000Y-35460000I0J-100000D01*
G01*
X150024000Y-35660000D01*
G75*
G02*
X149924000Y-35760000I-100000J0D01*
G01*
X149489000Y-35760000D01*
G75*
G02*
X149389000Y-35660000I0J100000D01*
G01*
G37*
%TD.AperFunction*%
%TD*%
%TO.P,R9,2*%
%TO.N,GND*%
%TA.AperFunction,SMDPad,CuDef*%
G36*
G01*
X117756000Y-36766500D02*
X117956000Y-36766500D01*
G75*
G02*
X118056000Y-36866500I0J-100000D01*
G01*
X118056000Y-37301500D01*
G75*
G02*
X117956000Y-37401500I-100000J0D01*
G01*
X117756000Y-37401500D01*
G75*
G02*
X117656000Y-37301500I0J100000D01*
G01*
X117656000Y-36866500D01*
G75*
G02*
X117756000Y-36766500I100000J0D01*
G01*
G37*
%TD.AperFunction*%
%TO.P,R9,1*%
%TO.N,Net-(J2-PadB5)*%
%TA.AperFunction,SMDPad,CuDef*%
G36*
G01*
X117756000Y-35951500D02*
X117956000Y-35951500D01*
G75*
G02*
X118056000Y-36051500I0J-100000D01*
G01*
X118056000Y-36486500D01*
G75*
G02*
X117956000Y-36586500I-100000J0D01*
G01*
X117756000Y-36586500D01*
G75*
G02*
X117656000Y-36486500I0J100000D01*
G01*
X117656000Y-36051500D01*
G75*
G02*
X117756000Y-35951500I100000J0D01*
G01*
G37*
%TD.AperFunction*%
%TD*%
%TO.P,R8,2*%
%TO.N,GND*%
%TA.AperFunction,SMDPad,CuDef*%
G36*
G01*
X117956000Y-32676000D02*
X117756000Y-32676000D01*
G75*
G02*
X117656000Y-32576000I0J100000D01*
G01*
X117656000Y-32141000D01*
G75*
G02*
X117756000Y-32041000I100000J0D01*
G01*
X117956000Y-32041000D01*
G75*
G02*
X118056000Y-32141000I0J-100000D01*
G01*
X118056000Y-32576000D01*
G75*
G02*
X117956000Y-32676000I-100000J0D01*
G01*
G37*
%TD.AperFunction*%
%TO.P,R8,1*%
%TO.N,Net-(J2-PadA5)*%
%TA.AperFunction,SMDPad,CuDef*%
G36*
G01*
X117956000Y-33491000D02*
X117756000Y-33491000D01*
G75*
G02*
X117656000Y-33391000I0J100000D01*
G01*
X117656000Y-32956000D01*
G75*
G02*
X117756000Y-32856000I100000J0D01*
G01*
X117956000Y-32856000D01*
G75*
G02*
X118056000Y-32956000I0J-100000D01*
G01*
X118056000Y-33391000D01*
G75*
G02*
X117956000Y-33491000I-100000J0D01*
G01*
G37*
%TD.AperFunction*%
%TD*%
%TO.P,R7,2*%
%TO.N,/METER_LED*%
%TA.AperFunction,SMDPad,CuDef*%
G36*
G01*
X136742000Y-31088000D02*
X136742000Y-30888000D01*
G75*
G02*
X136842000Y-30788000I100000J0D01*
G01*
X137277000Y-30788000D01*
G75*
G02*
X137377000Y-30888000I0J-100000D01*
G01*
X137377000Y-31088000D01*
G75*
G02*
X137277000Y-31188000I-100000J0D01*
G01*
X136842000Y-31188000D01*
G75*
G02*
X136742000Y-31088000I0J100000D01*
G01*
G37*
%TD.AperFunction*%
%TO.P,R7,1*%
%TO.N,Net-(D4-Pad2)*%
%TA.AperFunction,SMDPad,CuDef*%
G36*
G01*
X135927000Y-31088000D02*
X135927000Y-30888000D01*
G75*
G02*
X136027000Y-30788000I100000J0D01*
G01*
X136462000Y-30788000D01*
G75*
G02*
X136562000Y-30888000I0J-100000D01*
G01*
X136562000Y-31088000D01*
G75*
G02*
X136462000Y-31188000I-100000J0D01*
G01*
X136027000Y-31188000D01*
G75*
G02*
X135927000Y-31088000I0J100000D01*
G01*
G37*
%TD.AperFunction*%
%TD*%
%TO.P,R6,2*%
%TO.N,/UART_RTS*%
%TA.AperFunction,SMDPad,CuDef*%
G36*
G01*
X141896000Y-32920000D02*
X141896000Y-33120000D01*
G75*
G02*
X141796000Y-33220000I-100000J0D01*
G01*
X141361000Y-33220000D01*
G75*
G02*
X141261000Y-33120000I0J100000D01*
G01*
X141261000Y-32920000D01*
G75*
G02*
X141361000Y-32820000I100000J0D01*
G01*
X141796000Y-32820000D01*
G75*
G02*
X141896000Y-32920000I0J-100000D01*
G01*
G37*
%TD.AperFunction*%
%TO.P,R6,1*%
%TO.N,Net-(Q4-Pad2)*%
%TA.AperFunction,SMDPad,CuDef*%
G36*
G01*
X142711000Y-32920000D02*
X142711000Y-33120000D01*
G75*
G02*
X142611000Y-33220000I-100000J0D01*
G01*
X142176000Y-33220000D01*
G75*
G02*
X142076000Y-33120000I0J100000D01*
G01*
X142076000Y-32920000D01*
G75*
G02*
X142176000Y-32820000I100000J0D01*
G01*
X142611000Y-32820000D01*
G75*
G02*
X142711000Y-32920000I0J-100000D01*
G01*
G37*
%TD.AperFunction*%
%TD*%
%TO.P,R5,2*%
%TO.N,/UART_DTR*%
%TA.AperFunction,SMDPad,CuDef*%
G36*
G01*
X141896000Y-28094000D02*
X141896000Y-28294000D01*
G75*
G02*
X141796000Y-28394000I-100000J0D01*
G01*
X141361000Y-28394000D01*
G75*
G02*
X141261000Y-28294000I0J100000D01*
G01*
X141261000Y-28094000D01*
G75*
G02*
X141361000Y-27994000I100000J0D01*
G01*
X141796000Y-27994000D01*
G75*
G02*
X141896000Y-28094000I0J-100000D01*
G01*
G37*
%TD.AperFunction*%
%TO.P,R5,1*%
%TO.N,Net-(Q3-Pad2)*%
%TA.AperFunction,SMDPad,CuDef*%
G36*
G01*
X142711000Y-28094000D02*
X142711000Y-28294000D01*
G75*
G02*
X142611000Y-28394000I-100000J0D01*
G01*
X142176000Y-28394000D01*
G75*
G02*
X142076000Y-28294000I0J100000D01*
G01*
X142076000Y-28094000D01*
G75*
G02*
X142176000Y-27994000I100000J0D01*
G01*
X142611000Y-27994000D01*
G75*
G02*
X142711000Y-28094000I0J-100000D01*
G01*
G37*
%TD.AperFunction*%
%TD*%
%TO.P,R4,2*%
%TO.N,+3V3*%
%TA.AperFunction,SMDPad,CuDef*%
G36*
G01*
X132180000Y-59346000D02*
X131980000Y-59346000D01*
G75*
G02*
X131880000Y-59246000I0J100000D01*
G01*
X131880000Y-58811000D01*
G75*
G02*
X131980000Y-58711000I100000J0D01*
G01*
X132180000Y-58711000D01*
G75*
G02*
X132280000Y-58811000I0J-100000D01*
G01*
X132280000Y-59246000D01*
G75*
G02*
X132180000Y-59346000I-100000J0D01*
G01*
G37*
%TD.AperFunction*%
%TO.P,R4,1*%
%TO.N,/HAN_TO_ESP*%
%TA.AperFunction,SMDPad,CuDef*%
G36*
G01*
X132180000Y-60161000D02*
X131980000Y-60161000D01*
G75*
G02*
X131880000Y-60061000I0J100000D01*
G01*
X131880000Y-59626000D01*
G75*
G02*
X131980000Y-59526000I100000J0D01*
G01*
X132180000Y-59526000D01*
G75*
G02*
X132280000Y-59626000I0J-100000D01*
G01*
X132280000Y-60061000D01*
G75*
G02*
X132180000Y-60161000I-100000J0D01*
G01*
G37*
%TD.AperFunction*%
%TD*%
%TO.P,R3,2*%
%TO.N,+3V3*%
%TA.AperFunction,SMDPad,CuDef*%
G36*
G01*
X136742000Y-27786000D02*
X136742000Y-27586000D01*
G75*
G02*
X136842000Y-27486000I100000J0D01*
G01*
X137277000Y-27486000D01*
G75*
G02*
X137377000Y-27586000I0J-100000D01*
G01*
X137377000Y-27786000D01*
G75*
G02*
X137277000Y-27886000I-100000J0D01*
G01*
X136842000Y-27886000D01*
G75*
G02*
X136742000Y-27786000I0J100000D01*
G01*
G37*
%TD.AperFunction*%
%TO.P,R3,1*%
%TO.N,Net-(D3-Pad2)*%
%TA.AperFunction,SMDPad,CuDef*%
G36*
G01*
X135927000Y-27786000D02*
X135927000Y-27586000D01*
G75*
G02*
X136027000Y-27486000I100000J0D01*
G01*
X136462000Y-27486000D01*
G75*
G02*
X136562000Y-27586000I0J-100000D01*
G01*
X136562000Y-27786000D01*
G75*
G02*
X136462000Y-27886000I-100000J0D01*
G01*
X136027000Y-27886000D01*
G75*
G02*
X135927000Y-27786000I0J100000D01*
G01*
G37*
%TD.AperFunction*%
%TD*%
%TO.P,R2,2*%
%TO.N,/HAN_DATA*%
%TA.AperFunction,SMDPad,CuDef*%
G36*
G01*
X127408000Y-59526000D02*
X127608000Y-59526000D01*
G75*
G02*
X127708000Y-59626000I0J-100000D01*
G01*
X127708000Y-60061000D01*
G75*
G02*
X127608000Y-60161000I-100000J0D01*
G01*
X127408000Y-60161000D01*
G75*
G02*
X127308000Y-60061000I0J100000D01*
G01*
X127308000Y-59626000D01*
G75*
G02*
X127408000Y-59526000I100000J0D01*
G01*
G37*
%TD.AperFunction*%
%TO.P,R2,1*%
%TO.N,+3V3*%
%TA.AperFunction,SMDPad,CuDef*%
G36*
G01*
X127408000Y-58711000D02*
X127608000Y-58711000D01*
G75*
G02*
X127708000Y-58811000I0J-100000D01*
G01*
X127708000Y-59246000D01*
G75*
G02*
X127608000Y-59346000I-100000J0D01*
G01*
X127408000Y-59346000D01*
G75*
G02*
X127308000Y-59246000I0J100000D01*
G01*
X127308000Y-58811000D01*
G75*
G02*
X127408000Y-58711000I100000J0D01*
G01*
G37*
%TD.AperFunction*%
%TD*%
D18*
%TO.P,Q4,3*%
%TO.N,/ESP_IO0*%
X140986000Y-35306000D03*
%TO.P,Q4,2*%
%TO.N,Net-(Q4-Pad2)*%
X142986000Y-34356000D03*
%TO.P,Q4,1*%
%TO.N,/UART_DTR*%
X142986000Y-36256000D03*
%TD*%
%TO.P,Q3,3*%
%TO.N,/ESP_EN*%
X140986000Y-30480000D03*
%TO.P,Q3,2*%
%TO.N,Net-(Q3-Pad2)*%
X142986000Y-29530000D03*
%TO.P,Q3,1*%
%TO.N,/UART_RTS*%
X142986000Y-31430000D03*
%TD*%
%TO.P,Q1,3*%
%TO.N,/HAN_TO_ESP*%
X130794000Y-59436000D03*
%TO.P,Q1,2*%
%TO.N,/HAN_DATA*%
X128794000Y-60386000D03*
%TO.P,Q1,1*%
%TO.N,GND*%
X128794000Y-58486000D03*
%TD*%
D19*
%TO.P,J2,B1*%
%TO.N,GND*%
X115805000Y-37794000D03*
%TO.P,J2,A9*%
%TO.N,/USB_VBUS*%
X115805000Y-36994000D03*
%TO.P,J2,B9*%
X115805000Y-32094000D03*
%TO.P,J2,B12*%
%TO.N,GND*%
X115805000Y-31294000D03*
%TO.P,J2,A1*%
X115805000Y-31294000D03*
%TO.P,J2,A4*%
%TO.N,/USB_VBUS*%
X115805000Y-32094000D03*
%TO.P,J2,B4*%
X115805000Y-36994000D03*
%TO.P,J2,A12*%
%TO.N,GND*%
X115805000Y-37794000D03*
D20*
%TO.P,J2,B8*%
%TO.N,Net-(J2-PadB8)*%
X115805000Y-32794000D03*
%TO.P,J2,A5*%
%TO.N,Net-(J2-PadA5)*%
X115805000Y-33294000D03*
%TO.P,J2,B7*%
%TO.N,/USB_D-*%
X115805000Y-33794000D03*
%TO.P,J2,A7*%
X115805000Y-34794000D03*
%TO.P,J2,B6*%
%TO.N,/USB_D+*%
X115805000Y-35294000D03*
%TO.P,J2,A8*%
%TO.N,Net-(J2-PadA8)*%
X115805000Y-35794000D03*
%TO.P,J2,B5*%
%TO.N,Net-(J2-PadB5)*%
X115805000Y-36294000D03*
%TO.P,J2,A6*%
%TO.N,/USB_D+*%
X115805000Y-34294000D03*
D21*
%TO.P,J2,S1*%
%TO.N,Net-(J2-PadS1)*%
X114890000Y-38864000D03*
X114890000Y-30224000D03*
D22*
X110710000Y-30224000D03*
X110710000Y-38864000D03*
%TD*%
D23*
%TO.P,J1,1*%
%TO.N,/HAN_DATA_REQ*%
X124968000Y-50800000D03*
D24*
%TO.P,J1,2*%
X122428000Y-52070000D03*
%TO.P,J1,3*%
%TO.N,GND*%
X124968000Y-53340000D03*
%TO.P,J1,4*%
%TO.N,Net-(J1-Pad4)*%
X122428000Y-54610000D03*
%TO.P,J1,5*%
%TO.N,/HAN_DATA*%
X124968000Y-55880000D03*
%TO.P,J1,6*%
%TO.N,GND*%
X122428000Y-57150000D03*
%TD*%
%TO.P,D5,2*%
%TO.N,Net-(D5-Pad2)*%
%TA.AperFunction,SMDPad,CuDef*%
G36*
G01*
X136562000Y-34952000D02*
X136562000Y-35152000D01*
G75*
G02*
X136462000Y-35252000I-100000J0D01*
G01*
X136027000Y-35252000D01*
G75*
G02*
X135927000Y-35152000I0J100000D01*
G01*
X135927000Y-34952000D01*
G75*
G02*
X136027000Y-34852000I100000J0D01*
G01*
X136462000Y-34852000D01*
G75*
G02*
X136562000Y-34952000I0J-100000D01*
G01*
G37*
%TD.AperFunction*%
%TO.P,D5,1*%
%TO.N,GND*%
%TA.AperFunction,SMDPad,CuDef*%
G36*
G01*
X137377000Y-34952000D02*
X137377000Y-35152000D01*
G75*
G02*
X137277000Y-35252000I-100000J0D01*
G01*
X136842000Y-35252000D01*
G75*
G02*
X136742000Y-35152000I0J100000D01*
G01*
X136742000Y-34952000D01*
G75*
G02*
X136842000Y-34852000I100000J0D01*
G01*
X137277000Y-34852000D01*
G75*
G02*
X137377000Y-34952000I0J-100000D01*
G01*
G37*
%TD.AperFunction*%
%TD*%
%TO.P,D4,2*%
%TO.N,Net-(D4-Pad2)*%
%TA.AperFunction,SMDPad,CuDef*%
G36*
G01*
X136562000Y-31904000D02*
X136562000Y-32104000D01*
G75*
G02*
X136462000Y-32204000I-100000J0D01*
G01*
X136027000Y-32204000D01*
G75*
G02*
X135927000Y-32104000I0J100000D01*
G01*
X135927000Y-31904000D01*
G75*
G02*
X136027000Y-31804000I100000J0D01*
G01*
X136462000Y-31804000D01*
G75*
G02*
X136562000Y-31904000I0J-100000D01*
G01*
G37*
%TD.AperFunction*%
%TO.P,D4,1*%
%TO.N,GND*%
%TA.AperFunction,SMDPad,CuDef*%
G36*
G01*
X137377000Y-31904000D02*
X137377000Y-32104000D01*
G75*
G02*
X137277000Y-32204000I-100000J0D01*
G01*
X136842000Y-32204000D01*
G75*
G02*
X136742000Y-32104000I0J100000D01*
G01*
X136742000Y-31904000D01*
G75*
G02*
X136842000Y-31804000I100000J0D01*
G01*
X137277000Y-31804000D01*
G75*
G02*
X137377000Y-31904000I0J-100000D01*
G01*
G37*
%TD.AperFunction*%
%TD*%
%TO.P,D3,2*%
%TO.N,Net-(D3-Pad2)*%
%TA.AperFunction,SMDPad,CuDef*%
G36*
G01*
X136562000Y-28602000D02*
X136562000Y-28802000D01*
G75*
G02*
X136462000Y-28902000I-100000J0D01*
G01*
X136027000Y-28902000D01*
G75*
G02*
X135927000Y-28802000I0J100000D01*
G01*
X135927000Y-28602000D01*
G75*
G02*
X136027000Y-28502000I100000J0D01*
G01*
X136462000Y-28502000D01*
G75*
G02*
X136562000Y-28602000I0J-100000D01*
G01*
G37*
%TD.AperFunction*%
%TO.P,D3,1*%
%TO.N,GND*%
%TA.AperFunction,SMDPad,CuDef*%
G36*
G01*
X137377000Y-28602000D02*
X137377000Y-28802000D01*
G75*
G02*
X137277000Y-28902000I-100000J0D01*
G01*
X136842000Y-28902000D01*
G75*
G02*
X136742000Y-28802000I0J100000D01*
G01*
X136742000Y-28602000D01*
G75*
G02*
X136842000Y-28502000I100000J0D01*
G01*
X137277000Y-28502000D01*
G75*
G02*
X137377000Y-28602000I0J-100000D01*
G01*
G37*
%TD.AperFunction*%
%TD*%
D25*
%TO.P,D2,2*%
%TO.N,/USB_VBUS*%
X109284000Y-43434000D03*
%TO.P,D2,1*%
%TO.N,VCC*%
X113284000Y-43434000D03*
%TD*%
%TO.P,D1,2*%
%TO.N,/HAN_DATA_REQ*%
X116872000Y-43434000D03*
%TO.P,D1,1*%
%TO.N,VCC*%
X120872000Y-43434000D03*
%TD*%
%TO.P,C7,2*%
%TO.N,GND*%
%TA.AperFunction,SMDPad,CuDef*%
G36*
G01*
X149027000Y-36846500D02*
X149027000Y-37321500D01*
G75*
G02*
X148789500Y-37559000I-237500J0D01*
G01*
X148189500Y-37559000D01*
G75*
G02*
X147952000Y-37321500I0J237500D01*
G01*
X147952000Y-36846500D01*
G75*
G02*
X148189500Y-36609000I237500J0D01*
G01*
X148789500Y-36609000D01*
G75*
G02*
X149027000Y-36846500I0J-237500D01*
G01*
G37*
%TD.AperFunction*%
%TO.P,C7,1*%
%TO.N,/ESP_EN*%
%TA.AperFunction,SMDPad,CuDef*%
G36*
G01*
X150752000Y-36846500D02*
X150752000Y-37321500D01*
G75*
G02*
X150514500Y-37559000I-237500J0D01*
G01*
X149914500Y-37559000D01*
G75*
G02*
X149677000Y-37321500I0J237500D01*
G01*
X149677000Y-36846500D01*
G75*
G02*
X149914500Y-36609000I237500J0D01*
G01*
X150514500Y-36609000D01*
G75*
G02*
X150752000Y-36846500I0J-237500D01*
G01*
G37*
%TD.AperFunction*%
%TD*%
%TO.P,C6,2*%
%TO.N,+3V3*%
%TA.AperFunction,SMDPad,CuDef*%
G36*
G01*
X128453000Y-28464500D02*
X128453000Y-28939500D01*
G75*
G02*
X128215500Y-29177000I-237500J0D01*
G01*
X127615500Y-29177000D01*
G75*
G02*
X127378000Y-28939500I0J237500D01*
G01*
X127378000Y-28464500D01*
G75*
G02*
X127615500Y-28227000I237500J0D01*
G01*
X128215500Y-28227000D01*
G75*
G02*
X128453000Y-28464500I0J-237500D01*
G01*
G37*
%TD.AperFunction*%
%TO.P,C6,1*%
%TO.N,GND*%
%TA.AperFunction,SMDPad,CuDef*%
G36*
G01*
X130178000Y-28464500D02*
X130178000Y-28939500D01*
G75*
G02*
X129940500Y-29177000I-237500J0D01*
G01*
X129340500Y-29177000D01*
G75*
G02*
X129103000Y-28939500I0J237500D01*
G01*
X129103000Y-28464500D01*
G75*
G02*
X129340500Y-28227000I237500J0D01*
G01*
X129940500Y-28227000D01*
G75*
G02*
X130178000Y-28464500I0J-237500D01*
G01*
G37*
%TD.AperFunction*%
%TD*%
%TO.P,C5,2*%
%TO.N,GND*%
%TA.AperFunction,SMDPad,CuDef*%
G36*
G01*
X153386500Y-35543500D02*
X153386500Y-35068500D01*
G75*
G02*
X153624000Y-34831000I237500J0D01*
G01*
X154224000Y-34831000D01*
G75*
G02*
X154461500Y-35068500I0J-237500D01*
G01*
X154461500Y-35543500D01*
G75*
G02*
X154224000Y-35781000I-237500J0D01*
G01*
X153624000Y-35781000D01*
G75*
G02*
X153386500Y-35543500I0J237500D01*
G01*
G37*
%TD.AperFunction*%
%TO.P,C5,1*%
%TO.N,+3V3*%
%TA.AperFunction,SMDPad,CuDef*%
G36*
G01*
X151661500Y-35543500D02*
X151661500Y-35068500D01*
G75*
G02*
X151899000Y-34831000I237500J0D01*
G01*
X152499000Y-34831000D01*
G75*
G02*
X152736500Y-35068500I0J-237500D01*
G01*
X152736500Y-35543500D01*
G75*
G02*
X152499000Y-35781000I-237500J0D01*
G01*
X151899000Y-35781000D01*
G75*
G02*
X151661500Y-35543500I0J237500D01*
G01*
G37*
%TD.AperFunction*%
%TD*%
%TO.P,C4,2*%
%TO.N,GND*%
%TA.AperFunction,SMDPad,CuDef*%
G36*
G01*
X153333500Y-37321500D02*
X153333500Y-36846500D01*
G75*
G02*
X153571000Y-36609000I237500J0D01*
G01*
X154171000Y-36609000D01*
G75*
G02*
X154408500Y-36846500I0J-237500D01*
G01*
X154408500Y-37321500D01*
G75*
G02*
X154171000Y-37559000I-237500J0D01*
G01*
X153571000Y-37559000D01*
G75*
G02*
X153333500Y-37321500I0J237500D01*
G01*
G37*
%TD.AperFunction*%
%TO.P,C4,1*%
%TO.N,+3V3*%
%TA.AperFunction,SMDPad,CuDef*%
G36*
G01*
X151608500Y-37321500D02*
X151608500Y-36846500D01*
G75*
G02*
X151846000Y-36609000I237500J0D01*
G01*
X152446000Y-36609000D01*
G75*
G02*
X152683500Y-36846500I0J-237500D01*
G01*
X152683500Y-37321500D01*
G75*
G02*
X152446000Y-37559000I-237500J0D01*
G01*
X151846000Y-37559000D01*
G75*
G02*
X151608500Y-37321500I0J237500D01*
G01*
G37*
%TD.AperFunction*%
%TD*%
%TO.P,C3,2*%
%TO.N,GND*%
%TA.AperFunction,SMDPad,CuDef*%
G36*
G01*
X130984000Y-45622500D02*
X130509000Y-45622500D01*
G75*
G02*
X130271500Y-45385000I0J237500D01*
G01*
X130271500Y-44785000D01*
G75*
G02*
X130509000Y-44547500I237500J0D01*
G01*
X130984000Y-44547500D01*
G75*
G02*
X131221500Y-44785000I0J-237500D01*
G01*
X131221500Y-45385000D01*
G75*
G02*
X130984000Y-45622500I-237500J0D01*
G01*
G37*
%TD.AperFunction*%
%TO.P,C3,1*%
%TO.N,+3V3*%
%TA.AperFunction,SMDPad,CuDef*%
G36*
G01*
X130984000Y-47347500D02*
X130509000Y-47347500D01*
G75*
G02*
X130271500Y-47110000I0J237500D01*
G01*
X130271500Y-46510000D01*
G75*
G02*
X130509000Y-46272500I237500J0D01*
G01*
X130984000Y-46272500D01*
G75*
G02*
X131221500Y-46510000I0J-237500D01*
G01*
X131221500Y-47110000D01*
G75*
G02*
X130984000Y-47347500I-237500J0D01*
G01*
G37*
%TD.AperFunction*%
%TD*%
%TO.P,C2,2*%
%TO.N,GND*%
%TA.AperFunction,SMDPad,CuDef*%
G36*
G01*
X129215000Y-52277000D02*
X129215000Y-52752000D01*
G75*
G02*
X128977500Y-52989500I-237500J0D01*
G01*
X128377500Y-52989500D01*
G75*
G02*
X128140000Y-52752000I0J237500D01*
G01*
X128140000Y-52277000D01*
G75*
G02*
X128377500Y-52039500I237500J0D01*
G01*
X128977500Y-52039500D01*
G75*
G02*
X129215000Y-52277000I0J-237500D01*
G01*
G37*
%TD.AperFunction*%
%TO.P,C2,1*%
%TO.N,Net-(C2-Pad1)*%
%TA.AperFunction,SMDPad,CuDef*%
G36*
G01*
X130940000Y-52277000D02*
X130940000Y-52752000D01*
G75*
G02*
X130702500Y-52989500I-237500J0D01*
G01*
X130102500Y-52989500D01*
G75*
G02*
X129865000Y-52752000I0J237500D01*
G01*
X129865000Y-52277000D01*
G75*
G02*
X130102500Y-52039500I237500J0D01*
G01*
X130702500Y-52039500D01*
G75*
G02*
X130940000Y-52277000I0J-237500D01*
G01*
G37*
%TD.AperFunction*%
%TD*%
%TO.P,C1,2*%
%TO.N,GND*%
%TA.AperFunction,SMDPad,CuDef*%
G36*
G01*
X128761500Y-45649000D02*
X128286500Y-45649000D01*
G75*
G02*
X128049000Y-45411500I0J237500D01*
G01*
X128049000Y-44811500D01*
G75*
G02*
X128286500Y-44574000I237500J0D01*
G01*
X128761500Y-44574000D01*
G75*
G02*
X128999000Y-44811500I0J-237500D01*
G01*
X128999000Y-45411500D01*
G75*
G02*
X128761500Y-45649000I-237500J0D01*
G01*
G37*
%TD.AperFunction*%
%TO.P,C1,1*%
%TO.N,VCC*%
%TA.AperFunction,SMDPad,CuDef*%
G36*
G01*
X128761500Y-47374000D02*
X128286500Y-47374000D01*
G75*
G02*
X128049000Y-47136500I0J237500D01*
G01*
X128049000Y-46536500D01*
G75*
G02*
X128286500Y-46299000I237500J0D01*
G01*
X128761500Y-46299000D01*
G75*
G02*
X128999000Y-46536500I0J-237500D01*
G01*
X128999000Y-47136500D01*
G75*
G02*
X128761500Y-47374000I-237500J0D01*
G01*
G37*
%TD.AperFunction*%
%TD*%
D26*
%TO.N,GND*%
X134493000Y-42291000D03*
X128841500Y-57340500D03*
X137160000Y-32766000D03*
X137160000Y-35814000D03*
X153543000Y-58293000D03*
X153924000Y-34036000D03*
X149352000Y-46990000D03*
X148336000Y-35560000D03*
X117856000Y-31496000D03*
X117856000Y-38100000D03*
X129794000Y-27432000D03*
X120650000Y-27686000D03*
X138430000Y-28702000D03*
X117856000Y-29083000D03*
X127381000Y-49784000D03*
X127571500Y-52514500D03*
X128524000Y-43942000D03*
X130746500Y-43942000D03*
%TO.N,+3V3*%
X134492999Y-41148000D03*
X132080000Y-44450000D03*
X132715000Y-41275000D03*
%TO.N,/ESP_EN*%
X144653000Y-27305000D03*
X152817000Y-27341000D03*
X141986000Y-30480000D03*
X144997000Y-30480000D03*
%TO.N,/HAN_TO_ESP*%
X139446000Y-60960000D03*
X139446000Y-57949000D03*
%TO.N,/ESP_IO0*%
X139700000Y-37592000D03*
X139700000Y-42164000D03*
%TD*%
D27*
%TO.N,GND*%
X123638001Y-54669999D02*
X124968000Y-53340000D01*
X122428000Y-57150000D02*
X123638001Y-55939999D01*
X123638001Y-55939999D02*
X123638001Y-54669999D01*
X116791500Y-31294000D02*
X117856000Y-32358500D01*
X115805000Y-31294000D02*
X116791500Y-31294000D01*
X117146000Y-37794000D02*
X117856000Y-37084000D01*
X115805000Y-37794000D02*
X117146000Y-37794000D01*
X136033000Y-42291000D02*
X134493000Y-42291000D01*
X128794000Y-58486000D02*
X128794000Y-57642000D01*
X128994000Y-57442000D02*
X129032000Y-57442000D01*
X128794000Y-57642000D02*
X128994000Y-57442000D01*
X137059500Y-32004000D02*
X137160000Y-32004000D01*
X137160000Y-32004000D02*
X137160000Y-32766000D01*
X137059500Y-35713500D02*
X137160000Y-35814000D01*
X137059500Y-35052000D02*
X137059500Y-35713500D01*
X153543000Y-56506000D02*
X153543000Y-58293000D01*
X153871000Y-39178000D02*
X153543000Y-39506000D01*
X153871000Y-37084000D02*
X153871000Y-39178000D01*
X153871000Y-35359000D02*
X153924000Y-35306000D01*
X153871000Y-37084000D02*
X153871000Y-35359000D01*
X153924000Y-35306000D02*
X153924000Y-34036000D01*
X149336000Y-47006000D02*
X149352000Y-46990000D01*
X146043000Y-47006000D02*
X149336000Y-47006000D01*
X148489500Y-35713500D02*
X148336000Y-35560000D01*
X148489500Y-37084000D02*
X148489500Y-35713500D01*
D28*
X115805000Y-37794000D02*
X117296000Y-37794000D01*
D27*
X117856000Y-32358500D02*
X117856000Y-31496000D01*
X117856000Y-37084000D02*
X117856000Y-38100000D01*
X129640500Y-27585500D02*
X129794000Y-27432000D01*
X129640500Y-28702000D02*
X129640500Y-27585500D01*
X120715000Y-27751000D02*
X120650000Y-27686000D01*
X120715000Y-28829000D02*
X120715000Y-27751000D01*
D28*
X117602000Y-28829000D02*
X117856000Y-29083000D01*
X117602000Y-27813000D02*
X117602000Y-28829000D01*
D27*
X128503500Y-49784000D02*
X127381000Y-49784000D01*
D28*
X128677500Y-52514500D02*
X127571500Y-52514500D01*
D27*
X126746000Y-53340000D02*
X127571500Y-52514500D01*
X124968000Y-53340000D02*
X126746000Y-53340000D01*
X128524000Y-45111500D02*
X128524000Y-43942000D01*
X130746500Y-45085000D02*
X130746500Y-44005500D01*
X137059500Y-28702000D02*
X138430000Y-28702000D01*
%TO.N,+3V3*%
X127508000Y-56642000D02*
X127762000Y-56388000D01*
X127508000Y-59028500D02*
X127508000Y-56642000D01*
X132080000Y-56896000D02*
X131572000Y-56388000D01*
X132080000Y-59028500D02*
X132080000Y-56896000D01*
X152273000Y-37211000D02*
X152146000Y-37084000D01*
X152273000Y-39506000D02*
X152273000Y-37211000D01*
X152146000Y-35359000D02*
X152199000Y-35306000D01*
X152146000Y-37084000D02*
X152146000Y-35359000D01*
X150775500Y-35306000D02*
X150521500Y-35560000D01*
X152199000Y-35306000D02*
X150775500Y-35306000D01*
X152273000Y-39506000D02*
X152273000Y-40767000D01*
X152273000Y-40767000D02*
X151892000Y-41148000D01*
X151892000Y-41148000D02*
X134492999Y-41148000D01*
X131572000Y-56388000D02*
X132080000Y-55880000D01*
X125792000Y-28702000D02*
X125665000Y-28829000D01*
X127915500Y-28702000D02*
X125792000Y-28702000D01*
X127915500Y-28702000D02*
X127915500Y-27278500D01*
X128562001Y-26631999D02*
X136359999Y-26631999D01*
X127915500Y-27278500D02*
X128562001Y-26631999D01*
X137059500Y-27331500D02*
X137059500Y-27686000D01*
X136359999Y-26631999D02*
X137059500Y-27331500D01*
X119595756Y-32639000D02*
X120715000Y-32639000D01*
X118889980Y-31933224D02*
X119595756Y-32639000D01*
X118889980Y-28901186D02*
X118889980Y-31933224D01*
X118872000Y-28883206D02*
X118889980Y-28901186D01*
X119672001Y-26885999D02*
X118872000Y-27686000D01*
X118872000Y-27686000D02*
X118872000Y-28883206D01*
X124421999Y-26885999D02*
X119672001Y-26885999D01*
X125665000Y-28129000D02*
X124421999Y-26885999D01*
X125665000Y-28829000D02*
X125665000Y-28129000D01*
X123952000Y-29567000D02*
X124690000Y-28829000D01*
X123952000Y-37758834D02*
X123952000Y-29567000D01*
X125817166Y-39624000D02*
X123952000Y-37758834D01*
X124690000Y-28829000D02*
X125665000Y-28829000D01*
X127762000Y-56388000D02*
X131572000Y-56388000D01*
X130746500Y-48791000D02*
X130703500Y-48834000D01*
X130746500Y-46810000D02*
X130746500Y-48791000D01*
X131252000Y-48834000D02*
X130703500Y-48834000D01*
X132080000Y-48006000D02*
X131252000Y-48834000D01*
X132080000Y-44450000D02*
X132080000Y-48006000D01*
X130703500Y-48834000D02*
X131384000Y-48834000D01*
X132080000Y-49530000D02*
X132080000Y-55880000D01*
X131384000Y-48834000D02*
X132080000Y-49530000D01*
X125817166Y-39624000D02*
X130810000Y-39624000D01*
X131064000Y-39624000D02*
X130810000Y-39624000D01*
X132715000Y-41275000D02*
X131064000Y-39624000D01*
D28*
%TO.N,/ESP_EN*%
X144689000Y-27341000D02*
X144653000Y-27305000D01*
X146374000Y-27341000D02*
X144689000Y-27341000D01*
X155124000Y-27341000D02*
X152817000Y-27341000D01*
X151003000Y-37872500D02*
X150214500Y-37084000D01*
X151003000Y-39506000D02*
X151003000Y-37872500D01*
X149706500Y-36576000D02*
X150214500Y-37084000D01*
X149706500Y-35560000D02*
X149706500Y-36576000D01*
X140986000Y-30480000D02*
X141986000Y-30480000D01*
X145013000Y-30480000D02*
X146374000Y-31841000D01*
X144997000Y-30480000D02*
X145013000Y-30480000D01*
X155124000Y-31841000D02*
X146374000Y-31841000D01*
X146374000Y-31841000D02*
X146395000Y-31841000D01*
X146395000Y-31841000D02*
X147828000Y-33274000D01*
X147828000Y-33274000D02*
X148844000Y-33274000D01*
X149706500Y-34136500D02*
X149706500Y-35560000D01*
X148844000Y-33274000D02*
X149706500Y-34136500D01*
D29*
%TO.N,/HAN_DATA_REQ*%
X124968000Y-50800000D02*
X124968000Y-46736000D01*
D28*
X123698000Y-52070000D02*
X124968000Y-50800000D01*
X122428000Y-52070000D02*
X123698000Y-52070000D01*
D27*
X124968000Y-46736000D02*
X124968000Y-46228000D01*
X124714000Y-45974000D02*
X123698000Y-45974000D01*
X124968000Y-46228000D02*
X124714000Y-45974000D01*
X116872000Y-44990000D02*
X116872000Y-43434000D01*
X117856000Y-45974000D02*
X116872000Y-44990000D01*
X123698000Y-45974000D02*
X117856000Y-45974000D01*
%TO.N,/USB_VBUS*%
X114993002Y-36994000D02*
X115805000Y-36994000D01*
X109220000Y-43370000D02*
X109284000Y-43434000D01*
X109220000Y-41656000D02*
X109220000Y-43370000D01*
X109728000Y-41148000D02*
X109220000Y-41656000D01*
X111760000Y-41148000D02*
X109728000Y-41148000D01*
X112776000Y-40132000D02*
X111760000Y-41148000D01*
X113538000Y-32766000D02*
X112776000Y-33528000D01*
X114321002Y-32766000D02*
X113538000Y-32766000D01*
X114993002Y-32094000D02*
X114321002Y-32766000D01*
X115805000Y-32094000D02*
X114993002Y-32094000D01*
X113913001Y-36708999D02*
X112776000Y-37846000D01*
X114993002Y-36994000D02*
X114708001Y-36708999D01*
X112776000Y-37846000D02*
X112776000Y-40132000D01*
X114708001Y-36708999D02*
X113913001Y-36708999D01*
X112776000Y-33528000D02*
X112776000Y-37846000D01*
D28*
X112395000Y-31623000D02*
X113538000Y-32766000D01*
X112395000Y-27940000D02*
X112395000Y-31623000D01*
D27*
%TO.N,Net-(D3-Pad2)*%
X136244500Y-27686000D02*
X136244500Y-28702000D01*
%TO.N,Net-(D4-Pad2)*%
X136244500Y-30988000D02*
X136244500Y-32004000D01*
%TO.N,Net-(D5-Pad2)*%
X136244500Y-34036000D02*
X136244500Y-35052000D01*
D28*
%TO.N,/HAN_DATA*%
X128794000Y-60386000D02*
X128458000Y-60386000D01*
X127915500Y-59843500D02*
X127508000Y-59843500D01*
X128458000Y-60386000D02*
X127915500Y-59843500D01*
X127508000Y-59843500D02*
X126137500Y-59843500D01*
X124968000Y-58674000D02*
X124968000Y-55880000D01*
X126137500Y-59843500D02*
X124968000Y-58674000D01*
X129876000Y-61468000D02*
X128794000Y-60386000D01*
X133096000Y-61468000D02*
X129876000Y-61468000D01*
%TO.N,Net-(J2-PadA5)*%
X117735500Y-33294000D02*
X117856000Y-33173500D01*
X115805000Y-33294000D02*
X117735500Y-33294000D01*
%TO.N,/USB_D-*%
X122015010Y-34853990D02*
X121690000Y-35179000D01*
X122015010Y-33562242D02*
X122015010Y-34853990D01*
X121690000Y-35179000D02*
X120715000Y-35179000D01*
X121736758Y-33283990D02*
X122015010Y-33562242D01*
X118733600Y-33283990D02*
X121736758Y-33283990D01*
X118201580Y-33816010D02*
X118733600Y-33283990D01*
X117579952Y-33816010D02*
X118201580Y-33816010D01*
X117557942Y-33794000D02*
X117579952Y-33816010D01*
X115805000Y-33794000D02*
X117557942Y-33794000D01*
X115805000Y-33794000D02*
X114820000Y-33794000D01*
X114820000Y-33794000D02*
X114578000Y-34036000D01*
X114578000Y-34036000D02*
X114578000Y-34520000D01*
X114852000Y-34794000D02*
X115805000Y-34794000D01*
X114578000Y-34520000D02*
X114852000Y-34794000D01*
%TO.N,/USB_D+*%
X115805000Y-34294000D02*
X118360000Y-34294000D01*
X118745000Y-33909000D02*
X120715000Y-33909000D01*
X118360000Y-34294000D02*
X118745000Y-33909000D01*
X115805000Y-35294000D02*
X117590000Y-35294000D01*
X117590000Y-35294000D02*
X118086000Y-34798000D01*
X118086000Y-34568000D02*
X118360000Y-34294000D01*
X118086000Y-34798000D02*
X118086000Y-34568000D01*
%TO.N,Net-(J2-PadB5)*%
X115830000Y-36269000D02*
X115805000Y-36294000D01*
X117856000Y-36269000D02*
X115830000Y-36269000D01*
%TO.N,/HAN_TO_ESP*%
X131201500Y-59843500D02*
X132080000Y-59843500D01*
X130794000Y-59436000D02*
X131201500Y-59843500D01*
X132080000Y-59843500D02*
X132995500Y-59843500D01*
X134112000Y-60960000D02*
X139446000Y-60960000D01*
X132995500Y-59843500D02*
X134112000Y-60960000D01*
X139446000Y-56633000D02*
X139573000Y-56506000D01*
X139446000Y-57949000D02*
X139446000Y-56633000D01*
X139827000Y-61341000D02*
X139446000Y-60960000D01*
X141351000Y-61341000D02*
X139827000Y-61341000D01*
%TO.N,Net-(Q3-Pad2)*%
X142393500Y-28194000D02*
X142748000Y-28194000D01*
X142986000Y-28432000D02*
X142986000Y-29530000D01*
X142748000Y-28194000D02*
X142986000Y-28432000D01*
%TO.N,/UART_RTS*%
X142986000Y-31430000D02*
X142052000Y-31430000D01*
X141578500Y-31903500D02*
X141578500Y-33020000D01*
X142052000Y-31430000D02*
X141578500Y-31903500D01*
X143637000Y-27432000D02*
X144272000Y-28067000D01*
X140589000Y-27432000D02*
X143637000Y-27432000D01*
X144272000Y-31242000D02*
X144084000Y-31430000D01*
X139573000Y-28448000D02*
X140589000Y-27432000D01*
X144272000Y-28067000D02*
X144272000Y-31242000D01*
X139573000Y-29083000D02*
X139573000Y-28448000D01*
X144084000Y-31430000D02*
X142986000Y-31430000D01*
X139153990Y-29502010D02*
X139573000Y-29083000D01*
X129374990Y-29502010D02*
X139153990Y-29502010D01*
X127508000Y-31369000D02*
X129374990Y-29502010D01*
X125665000Y-31369000D02*
X127508000Y-31369000D01*
%TO.N,Net-(Q4-Pad2)*%
X142393500Y-33020000D02*
X142748000Y-33020000D01*
X142986000Y-33258000D02*
X142986000Y-34356000D01*
X142748000Y-33020000D02*
X142986000Y-33258000D01*
%TO.N,/UART_DTR*%
X140716000Y-28194000D02*
X141578500Y-28194000D01*
X140081000Y-28829000D02*
X140716000Y-28194000D01*
X140081000Y-29591000D02*
X140081000Y-28829000D01*
X139446000Y-30226000D02*
X140081000Y-29591000D01*
X134939867Y-30668133D02*
X135382000Y-30226000D01*
X135382000Y-30226000D02*
X139446000Y-30226000D01*
X134939867Y-32319133D02*
X134939867Y-30668133D01*
X134366000Y-32893000D02*
X134939867Y-32319133D01*
X127889000Y-32893000D02*
X134366000Y-32893000D01*
X127635000Y-32639000D02*
X127889000Y-32893000D01*
X125665000Y-32639000D02*
X127635000Y-32639000D01*
X139700000Y-30480000D02*
X139446000Y-30226000D01*
X139700000Y-34036000D02*
X139700000Y-30480000D01*
X141532002Y-34417000D02*
X140081000Y-34417000D01*
X141986000Y-34870998D02*
X141532002Y-34417000D01*
X141986000Y-35687000D02*
X141986000Y-34870998D01*
X140081000Y-34417000D02*
X139700000Y-34036000D01*
X142555000Y-36256000D02*
X141986000Y-35687000D01*
X142986000Y-36256000D02*
X142555000Y-36256000D01*
D27*
%TO.N,/METER_LED*%
X137922000Y-30988000D02*
X137059500Y-30988000D01*
X138938000Y-32004000D02*
X137922000Y-30988000D01*
X138553989Y-37214011D02*
X138938000Y-36830000D01*
X137537989Y-37214011D02*
X138553989Y-37214011D01*
X137033000Y-37719000D02*
X137537989Y-37214011D01*
X138938000Y-36830000D02*
X138938000Y-32004000D01*
X137033000Y-39506000D02*
X137033000Y-37719000D01*
%TO.N,/NETWORK_LED*%
X138176000Y-36068000D02*
X138176000Y-34290000D01*
X137629999Y-36614001D02*
X138176000Y-36068000D01*
X134835999Y-36614001D02*
X137629999Y-36614001D01*
X133692999Y-37757001D02*
X134835999Y-36614001D01*
X133692999Y-42675001D02*
X133692999Y-37757001D01*
X138176000Y-34290000D02*
X137922000Y-34036000D01*
X134578998Y-43561000D02*
X133692999Y-42675001D01*
X137922000Y-34036000D02*
X137059500Y-34036000D01*
X136033000Y-43561000D02*
X134578998Y-43561000D01*
D28*
%TO.N,/ESP_TO_UART*%
X134366000Y-59944000D02*
X133350000Y-58928000D01*
X149098000Y-59944000D02*
X134366000Y-59944000D01*
X133350000Y-58928000D02*
X133350000Y-44450000D01*
X149733000Y-56506000D02*
X149733000Y-59309000D01*
X124460000Y-42418000D02*
X122465020Y-40423020D01*
X133350000Y-44450000D02*
X131318000Y-42418000D01*
X131318000Y-42418000D02*
X124460000Y-42418000D01*
X122465020Y-40423020D02*
X122465020Y-32742252D01*
X122465020Y-32742252D02*
X121716778Y-31994010D01*
X121716778Y-31994010D02*
X119693242Y-31994010D01*
X119740000Y-30099000D02*
X120715000Y-30099000D01*
X149733000Y-59309000D02*
X149098000Y-59944000D01*
X119693242Y-31994010D02*
X119414990Y-31715758D01*
X119414990Y-30424010D02*
X119740000Y-30099000D01*
X119414990Y-31715758D02*
X119414990Y-30424010D01*
%TO.N,/ESP_FROM_UART*%
X123190000Y-40132000D02*
X123190000Y-32004000D01*
X124714000Y-41656000D02*
X123190000Y-40132000D01*
X131572000Y-41656000D02*
X124714000Y-41656000D01*
X134506001Y-44590001D02*
X131572000Y-41656000D01*
X123190000Y-32004000D02*
X122555000Y-31369000D01*
X135128000Y-58674000D02*
X134506001Y-58052001D01*
X134506001Y-58052001D02*
X134506001Y-44590001D01*
X148082000Y-58674000D02*
X135128000Y-58674000D01*
X122555000Y-31369000D02*
X120715000Y-31369000D01*
X148463000Y-58293000D02*
X148082000Y-58674000D01*
X148463000Y-56506000D02*
X148463000Y-58293000D01*
%TO.N,/ESP_IO0*%
X140986000Y-35306000D02*
X139954000Y-35306000D01*
X139954000Y-35306000D02*
X139700000Y-35560000D01*
X139700000Y-35560000D02*
X139700000Y-37592000D01*
X139065000Y-54356000D02*
X139700000Y-53721000D01*
X138049000Y-54356000D02*
X139065000Y-54356000D01*
X137033000Y-55372000D02*
X138049000Y-54356000D01*
X139700000Y-53086000D02*
X139700000Y-42164000D01*
X139700000Y-53721000D02*
X139700000Y-53086000D01*
X137033000Y-56506000D02*
X137033000Y-55372000D01*
%TO.N,Net-(C2-Pad1)*%
X130703500Y-52213500D02*
X130402500Y-52514500D01*
X130703500Y-50734000D02*
X130703500Y-52213500D01*
D27*
%TO.N,VCC*%
X113284000Y-43434000D02*
X113284000Y-41656000D01*
X113284000Y-41656000D02*
X113792000Y-41148000D01*
X120396000Y-41148000D02*
X120904000Y-41656000D01*
X120872000Y-41688000D02*
X120872000Y-43434000D01*
X120904000Y-41656000D02*
X120872000Y-41688000D01*
D28*
X118618000Y-40005000D02*
X118618000Y-41021000D01*
D27*
X118745000Y-41148000D02*
X120396000Y-41148000D01*
D28*
X118618000Y-41021000D02*
X118745000Y-41148000D01*
D27*
X113792000Y-41148000D02*
X118745000Y-41148000D01*
X127317500Y-47648000D02*
X128503500Y-48834000D01*
X127317500Y-44640500D02*
X127317500Y-47648000D01*
X126111000Y-43434000D02*
X127317500Y-44640500D01*
X120872000Y-43434000D02*
X126111000Y-43434000D01*
X128524000Y-48813500D02*
X128503500Y-48834000D01*
X128524000Y-46836500D02*
X128524000Y-48813500D01*
D28*
X129283500Y-50734000D02*
X129540000Y-50477500D01*
X128503500Y-50734000D02*
X129283500Y-50734000D01*
X128993502Y-48834000D02*
X128503500Y-48834000D01*
X129540000Y-49380498D02*
X128993502Y-48834000D01*
X129540000Y-50477500D02*
X129540000Y-49380498D01*
%TD*%
M02*
