%TF.GenerationSoftware,KiCad,Pcbnew,5.1.10-88a1d61d58~90~ubuntu20.04.1*%
%TF.CreationDate,2021-11-06T01:12:53+01:00*%
%TF.ProjectId,e-meter-usb-c,652d6d65-7465-4722-9d75-73622d632e6b,rev?*%
%TF.SameCoordinates,Original*%
%TF.FileFunction,Legend,Top*%
%TF.FilePolarity,Positive*%
%FSLAX46Y46*%
G04 Gerber Fmt 4.6, Leading zero omitted, Abs format (unit mm)*
G04 Created by KiCad (PCBNEW 5.1.10-88a1d61d58~90~ubuntu20.04.1) date 2021-11-06 01:12:53*
%MOMM*%
%LPD*%
G01*
G04 APERTURE LIST*
%ADD10C,0.120000*%
%ADD11C,0.100000*%
%ADD12C,0.150000*%
%ADD13R,1.060000X0.650000*%
%ADD14R,0.900000X2.000000*%
%ADD15R,2.000000X0.900000*%
%ADD16R,5.000000X5.000000*%
%ADD17C,1.000000*%
%ADD18R,2.350000X1.300000*%
%ADD19R,0.900000X0.800000*%
%ADD20R,1.450000X0.600000*%
%ADD21R,1.450000X0.300000*%
%ADD22O,2.100000X1.000000*%
%ADD23C,0.650000*%
%ADD24O,1.600000X1.000000*%
%ADD25R,1.520000X1.520000*%
%ADD26C,3.250000*%
%ADD27C,1.520000*%
%ADD28R,2.500000X1.800000*%
G04 APERTURE END LIST*
D10*
%TO.C,U4*%
X123190000Y-28214000D02*
X119740000Y-28214000D01*
X123190000Y-28214000D02*
X125140000Y-28214000D01*
X123190000Y-38334000D02*
X121240000Y-38334000D01*
X123190000Y-38334000D02*
X125140000Y-38334000D01*
%TO.C,U1*%
X130503500Y-48174000D02*
X128053500Y-48174000D01*
X128703500Y-51394000D02*
X130503500Y-51394000D01*
%TO.C,U2*%
X154733000Y-38886000D02*
X154733000Y-38506000D01*
X161153000Y-38886000D02*
X154733000Y-38886000D01*
X161153000Y-57126000D02*
X154733000Y-57126000D01*
X161153000Y-38886000D02*
X161153000Y-57126000D01*
X135408000Y-57126000D02*
X135408000Y-56126000D01*
X136188000Y-57126000D02*
X135408000Y-57126000D01*
X135408000Y-38886000D02*
X135408000Y-39886000D01*
X136188000Y-38886000D02*
X135408000Y-38886000D01*
%TO.C,TP7*%
X142051000Y-61341000D02*
G75*
G03*
X142051000Y-61341000I-700000J0D01*
G01*
%TO.C,TP6*%
X133796000Y-61468000D02*
G75*
G03*
X133796000Y-61468000I-700000J0D01*
G01*
%TO.C,TP5*%
X131510000Y-39624000D02*
G75*
G03*
X131510000Y-39624000I-700000J0D01*
G01*
%TO.C,TP4*%
X113095000Y-27940000D02*
G75*
G03*
X113095000Y-27940000I-700000J0D01*
G01*
%TO.C,TP3*%
X124398000Y-45974000D02*
G75*
G03*
X124398000Y-45974000I-700000J0D01*
G01*
%TO.C,TP2*%
X119318000Y-40005000D02*
G75*
G03*
X119318000Y-40005000I-700000J0D01*
G01*
%TO.C,TP1*%
X118302000Y-27813000D02*
G75*
G03*
X118302000Y-27813000I-700000J0D01*
G01*
%TO.C,SW1*%
X147519000Y-32821000D02*
X153979000Y-32821000D01*
X147519000Y-28291000D02*
X147519000Y-30891000D01*
X147519000Y-26361000D02*
X153979000Y-26361000D01*
X153979000Y-28291000D02*
X153979000Y-30891000D01*
X147519000Y-26391000D02*
X147519000Y-26361000D01*
X147519000Y-32821000D02*
X147519000Y-32791000D01*
X153979000Y-32821000D02*
X153979000Y-32791000D01*
X153979000Y-26361000D02*
X153979000Y-26391000D01*
%TO.C,Q4*%
X141226000Y-33726000D02*
X142686000Y-33726000D01*
X141226000Y-36886000D02*
X143386000Y-36886000D01*
X141226000Y-36886000D02*
X141226000Y-35956000D01*
X141226000Y-33726000D02*
X141226000Y-34656000D01*
%TO.C,Q3*%
X141226000Y-28900000D02*
X142686000Y-28900000D01*
X141226000Y-32060000D02*
X143386000Y-32060000D01*
X141226000Y-32060000D02*
X141226000Y-31130000D01*
X141226000Y-28900000D02*
X141226000Y-29830000D01*
%TO.C,Q1*%
X130554000Y-61016000D02*
X129094000Y-61016000D01*
X130554000Y-57856000D02*
X128394000Y-57856000D01*
X130554000Y-57856000D02*
X130554000Y-58786000D01*
X130554000Y-61016000D02*
X130554000Y-60086000D01*
%TO.C,J2*%
X107860000Y-29844000D02*
X107860000Y-39244000D01*
X113660000Y-39244000D02*
X111660000Y-39244000D01*
X109760000Y-39244000D02*
X107860000Y-39244000D01*
X113660000Y-29844000D02*
X111660000Y-29844000D01*
X109760000Y-29844000D02*
X107860000Y-29844000D01*
%TO.C,J1*%
X126198000Y-47370000D02*
X126198000Y-60570000D01*
X126198000Y-60570000D02*
X117178000Y-60570000D01*
D11*
X108318000Y-60570000D02*
X108198000Y-60570000D01*
D10*
X108198000Y-60570000D02*
X114978000Y-60570000D01*
D11*
X108208000Y-60570000D02*
X108198000Y-60570000D01*
D10*
X108198000Y-60570000D02*
X108198000Y-47370000D01*
X108198000Y-47370000D02*
X114978000Y-47370000D01*
D11*
X117248000Y-47370000D02*
X117178000Y-47370000D01*
D10*
X117178000Y-47370000D02*
X126198000Y-47370000D01*
X124198000Y-46900000D02*
X125728000Y-46900000D01*
D11*
%TO.C,D5*%
X137737000Y-35052000D02*
G75*
G03*
X137737000Y-35052000I-50000J0D01*
G01*
%TO.C,D4*%
X137737000Y-32004000D02*
G75*
G03*
X137737000Y-32004000I-50000J0D01*
G01*
%TO.C,D3*%
X137737000Y-28702000D02*
G75*
G03*
X137737000Y-28702000I-50000J0D01*
G01*
D10*
%TO.C,D2*%
X114684000Y-45084000D02*
X109284000Y-45084000D01*
X114684000Y-41784000D02*
X109284000Y-41784000D01*
X114684000Y-45084000D02*
X114684000Y-41784000D01*
%TO.C,D1*%
X122272000Y-45084000D02*
X116872000Y-45084000D01*
X122272000Y-41784000D02*
X116872000Y-41784000D01*
X122272000Y-45084000D02*
X122272000Y-41784000D01*
%TO.C,C7*%
X149498267Y-36574000D02*
X149205733Y-36574000D01*
X149498267Y-37594000D02*
X149205733Y-37594000D01*
%TO.C,C6*%
X128924267Y-28192000D02*
X128631733Y-28192000D01*
X128924267Y-29212000D02*
X128631733Y-29212000D01*
%TO.C,C5*%
X152915233Y-35816000D02*
X153207767Y-35816000D01*
X152915233Y-34796000D02*
X153207767Y-34796000D01*
%TO.C,C4*%
X152862233Y-37594000D02*
X153154767Y-37594000D01*
X152862233Y-36574000D02*
X153154767Y-36574000D01*
%TO.C,C3*%
X131256500Y-46093767D02*
X131256500Y-45801233D01*
X130236500Y-46093767D02*
X130236500Y-45801233D01*
%TO.C,C2*%
X129686267Y-52004500D02*
X129393733Y-52004500D01*
X129686267Y-53024500D02*
X129393733Y-53024500D01*
%TO.C,C1*%
X129034000Y-46120267D02*
X129034000Y-45827733D01*
X128014000Y-46120267D02*
X128014000Y-45827733D01*
%TO.C,TP7*%
D12*
X142502095Y-60793380D02*
X143073523Y-60793380D01*
X142787809Y-61793380D02*
X142787809Y-60793380D01*
X143406857Y-61793380D02*
X143406857Y-60793380D01*
X143787809Y-60793380D01*
X143883047Y-60841000D01*
X143930666Y-60888619D01*
X143978285Y-60983857D01*
X143978285Y-61126714D01*
X143930666Y-61221952D01*
X143883047Y-61269571D01*
X143787809Y-61317190D01*
X143406857Y-61317190D01*
X144311619Y-60793380D02*
X144978285Y-60793380D01*
X144549714Y-61793380D01*
%TO.C,TP6*%
X134247095Y-61301380D02*
X134818523Y-61301380D01*
X134532809Y-62301380D02*
X134532809Y-61301380D01*
X135151857Y-62301380D02*
X135151857Y-61301380D01*
X135532809Y-61301380D01*
X135628047Y-61349000D01*
X135675666Y-61396619D01*
X135723285Y-61491857D01*
X135723285Y-61634714D01*
X135675666Y-61729952D01*
X135628047Y-61777571D01*
X135532809Y-61825190D01*
X135151857Y-61825190D01*
X136580428Y-61301380D02*
X136389952Y-61301380D01*
X136294714Y-61349000D01*
X136247095Y-61396619D01*
X136151857Y-61539476D01*
X136104238Y-61729952D01*
X136104238Y-62110904D01*
X136151857Y-62206142D01*
X136199476Y-62253761D01*
X136294714Y-62301380D01*
X136485190Y-62301380D01*
X136580428Y-62253761D01*
X136628047Y-62206142D01*
X136675666Y-62110904D01*
X136675666Y-61872809D01*
X136628047Y-61777571D01*
X136580428Y-61729952D01*
X136485190Y-61682333D01*
X136294714Y-61682333D01*
X136199476Y-61729952D01*
X136151857Y-61777571D01*
X136104238Y-61872809D01*
%TO.C,TP5*%
X129421095Y-37044380D02*
X129992523Y-37044380D01*
X129706809Y-38044380D02*
X129706809Y-37044380D01*
X130325857Y-38044380D02*
X130325857Y-37044380D01*
X130706809Y-37044380D01*
X130802047Y-37092000D01*
X130849666Y-37139619D01*
X130897285Y-37234857D01*
X130897285Y-37377714D01*
X130849666Y-37472952D01*
X130802047Y-37520571D01*
X130706809Y-37568190D01*
X130325857Y-37568190D01*
X131802047Y-37044380D02*
X131325857Y-37044380D01*
X131278238Y-37520571D01*
X131325857Y-37472952D01*
X131421095Y-37425333D01*
X131659190Y-37425333D01*
X131754428Y-37472952D01*
X131802047Y-37520571D01*
X131849666Y-37615809D01*
X131849666Y-37853904D01*
X131802047Y-37949142D01*
X131754428Y-37996761D01*
X131659190Y-38044380D01*
X131421095Y-38044380D01*
X131325857Y-37996761D01*
X131278238Y-37949142D01*
%TO.C,TP4*%
X108466095Y-27265380D02*
X109037523Y-27265380D01*
X108751809Y-28265380D02*
X108751809Y-27265380D01*
X109370857Y-28265380D02*
X109370857Y-27265380D01*
X109751809Y-27265380D01*
X109847047Y-27313000D01*
X109894666Y-27360619D01*
X109942285Y-27455857D01*
X109942285Y-27598714D01*
X109894666Y-27693952D01*
X109847047Y-27741571D01*
X109751809Y-27789190D01*
X109370857Y-27789190D01*
X110799428Y-27598714D02*
X110799428Y-28265380D01*
X110561333Y-27217761D02*
X110323238Y-27932047D01*
X110942285Y-27932047D01*
%TO.C,TP3*%
X122690095Y-43902380D02*
X123261523Y-43902380D01*
X122975809Y-44902380D02*
X122975809Y-43902380D01*
X123594857Y-44902380D02*
X123594857Y-43902380D01*
X123975809Y-43902380D01*
X124071047Y-43950000D01*
X124118666Y-43997619D01*
X124166285Y-44092857D01*
X124166285Y-44235714D01*
X124118666Y-44330952D01*
X124071047Y-44378571D01*
X123975809Y-44426190D01*
X123594857Y-44426190D01*
X124499619Y-43902380D02*
X125118666Y-43902380D01*
X124785333Y-44283333D01*
X124928190Y-44283333D01*
X125023428Y-44330952D01*
X125071047Y-44378571D01*
X125118666Y-44473809D01*
X125118666Y-44711904D01*
X125071047Y-44807142D01*
X125023428Y-44854761D01*
X124928190Y-44902380D01*
X124642476Y-44902380D01*
X124547238Y-44854761D01*
X124499619Y-44807142D01*
%TO.C,TP2*%
X119642095Y-39457380D02*
X120213523Y-39457380D01*
X119927809Y-40457380D02*
X119927809Y-39457380D01*
X120546857Y-40457380D02*
X120546857Y-39457380D01*
X120927809Y-39457380D01*
X121023047Y-39505000D01*
X121070666Y-39552619D01*
X121118285Y-39647857D01*
X121118285Y-39790714D01*
X121070666Y-39885952D01*
X121023047Y-39933571D01*
X120927809Y-39981190D01*
X120546857Y-39981190D01*
X121499238Y-39552619D02*
X121546857Y-39505000D01*
X121642095Y-39457380D01*
X121880190Y-39457380D01*
X121975428Y-39505000D01*
X122023047Y-39552619D01*
X122070666Y-39647857D01*
X122070666Y-39743095D01*
X122023047Y-39885952D01*
X121451619Y-40457380D01*
X122070666Y-40457380D01*
%TO.C,TP1*%
X114054095Y-27265380D02*
X114625523Y-27265380D01*
X114339809Y-28265380D02*
X114339809Y-27265380D01*
X114958857Y-28265380D02*
X114958857Y-27265380D01*
X115339809Y-27265380D01*
X115435047Y-27313000D01*
X115482666Y-27360619D01*
X115530285Y-27455857D01*
X115530285Y-27598714D01*
X115482666Y-27693952D01*
X115435047Y-27741571D01*
X115339809Y-27789190D01*
X114958857Y-27789190D01*
X116482666Y-28265380D02*
X115911238Y-28265380D01*
X116196952Y-28265380D02*
X116196952Y-27265380D01*
X116101714Y-27408238D01*
X116006476Y-27503476D01*
X115911238Y-27551095D01*
%TD*%
%LPC*%
%TO.C,U4*%
G36*
G01*
X124690000Y-28979000D02*
X124690000Y-28679000D01*
G75*
G02*
X124840000Y-28529000I150000J0D01*
G01*
X126490000Y-28529000D01*
G75*
G02*
X126640000Y-28679000I0J-150000D01*
G01*
X126640000Y-28979000D01*
G75*
G02*
X126490000Y-29129000I-150000J0D01*
G01*
X124840000Y-29129000D01*
G75*
G02*
X124690000Y-28979000I0J150000D01*
G01*
G37*
G36*
G01*
X124690000Y-30249000D02*
X124690000Y-29949000D01*
G75*
G02*
X124840000Y-29799000I150000J0D01*
G01*
X126490000Y-29799000D01*
G75*
G02*
X126640000Y-29949000I0J-150000D01*
G01*
X126640000Y-30249000D01*
G75*
G02*
X126490000Y-30399000I-150000J0D01*
G01*
X124840000Y-30399000D01*
G75*
G02*
X124690000Y-30249000I0J150000D01*
G01*
G37*
G36*
G01*
X124690000Y-31519000D02*
X124690000Y-31219000D01*
G75*
G02*
X124840000Y-31069000I150000J0D01*
G01*
X126490000Y-31069000D01*
G75*
G02*
X126640000Y-31219000I0J-150000D01*
G01*
X126640000Y-31519000D01*
G75*
G02*
X126490000Y-31669000I-150000J0D01*
G01*
X124840000Y-31669000D01*
G75*
G02*
X124690000Y-31519000I0J150000D01*
G01*
G37*
G36*
G01*
X124690000Y-32789000D02*
X124690000Y-32489000D01*
G75*
G02*
X124840000Y-32339000I150000J0D01*
G01*
X126490000Y-32339000D01*
G75*
G02*
X126640000Y-32489000I0J-150000D01*
G01*
X126640000Y-32789000D01*
G75*
G02*
X126490000Y-32939000I-150000J0D01*
G01*
X124840000Y-32939000D01*
G75*
G02*
X124690000Y-32789000I0J150000D01*
G01*
G37*
G36*
G01*
X124690000Y-34059000D02*
X124690000Y-33759000D01*
G75*
G02*
X124840000Y-33609000I150000J0D01*
G01*
X126490000Y-33609000D01*
G75*
G02*
X126640000Y-33759000I0J-150000D01*
G01*
X126640000Y-34059000D01*
G75*
G02*
X126490000Y-34209000I-150000J0D01*
G01*
X124840000Y-34209000D01*
G75*
G02*
X124690000Y-34059000I0J150000D01*
G01*
G37*
G36*
G01*
X124690000Y-35329000D02*
X124690000Y-35029000D01*
G75*
G02*
X124840000Y-34879000I150000J0D01*
G01*
X126490000Y-34879000D01*
G75*
G02*
X126640000Y-35029000I0J-150000D01*
G01*
X126640000Y-35329000D01*
G75*
G02*
X126490000Y-35479000I-150000J0D01*
G01*
X124840000Y-35479000D01*
G75*
G02*
X124690000Y-35329000I0J150000D01*
G01*
G37*
G36*
G01*
X124690000Y-36599000D02*
X124690000Y-36299000D01*
G75*
G02*
X124840000Y-36149000I150000J0D01*
G01*
X126490000Y-36149000D01*
G75*
G02*
X126640000Y-36299000I0J-150000D01*
G01*
X126640000Y-36599000D01*
G75*
G02*
X126490000Y-36749000I-150000J0D01*
G01*
X124840000Y-36749000D01*
G75*
G02*
X124690000Y-36599000I0J150000D01*
G01*
G37*
G36*
G01*
X124690000Y-37869000D02*
X124690000Y-37569000D01*
G75*
G02*
X124840000Y-37419000I150000J0D01*
G01*
X126490000Y-37419000D01*
G75*
G02*
X126640000Y-37569000I0J-150000D01*
G01*
X126640000Y-37869000D01*
G75*
G02*
X126490000Y-38019000I-150000J0D01*
G01*
X124840000Y-38019000D01*
G75*
G02*
X124690000Y-37869000I0J150000D01*
G01*
G37*
G36*
G01*
X119740000Y-37869000D02*
X119740000Y-37569000D01*
G75*
G02*
X119890000Y-37419000I150000J0D01*
G01*
X121540000Y-37419000D01*
G75*
G02*
X121690000Y-37569000I0J-150000D01*
G01*
X121690000Y-37869000D01*
G75*
G02*
X121540000Y-38019000I-150000J0D01*
G01*
X119890000Y-38019000D01*
G75*
G02*
X119740000Y-37869000I0J150000D01*
G01*
G37*
G36*
G01*
X119740000Y-36599000D02*
X119740000Y-36299000D01*
G75*
G02*
X119890000Y-36149000I150000J0D01*
G01*
X121540000Y-36149000D01*
G75*
G02*
X121690000Y-36299000I0J-150000D01*
G01*
X121690000Y-36599000D01*
G75*
G02*
X121540000Y-36749000I-150000J0D01*
G01*
X119890000Y-36749000D01*
G75*
G02*
X119740000Y-36599000I0J150000D01*
G01*
G37*
G36*
G01*
X119740000Y-35329000D02*
X119740000Y-35029000D01*
G75*
G02*
X119890000Y-34879000I150000J0D01*
G01*
X121540000Y-34879000D01*
G75*
G02*
X121690000Y-35029000I0J-150000D01*
G01*
X121690000Y-35329000D01*
G75*
G02*
X121540000Y-35479000I-150000J0D01*
G01*
X119890000Y-35479000D01*
G75*
G02*
X119740000Y-35329000I0J150000D01*
G01*
G37*
G36*
G01*
X119740000Y-34059000D02*
X119740000Y-33759000D01*
G75*
G02*
X119890000Y-33609000I150000J0D01*
G01*
X121540000Y-33609000D01*
G75*
G02*
X121690000Y-33759000I0J-150000D01*
G01*
X121690000Y-34059000D01*
G75*
G02*
X121540000Y-34209000I-150000J0D01*
G01*
X119890000Y-34209000D01*
G75*
G02*
X119740000Y-34059000I0J150000D01*
G01*
G37*
G36*
G01*
X119740000Y-32789000D02*
X119740000Y-32489000D01*
G75*
G02*
X119890000Y-32339000I150000J0D01*
G01*
X121540000Y-32339000D01*
G75*
G02*
X121690000Y-32489000I0J-150000D01*
G01*
X121690000Y-32789000D01*
G75*
G02*
X121540000Y-32939000I-150000J0D01*
G01*
X119890000Y-32939000D01*
G75*
G02*
X119740000Y-32789000I0J150000D01*
G01*
G37*
G36*
G01*
X119740000Y-31519000D02*
X119740000Y-31219000D01*
G75*
G02*
X119890000Y-31069000I150000J0D01*
G01*
X121540000Y-31069000D01*
G75*
G02*
X121690000Y-31219000I0J-150000D01*
G01*
X121690000Y-31519000D01*
G75*
G02*
X121540000Y-31669000I-150000J0D01*
G01*
X119890000Y-31669000D01*
G75*
G02*
X119740000Y-31519000I0J150000D01*
G01*
G37*
G36*
G01*
X119740000Y-30249000D02*
X119740000Y-29949000D01*
G75*
G02*
X119890000Y-29799000I150000J0D01*
G01*
X121540000Y-29799000D01*
G75*
G02*
X121690000Y-29949000I0J-150000D01*
G01*
X121690000Y-30249000D01*
G75*
G02*
X121540000Y-30399000I-150000J0D01*
G01*
X119890000Y-30399000D01*
G75*
G02*
X119740000Y-30249000I0J150000D01*
G01*
G37*
G36*
G01*
X119740000Y-28979000D02*
X119740000Y-28679000D01*
G75*
G02*
X119890000Y-28529000I150000J0D01*
G01*
X121540000Y-28529000D01*
G75*
G02*
X121690000Y-28679000I0J-150000D01*
G01*
X121690000Y-28979000D01*
G75*
G02*
X121540000Y-29129000I-150000J0D01*
G01*
X119890000Y-29129000D01*
G75*
G02*
X119740000Y-28979000I0J150000D01*
G01*
G37*
%TD*%
D13*
%TO.C,U1*%
X130703500Y-48834000D03*
X130703500Y-50734000D03*
X128503500Y-50734000D03*
X128503500Y-49784000D03*
X128503500Y-48834000D03*
%TD*%
D14*
%TO.C,U2*%
X153543000Y-56506000D03*
X152273000Y-56506000D03*
X151003000Y-56506000D03*
X149733000Y-56506000D03*
X148463000Y-56506000D03*
X147193000Y-56506000D03*
X145923000Y-56506000D03*
X144653000Y-56506000D03*
X143383000Y-56506000D03*
X142113000Y-56506000D03*
X140843000Y-56506000D03*
X139573000Y-56506000D03*
X138303000Y-56506000D03*
X137033000Y-56506000D03*
D15*
X136033000Y-53721000D03*
X136033000Y-52451000D03*
X136033000Y-51181000D03*
X136033000Y-49911000D03*
X136033000Y-48641000D03*
X136033000Y-47371000D03*
X136033000Y-46101000D03*
X136033000Y-44831000D03*
X136033000Y-43561000D03*
X136033000Y-42291000D03*
D14*
X137033000Y-39506000D03*
X138303000Y-39506000D03*
X139573000Y-39506000D03*
X140843000Y-39506000D03*
X142113000Y-39506000D03*
X143383000Y-39506000D03*
X144653000Y-39506000D03*
X145923000Y-39506000D03*
X147193000Y-39506000D03*
X148463000Y-39506000D03*
X149733000Y-39506000D03*
X151003000Y-39506000D03*
X152273000Y-39506000D03*
X153543000Y-39506000D03*
D16*
X146043000Y-47006000D03*
%TD*%
D17*
%TO.C,TP7*%
X141351000Y-61341000D03*
%TD*%
%TO.C,TP6*%
X133096000Y-61468000D03*
%TD*%
%TO.C,TP5*%
X130810000Y-39624000D03*
%TD*%
%TO.C,TP4*%
X112395000Y-27940000D03*
%TD*%
%TO.C,TP3*%
X123698000Y-45974000D03*
%TD*%
%TO.C,TP2*%
X118618000Y-40005000D03*
%TD*%
%TO.C,TP1*%
X117602000Y-27813000D03*
%TD*%
D18*
%TO.C,SW1*%
X146374000Y-31841000D03*
X146374000Y-27341000D03*
X155124000Y-27341000D03*
X155124000Y-31841000D03*
%TD*%
%TO.C,R11*%
G36*
G01*
X136742000Y-34136000D02*
X136742000Y-33936000D01*
G75*
G02*
X136842000Y-33836000I100000J0D01*
G01*
X137277000Y-33836000D01*
G75*
G02*
X137377000Y-33936000I0J-100000D01*
G01*
X137377000Y-34136000D01*
G75*
G02*
X137277000Y-34236000I-100000J0D01*
G01*
X136842000Y-34236000D01*
G75*
G02*
X136742000Y-34136000I0J100000D01*
G01*
G37*
G36*
G01*
X135927000Y-34136000D02*
X135927000Y-33936000D01*
G75*
G02*
X136027000Y-33836000I100000J0D01*
G01*
X136462000Y-33836000D01*
G75*
G02*
X136562000Y-33936000I0J-100000D01*
G01*
X136562000Y-34136000D01*
G75*
G02*
X136462000Y-34236000I-100000J0D01*
G01*
X136027000Y-34236000D01*
G75*
G02*
X135927000Y-34136000I0J100000D01*
G01*
G37*
%TD*%
%TO.C,R10*%
G36*
G01*
X150204000Y-35660000D02*
X150204000Y-35460000D01*
G75*
G02*
X150304000Y-35360000I100000J0D01*
G01*
X150739000Y-35360000D01*
G75*
G02*
X150839000Y-35460000I0J-100000D01*
G01*
X150839000Y-35660000D01*
G75*
G02*
X150739000Y-35760000I-100000J0D01*
G01*
X150304000Y-35760000D01*
G75*
G02*
X150204000Y-35660000I0J100000D01*
G01*
G37*
G36*
G01*
X149389000Y-35660000D02*
X149389000Y-35460000D01*
G75*
G02*
X149489000Y-35360000I100000J0D01*
G01*
X149924000Y-35360000D01*
G75*
G02*
X150024000Y-35460000I0J-100000D01*
G01*
X150024000Y-35660000D01*
G75*
G02*
X149924000Y-35760000I-100000J0D01*
G01*
X149489000Y-35760000D01*
G75*
G02*
X149389000Y-35660000I0J100000D01*
G01*
G37*
%TD*%
%TO.C,R9*%
G36*
G01*
X117756000Y-36766500D02*
X117956000Y-36766500D01*
G75*
G02*
X118056000Y-36866500I0J-100000D01*
G01*
X118056000Y-37301500D01*
G75*
G02*
X117956000Y-37401500I-100000J0D01*
G01*
X117756000Y-37401500D01*
G75*
G02*
X117656000Y-37301500I0J100000D01*
G01*
X117656000Y-36866500D01*
G75*
G02*
X117756000Y-36766500I100000J0D01*
G01*
G37*
G36*
G01*
X117756000Y-35951500D02*
X117956000Y-35951500D01*
G75*
G02*
X118056000Y-36051500I0J-100000D01*
G01*
X118056000Y-36486500D01*
G75*
G02*
X117956000Y-36586500I-100000J0D01*
G01*
X117756000Y-36586500D01*
G75*
G02*
X117656000Y-36486500I0J100000D01*
G01*
X117656000Y-36051500D01*
G75*
G02*
X117756000Y-35951500I100000J0D01*
G01*
G37*
%TD*%
%TO.C,R8*%
G36*
G01*
X117956000Y-32676000D02*
X117756000Y-32676000D01*
G75*
G02*
X117656000Y-32576000I0J100000D01*
G01*
X117656000Y-32141000D01*
G75*
G02*
X117756000Y-32041000I100000J0D01*
G01*
X117956000Y-32041000D01*
G75*
G02*
X118056000Y-32141000I0J-100000D01*
G01*
X118056000Y-32576000D01*
G75*
G02*
X117956000Y-32676000I-100000J0D01*
G01*
G37*
G36*
G01*
X117956000Y-33491000D02*
X117756000Y-33491000D01*
G75*
G02*
X117656000Y-33391000I0J100000D01*
G01*
X117656000Y-32956000D01*
G75*
G02*
X117756000Y-32856000I100000J0D01*
G01*
X117956000Y-32856000D01*
G75*
G02*
X118056000Y-32956000I0J-100000D01*
G01*
X118056000Y-33391000D01*
G75*
G02*
X117956000Y-33491000I-100000J0D01*
G01*
G37*
%TD*%
%TO.C,R7*%
G36*
G01*
X136742000Y-31088000D02*
X136742000Y-30888000D01*
G75*
G02*
X136842000Y-30788000I100000J0D01*
G01*
X137277000Y-30788000D01*
G75*
G02*
X137377000Y-30888000I0J-100000D01*
G01*
X137377000Y-31088000D01*
G75*
G02*
X137277000Y-31188000I-100000J0D01*
G01*
X136842000Y-31188000D01*
G75*
G02*
X136742000Y-31088000I0J100000D01*
G01*
G37*
G36*
G01*
X135927000Y-31088000D02*
X135927000Y-30888000D01*
G75*
G02*
X136027000Y-30788000I100000J0D01*
G01*
X136462000Y-30788000D01*
G75*
G02*
X136562000Y-30888000I0J-100000D01*
G01*
X136562000Y-31088000D01*
G75*
G02*
X136462000Y-31188000I-100000J0D01*
G01*
X136027000Y-31188000D01*
G75*
G02*
X135927000Y-31088000I0J100000D01*
G01*
G37*
%TD*%
%TO.C,R6*%
G36*
G01*
X141896000Y-32920000D02*
X141896000Y-33120000D01*
G75*
G02*
X141796000Y-33220000I-100000J0D01*
G01*
X141361000Y-33220000D01*
G75*
G02*
X141261000Y-33120000I0J100000D01*
G01*
X141261000Y-32920000D01*
G75*
G02*
X141361000Y-32820000I100000J0D01*
G01*
X141796000Y-32820000D01*
G75*
G02*
X141896000Y-32920000I0J-100000D01*
G01*
G37*
G36*
G01*
X142711000Y-32920000D02*
X142711000Y-33120000D01*
G75*
G02*
X142611000Y-33220000I-100000J0D01*
G01*
X142176000Y-33220000D01*
G75*
G02*
X142076000Y-33120000I0J100000D01*
G01*
X142076000Y-32920000D01*
G75*
G02*
X142176000Y-32820000I100000J0D01*
G01*
X142611000Y-32820000D01*
G75*
G02*
X142711000Y-32920000I0J-100000D01*
G01*
G37*
%TD*%
%TO.C,R5*%
G36*
G01*
X141896000Y-28094000D02*
X141896000Y-28294000D01*
G75*
G02*
X141796000Y-28394000I-100000J0D01*
G01*
X141361000Y-28394000D01*
G75*
G02*
X141261000Y-28294000I0J100000D01*
G01*
X141261000Y-28094000D01*
G75*
G02*
X141361000Y-27994000I100000J0D01*
G01*
X141796000Y-27994000D01*
G75*
G02*
X141896000Y-28094000I0J-100000D01*
G01*
G37*
G36*
G01*
X142711000Y-28094000D02*
X142711000Y-28294000D01*
G75*
G02*
X142611000Y-28394000I-100000J0D01*
G01*
X142176000Y-28394000D01*
G75*
G02*
X142076000Y-28294000I0J100000D01*
G01*
X142076000Y-28094000D01*
G75*
G02*
X142176000Y-27994000I100000J0D01*
G01*
X142611000Y-27994000D01*
G75*
G02*
X142711000Y-28094000I0J-100000D01*
G01*
G37*
%TD*%
%TO.C,R4*%
G36*
G01*
X132180000Y-59346000D02*
X131980000Y-59346000D01*
G75*
G02*
X131880000Y-59246000I0J100000D01*
G01*
X131880000Y-58811000D01*
G75*
G02*
X131980000Y-58711000I100000J0D01*
G01*
X132180000Y-58711000D01*
G75*
G02*
X132280000Y-58811000I0J-100000D01*
G01*
X132280000Y-59246000D01*
G75*
G02*
X132180000Y-59346000I-100000J0D01*
G01*
G37*
G36*
G01*
X132180000Y-60161000D02*
X131980000Y-60161000D01*
G75*
G02*
X131880000Y-60061000I0J100000D01*
G01*
X131880000Y-59626000D01*
G75*
G02*
X131980000Y-59526000I100000J0D01*
G01*
X132180000Y-59526000D01*
G75*
G02*
X132280000Y-59626000I0J-100000D01*
G01*
X132280000Y-60061000D01*
G75*
G02*
X132180000Y-60161000I-100000J0D01*
G01*
G37*
%TD*%
%TO.C,R3*%
G36*
G01*
X136742000Y-27786000D02*
X136742000Y-27586000D01*
G75*
G02*
X136842000Y-27486000I100000J0D01*
G01*
X137277000Y-27486000D01*
G75*
G02*
X137377000Y-27586000I0J-100000D01*
G01*
X137377000Y-27786000D01*
G75*
G02*
X137277000Y-27886000I-100000J0D01*
G01*
X136842000Y-27886000D01*
G75*
G02*
X136742000Y-27786000I0J100000D01*
G01*
G37*
G36*
G01*
X135927000Y-27786000D02*
X135927000Y-27586000D01*
G75*
G02*
X136027000Y-27486000I100000J0D01*
G01*
X136462000Y-27486000D01*
G75*
G02*
X136562000Y-27586000I0J-100000D01*
G01*
X136562000Y-27786000D01*
G75*
G02*
X136462000Y-27886000I-100000J0D01*
G01*
X136027000Y-27886000D01*
G75*
G02*
X135927000Y-27786000I0J100000D01*
G01*
G37*
%TD*%
%TO.C,R2*%
G36*
G01*
X127408000Y-59526000D02*
X127608000Y-59526000D01*
G75*
G02*
X127708000Y-59626000I0J-100000D01*
G01*
X127708000Y-60061000D01*
G75*
G02*
X127608000Y-60161000I-100000J0D01*
G01*
X127408000Y-60161000D01*
G75*
G02*
X127308000Y-60061000I0J100000D01*
G01*
X127308000Y-59626000D01*
G75*
G02*
X127408000Y-59526000I100000J0D01*
G01*
G37*
G36*
G01*
X127408000Y-58711000D02*
X127608000Y-58711000D01*
G75*
G02*
X127708000Y-58811000I0J-100000D01*
G01*
X127708000Y-59246000D01*
G75*
G02*
X127608000Y-59346000I-100000J0D01*
G01*
X127408000Y-59346000D01*
G75*
G02*
X127308000Y-59246000I0J100000D01*
G01*
X127308000Y-58811000D01*
G75*
G02*
X127408000Y-58711000I100000J0D01*
G01*
G37*
%TD*%
D19*
%TO.C,Q4*%
X140986000Y-35306000D03*
X142986000Y-34356000D03*
X142986000Y-36256000D03*
%TD*%
%TO.C,Q3*%
X140986000Y-30480000D03*
X142986000Y-29530000D03*
X142986000Y-31430000D03*
%TD*%
%TO.C,Q1*%
X130794000Y-59436000D03*
X128794000Y-60386000D03*
X128794000Y-58486000D03*
%TD*%
D20*
%TO.C,J2*%
X115805000Y-37794000D03*
X115805000Y-36994000D03*
X115805000Y-32094000D03*
X115805000Y-31294000D03*
X115805000Y-31294000D03*
X115805000Y-32094000D03*
X115805000Y-36994000D03*
X115805000Y-37794000D03*
D21*
X115805000Y-32794000D03*
X115805000Y-33294000D03*
X115805000Y-33794000D03*
X115805000Y-34794000D03*
X115805000Y-35294000D03*
X115805000Y-35794000D03*
X115805000Y-36294000D03*
X115805000Y-34294000D03*
D22*
X114890000Y-38864000D03*
X114890000Y-30224000D03*
D23*
X114360000Y-31654000D03*
D24*
X110710000Y-30224000D03*
D23*
X114360000Y-37434000D03*
D24*
X110710000Y-38864000D03*
%TD*%
D25*
%TO.C,J1*%
X124968000Y-50800000D03*
D26*
X116078000Y-48890000D03*
D27*
X122428000Y-52070000D03*
X124968000Y-53340000D03*
X122428000Y-54610000D03*
X124968000Y-55880000D03*
X122428000Y-57150000D03*
D26*
X116078000Y-59050000D03*
%TD*%
%TO.C,D5*%
G36*
G01*
X136562000Y-34952000D02*
X136562000Y-35152000D01*
G75*
G02*
X136462000Y-35252000I-100000J0D01*
G01*
X136027000Y-35252000D01*
G75*
G02*
X135927000Y-35152000I0J100000D01*
G01*
X135927000Y-34952000D01*
G75*
G02*
X136027000Y-34852000I100000J0D01*
G01*
X136462000Y-34852000D01*
G75*
G02*
X136562000Y-34952000I0J-100000D01*
G01*
G37*
G36*
G01*
X137377000Y-34952000D02*
X137377000Y-35152000D01*
G75*
G02*
X137277000Y-35252000I-100000J0D01*
G01*
X136842000Y-35252000D01*
G75*
G02*
X136742000Y-35152000I0J100000D01*
G01*
X136742000Y-34952000D01*
G75*
G02*
X136842000Y-34852000I100000J0D01*
G01*
X137277000Y-34852000D01*
G75*
G02*
X137377000Y-34952000I0J-100000D01*
G01*
G37*
%TD*%
%TO.C,D4*%
G36*
G01*
X136562000Y-31904000D02*
X136562000Y-32104000D01*
G75*
G02*
X136462000Y-32204000I-100000J0D01*
G01*
X136027000Y-32204000D01*
G75*
G02*
X135927000Y-32104000I0J100000D01*
G01*
X135927000Y-31904000D01*
G75*
G02*
X136027000Y-31804000I100000J0D01*
G01*
X136462000Y-31804000D01*
G75*
G02*
X136562000Y-31904000I0J-100000D01*
G01*
G37*
G36*
G01*
X137377000Y-31904000D02*
X137377000Y-32104000D01*
G75*
G02*
X137277000Y-32204000I-100000J0D01*
G01*
X136842000Y-32204000D01*
G75*
G02*
X136742000Y-32104000I0J100000D01*
G01*
X136742000Y-31904000D01*
G75*
G02*
X136842000Y-31804000I100000J0D01*
G01*
X137277000Y-31804000D01*
G75*
G02*
X137377000Y-31904000I0J-100000D01*
G01*
G37*
%TD*%
%TO.C,D3*%
G36*
G01*
X136562000Y-28602000D02*
X136562000Y-28802000D01*
G75*
G02*
X136462000Y-28902000I-100000J0D01*
G01*
X136027000Y-28902000D01*
G75*
G02*
X135927000Y-28802000I0J100000D01*
G01*
X135927000Y-28602000D01*
G75*
G02*
X136027000Y-28502000I100000J0D01*
G01*
X136462000Y-28502000D01*
G75*
G02*
X136562000Y-28602000I0J-100000D01*
G01*
G37*
G36*
G01*
X137377000Y-28602000D02*
X137377000Y-28802000D01*
G75*
G02*
X137277000Y-28902000I-100000J0D01*
G01*
X136842000Y-28902000D01*
G75*
G02*
X136742000Y-28802000I0J100000D01*
G01*
X136742000Y-28602000D01*
G75*
G02*
X136842000Y-28502000I100000J0D01*
G01*
X137277000Y-28502000D01*
G75*
G02*
X137377000Y-28602000I0J-100000D01*
G01*
G37*
%TD*%
D28*
%TO.C,D2*%
X109284000Y-43434000D03*
X113284000Y-43434000D03*
%TD*%
%TO.C,D1*%
X116872000Y-43434000D03*
X120872000Y-43434000D03*
%TD*%
%TO.C,C7*%
G36*
G01*
X149027000Y-36846500D02*
X149027000Y-37321500D01*
G75*
G02*
X148789500Y-37559000I-237500J0D01*
G01*
X148189500Y-37559000D01*
G75*
G02*
X147952000Y-37321500I0J237500D01*
G01*
X147952000Y-36846500D01*
G75*
G02*
X148189500Y-36609000I237500J0D01*
G01*
X148789500Y-36609000D01*
G75*
G02*
X149027000Y-36846500I0J-237500D01*
G01*
G37*
G36*
G01*
X150752000Y-36846500D02*
X150752000Y-37321500D01*
G75*
G02*
X150514500Y-37559000I-237500J0D01*
G01*
X149914500Y-37559000D01*
G75*
G02*
X149677000Y-37321500I0J237500D01*
G01*
X149677000Y-36846500D01*
G75*
G02*
X149914500Y-36609000I237500J0D01*
G01*
X150514500Y-36609000D01*
G75*
G02*
X150752000Y-36846500I0J-237500D01*
G01*
G37*
%TD*%
%TO.C,C6*%
G36*
G01*
X128453000Y-28464500D02*
X128453000Y-28939500D01*
G75*
G02*
X128215500Y-29177000I-237500J0D01*
G01*
X127615500Y-29177000D01*
G75*
G02*
X127378000Y-28939500I0J237500D01*
G01*
X127378000Y-28464500D01*
G75*
G02*
X127615500Y-28227000I237500J0D01*
G01*
X128215500Y-28227000D01*
G75*
G02*
X128453000Y-28464500I0J-237500D01*
G01*
G37*
G36*
G01*
X130178000Y-28464500D02*
X130178000Y-28939500D01*
G75*
G02*
X129940500Y-29177000I-237500J0D01*
G01*
X129340500Y-29177000D01*
G75*
G02*
X129103000Y-28939500I0J237500D01*
G01*
X129103000Y-28464500D01*
G75*
G02*
X129340500Y-28227000I237500J0D01*
G01*
X129940500Y-28227000D01*
G75*
G02*
X130178000Y-28464500I0J-237500D01*
G01*
G37*
%TD*%
%TO.C,C5*%
G36*
G01*
X153386500Y-35543500D02*
X153386500Y-35068500D01*
G75*
G02*
X153624000Y-34831000I237500J0D01*
G01*
X154224000Y-34831000D01*
G75*
G02*
X154461500Y-35068500I0J-237500D01*
G01*
X154461500Y-35543500D01*
G75*
G02*
X154224000Y-35781000I-237500J0D01*
G01*
X153624000Y-35781000D01*
G75*
G02*
X153386500Y-35543500I0J237500D01*
G01*
G37*
G36*
G01*
X151661500Y-35543500D02*
X151661500Y-35068500D01*
G75*
G02*
X151899000Y-34831000I237500J0D01*
G01*
X152499000Y-34831000D01*
G75*
G02*
X152736500Y-35068500I0J-237500D01*
G01*
X152736500Y-35543500D01*
G75*
G02*
X152499000Y-35781000I-237500J0D01*
G01*
X151899000Y-35781000D01*
G75*
G02*
X151661500Y-35543500I0J237500D01*
G01*
G37*
%TD*%
%TO.C,C4*%
G36*
G01*
X153333500Y-37321500D02*
X153333500Y-36846500D01*
G75*
G02*
X153571000Y-36609000I237500J0D01*
G01*
X154171000Y-36609000D01*
G75*
G02*
X154408500Y-36846500I0J-237500D01*
G01*
X154408500Y-37321500D01*
G75*
G02*
X154171000Y-37559000I-237500J0D01*
G01*
X153571000Y-37559000D01*
G75*
G02*
X153333500Y-37321500I0J237500D01*
G01*
G37*
G36*
G01*
X151608500Y-37321500D02*
X151608500Y-36846500D01*
G75*
G02*
X151846000Y-36609000I237500J0D01*
G01*
X152446000Y-36609000D01*
G75*
G02*
X152683500Y-36846500I0J-237500D01*
G01*
X152683500Y-37321500D01*
G75*
G02*
X152446000Y-37559000I-237500J0D01*
G01*
X151846000Y-37559000D01*
G75*
G02*
X151608500Y-37321500I0J237500D01*
G01*
G37*
%TD*%
%TO.C,C3*%
G36*
G01*
X130984000Y-45622500D02*
X130509000Y-45622500D01*
G75*
G02*
X130271500Y-45385000I0J237500D01*
G01*
X130271500Y-44785000D01*
G75*
G02*
X130509000Y-44547500I237500J0D01*
G01*
X130984000Y-44547500D01*
G75*
G02*
X131221500Y-44785000I0J-237500D01*
G01*
X131221500Y-45385000D01*
G75*
G02*
X130984000Y-45622500I-237500J0D01*
G01*
G37*
G36*
G01*
X130984000Y-47347500D02*
X130509000Y-47347500D01*
G75*
G02*
X130271500Y-47110000I0J237500D01*
G01*
X130271500Y-46510000D01*
G75*
G02*
X130509000Y-46272500I237500J0D01*
G01*
X130984000Y-46272500D01*
G75*
G02*
X131221500Y-46510000I0J-237500D01*
G01*
X131221500Y-47110000D01*
G75*
G02*
X130984000Y-47347500I-237500J0D01*
G01*
G37*
%TD*%
%TO.C,C2*%
G36*
G01*
X129215000Y-52277000D02*
X129215000Y-52752000D01*
G75*
G02*
X128977500Y-52989500I-237500J0D01*
G01*
X128377500Y-52989500D01*
G75*
G02*
X128140000Y-52752000I0J237500D01*
G01*
X128140000Y-52277000D01*
G75*
G02*
X128377500Y-52039500I237500J0D01*
G01*
X128977500Y-52039500D01*
G75*
G02*
X129215000Y-52277000I0J-237500D01*
G01*
G37*
G36*
G01*
X130940000Y-52277000D02*
X130940000Y-52752000D01*
G75*
G02*
X130702500Y-52989500I-237500J0D01*
G01*
X130102500Y-52989500D01*
G75*
G02*
X129865000Y-52752000I0J237500D01*
G01*
X129865000Y-52277000D01*
G75*
G02*
X130102500Y-52039500I237500J0D01*
G01*
X130702500Y-52039500D01*
G75*
G02*
X130940000Y-52277000I0J-237500D01*
G01*
G37*
%TD*%
%TO.C,C1*%
G36*
G01*
X128761500Y-45649000D02*
X128286500Y-45649000D01*
G75*
G02*
X128049000Y-45411500I0J237500D01*
G01*
X128049000Y-44811500D01*
G75*
G02*
X128286500Y-44574000I237500J0D01*
G01*
X128761500Y-44574000D01*
G75*
G02*
X128999000Y-44811500I0J-237500D01*
G01*
X128999000Y-45411500D01*
G75*
G02*
X128761500Y-45649000I-237500J0D01*
G01*
G37*
G36*
G01*
X128761500Y-47374000D02*
X128286500Y-47374000D01*
G75*
G02*
X128049000Y-47136500I0J237500D01*
G01*
X128049000Y-46536500D01*
G75*
G02*
X128286500Y-46299000I237500J0D01*
G01*
X128761500Y-46299000D01*
G75*
G02*
X128999000Y-46536500I0J-237500D01*
G01*
X128999000Y-47136500D01*
G75*
G02*
X128761500Y-47374000I-237500J0D01*
G01*
G37*
%TD*%
M02*
