%FSLAX45Y45*%
G04 Gerber Fmt 4.5, Leading zero omitted, Abs format (unit mm)*
G04 Created by KiCad (PCBNEW 5.1.10-88a1d61d58~90~ubuntu20.04.1) date 2021-11-06 01:14:22*
%MOMM*%
%LPD*%
G01*
G04 APERTURE LIST*
%TA.AperFunction,Profile*%
%ADD10C,0.100000*%
%TD*%
%ADD11C,0.200000*%
%ADD12C,0.300000*%
G04 APERTURE END LIST*
D10*
X10769600Y-6248400D02*
X10769600Y-6299200D01*
X16154400Y-6299200D02*
X16154400Y-6248400D01*
X16103600Y-6299200D02*
X16154400Y-6299200D01*
X16154400Y-2540000D02*
X16103600Y-2540000D01*
X10769600Y-2540000D02*
X10769600Y-6248400D01*
X16103600Y-2540000D02*
X10769600Y-2540000D01*
X16154400Y-6248400D02*
X16154400Y-2540000D01*
X10769600Y-6299200D02*
X16103600Y-6299200D01*
D11*
X11403500Y-3132900D02*
X11468500Y-3197900D01*
X11468500Y-3132900D02*
X11403500Y-3197900D01*
X11403500Y-3710900D02*
X11468500Y-3775900D01*
X11468500Y-3710900D02*
X11403500Y-3775900D01*
X11770300Y-4889000D02*
G75*
G03*
X11770300Y-4889000I-162500J0D01*
G01*
X11770300Y-5905000D02*
G75*
G03*
X11770300Y-5905000I-162500J0D01*
G01*
D12*
X11051028Y-6769914D02*
X11051028Y-6469914D01*
X11122457Y-6469914D01*
X11165314Y-6484200D01*
X11193886Y-6512771D01*
X11208171Y-6541343D01*
X11222457Y-6598486D01*
X11222457Y-6641343D01*
X11208171Y-6698486D01*
X11193886Y-6727057D01*
X11165314Y-6755629D01*
X11122457Y-6769914D01*
X11051028Y-6769914D01*
X11351028Y-6769914D02*
X11351028Y-6569914D01*
X11351028Y-6627057D02*
X11365314Y-6598486D01*
X11379600Y-6584200D01*
X11408171Y-6569914D01*
X11436743Y-6569914D01*
X11536743Y-6769914D02*
X11536743Y-6569914D01*
X11536743Y-6469914D02*
X11522457Y-6484200D01*
X11536743Y-6498486D01*
X11551028Y-6484200D01*
X11536743Y-6469914D01*
X11536743Y-6498486D01*
X11722457Y-6769914D02*
X11693886Y-6755629D01*
X11679600Y-6727057D01*
X11679600Y-6469914D01*
X11879600Y-6769914D02*
X11851028Y-6755629D01*
X11836743Y-6727057D01*
X11836743Y-6469914D01*
X12222457Y-6769914D02*
X12222457Y-6469914D01*
X12322457Y-6684200D01*
X12422457Y-6469914D01*
X12422457Y-6769914D01*
X12693886Y-6769914D02*
X12693886Y-6612771D01*
X12679600Y-6584200D01*
X12651028Y-6569914D01*
X12593886Y-6569914D01*
X12565314Y-6584200D01*
X12693886Y-6755629D02*
X12665314Y-6769914D01*
X12593886Y-6769914D01*
X12565314Y-6755629D01*
X12551028Y-6727057D01*
X12551028Y-6698486D01*
X12565314Y-6669914D01*
X12593886Y-6655629D01*
X12665314Y-6655629D01*
X12693886Y-6641343D01*
X12836743Y-6569914D02*
X12836743Y-6869914D01*
X12836743Y-6584200D02*
X12865314Y-6569914D01*
X12922457Y-6569914D01*
X12951028Y-6584200D01*
X12965314Y-6598486D01*
X12979600Y-6627057D01*
X12979600Y-6712771D01*
X12965314Y-6741343D01*
X12951028Y-6755629D01*
X12922457Y-6769914D01*
X12865314Y-6769914D01*
X12836743Y-6755629D01*
X13108171Y-6741343D02*
X13122457Y-6755629D01*
X13108171Y-6769914D01*
X13093886Y-6755629D01*
X13108171Y-6741343D01*
X13108171Y-6769914D01*
X13108171Y-6584200D02*
X13122457Y-6598486D01*
X13108171Y-6612771D01*
X13093886Y-6598486D01*
X13108171Y-6584200D01*
X13108171Y-6612771D01*
X10699600Y-7231700D02*
X10764600Y-7296700D01*
X10764600Y-7231700D02*
X10699600Y-7296700D01*
X11108171Y-7099914D02*
X11136743Y-7099914D01*
X11165314Y-7114200D01*
X11179600Y-7128486D01*
X11193886Y-7157057D01*
X11208171Y-7214200D01*
X11208171Y-7285629D01*
X11193886Y-7342771D01*
X11179600Y-7371343D01*
X11165314Y-7385629D01*
X11136743Y-7399914D01*
X11108171Y-7399914D01*
X11079600Y-7385629D01*
X11065314Y-7371343D01*
X11051028Y-7342771D01*
X11036743Y-7285629D01*
X11036743Y-7214200D01*
X11051028Y-7157057D01*
X11065314Y-7128486D01*
X11079600Y-7114200D01*
X11108171Y-7099914D01*
X11336743Y-7371343D02*
X11351028Y-7385629D01*
X11336743Y-7399914D01*
X11322457Y-7385629D01*
X11336743Y-7371343D01*
X11336743Y-7399914D01*
X11608171Y-7099914D02*
X11551028Y-7099914D01*
X11522457Y-7114200D01*
X11508171Y-7128486D01*
X11479600Y-7171343D01*
X11465314Y-7228486D01*
X11465314Y-7342771D01*
X11479600Y-7371343D01*
X11493886Y-7385629D01*
X11522457Y-7399914D01*
X11579600Y-7399914D01*
X11608171Y-7385629D01*
X11622457Y-7371343D01*
X11636743Y-7342771D01*
X11636743Y-7271343D01*
X11622457Y-7242771D01*
X11608171Y-7228486D01*
X11579600Y-7214200D01*
X11522457Y-7214200D01*
X11493886Y-7228486D01*
X11479600Y-7242771D01*
X11465314Y-7271343D01*
X11908171Y-7099914D02*
X11765314Y-7099914D01*
X11751028Y-7242771D01*
X11765314Y-7228486D01*
X11793886Y-7214200D01*
X11865314Y-7214200D01*
X11893886Y-7228486D01*
X11908171Y-7242771D01*
X11922457Y-7271343D01*
X11922457Y-7342771D01*
X11908171Y-7371343D01*
X11893886Y-7385629D01*
X11865314Y-7399914D01*
X11793886Y-7399914D01*
X11765314Y-7385629D01*
X11751028Y-7371343D01*
X12108171Y-7099914D02*
X12136743Y-7099914D01*
X12165314Y-7114200D01*
X12179600Y-7128486D01*
X12193886Y-7157057D01*
X12208171Y-7214200D01*
X12208171Y-7285629D01*
X12193886Y-7342771D01*
X12179600Y-7371343D01*
X12165314Y-7385629D01*
X12136743Y-7399914D01*
X12108171Y-7399914D01*
X12079600Y-7385629D01*
X12065314Y-7371343D01*
X12051028Y-7342771D01*
X12036743Y-7285629D01*
X12036743Y-7214200D01*
X12051028Y-7157057D01*
X12065314Y-7128486D01*
X12079600Y-7114200D01*
X12108171Y-7099914D01*
X12336743Y-7399914D02*
X12336743Y-7199914D01*
X12336743Y-7228486D02*
X12351028Y-7214200D01*
X12379600Y-7199914D01*
X12422457Y-7199914D01*
X12451028Y-7214200D01*
X12465314Y-7242771D01*
X12465314Y-7399914D01*
X12465314Y-7242771D02*
X12479600Y-7214200D01*
X12508171Y-7199914D01*
X12551028Y-7199914D01*
X12579600Y-7214200D01*
X12593886Y-7242771D01*
X12593886Y-7399914D01*
X12736743Y-7399914D02*
X12736743Y-7199914D01*
X12736743Y-7228486D02*
X12751028Y-7214200D01*
X12779600Y-7199914D01*
X12822457Y-7199914D01*
X12851028Y-7214200D01*
X12865314Y-7242771D01*
X12865314Y-7399914D01*
X12865314Y-7242771D02*
X12879600Y-7214200D01*
X12908171Y-7199914D01*
X12951028Y-7199914D01*
X12979600Y-7214200D01*
X12993886Y-7242771D01*
X12993886Y-7399914D01*
X13579600Y-7085629D02*
X13322457Y-7471343D01*
X13965314Y-7099914D02*
X13993886Y-7099914D01*
X14022457Y-7114200D01*
X14036743Y-7128486D01*
X14051028Y-7157057D01*
X14065314Y-7214200D01*
X14065314Y-7285629D01*
X14051028Y-7342771D01*
X14036743Y-7371343D01*
X14022457Y-7385629D01*
X13993886Y-7399914D01*
X13965314Y-7399914D01*
X13936743Y-7385629D01*
X13922457Y-7371343D01*
X13908171Y-7342771D01*
X13893886Y-7285629D01*
X13893886Y-7214200D01*
X13908171Y-7157057D01*
X13922457Y-7128486D01*
X13936743Y-7114200D01*
X13965314Y-7099914D01*
X14193886Y-7371343D02*
X14208171Y-7385629D01*
X14193886Y-7399914D01*
X14179600Y-7385629D01*
X14193886Y-7371343D01*
X14193886Y-7399914D01*
X14393886Y-7099914D02*
X14422457Y-7099914D01*
X14451028Y-7114200D01*
X14465314Y-7128486D01*
X14479600Y-7157057D01*
X14493886Y-7214200D01*
X14493886Y-7285629D01*
X14479600Y-7342771D01*
X14465314Y-7371343D01*
X14451028Y-7385629D01*
X14422457Y-7399914D01*
X14393886Y-7399914D01*
X14365314Y-7385629D01*
X14351028Y-7371343D01*
X14336743Y-7342771D01*
X14322457Y-7285629D01*
X14322457Y-7214200D01*
X14336743Y-7157057D01*
X14351028Y-7128486D01*
X14365314Y-7114200D01*
X14393886Y-7099914D01*
X14608171Y-7128486D02*
X14622457Y-7114200D01*
X14651028Y-7099914D01*
X14722457Y-7099914D01*
X14751028Y-7114200D01*
X14765314Y-7128486D01*
X14779600Y-7157057D01*
X14779600Y-7185629D01*
X14765314Y-7228486D01*
X14593886Y-7399914D01*
X14779600Y-7399914D01*
X15051028Y-7099914D02*
X14908171Y-7099914D01*
X14893886Y-7242771D01*
X14908171Y-7228486D01*
X14936743Y-7214200D01*
X15008171Y-7214200D01*
X15036743Y-7228486D01*
X15051028Y-7242771D01*
X15065314Y-7271343D01*
X15065314Y-7342771D01*
X15051028Y-7371343D01*
X15036743Y-7385629D01*
X15008171Y-7399914D01*
X14936743Y-7399914D01*
X14908171Y-7385629D01*
X14893886Y-7371343D01*
X15322457Y-7099914D02*
X15265314Y-7099914D01*
X15236743Y-7114200D01*
X15222457Y-7128486D01*
X15193886Y-7171343D01*
X15179600Y-7228486D01*
X15179600Y-7342771D01*
X15193886Y-7371343D01*
X15208171Y-7385629D01*
X15236743Y-7399914D01*
X15293886Y-7399914D01*
X15322457Y-7385629D01*
X15336743Y-7371343D01*
X15351028Y-7342771D01*
X15351028Y-7271343D01*
X15336743Y-7242771D01*
X15322457Y-7228486D01*
X15293886Y-7214200D01*
X15236743Y-7214200D01*
X15208171Y-7228486D01*
X15193886Y-7242771D01*
X15179600Y-7271343D01*
X15465314Y-7099914D02*
X15465314Y-7157057D01*
X15579600Y-7099914D02*
X15579600Y-7157057D01*
X16022457Y-7514200D02*
X16008171Y-7499914D01*
X15979600Y-7457057D01*
X15965314Y-7428486D01*
X15951028Y-7385629D01*
X15936743Y-7314200D01*
X15936743Y-7257057D01*
X15951028Y-7185629D01*
X15965314Y-7142771D01*
X15979600Y-7114200D01*
X16008171Y-7071343D01*
X16022457Y-7057057D01*
X16122457Y-7128486D02*
X16136743Y-7114200D01*
X16165314Y-7099914D01*
X16236743Y-7099914D01*
X16265314Y-7114200D01*
X16279600Y-7128486D01*
X16293886Y-7157057D01*
X16293886Y-7185629D01*
X16279600Y-7228486D01*
X16108171Y-7399914D01*
X16293886Y-7399914D01*
X16651028Y-7399914D02*
X16651028Y-7099914D01*
X16779600Y-7399914D02*
X16779600Y-7242771D01*
X16765314Y-7214200D01*
X16736743Y-7199914D01*
X16693886Y-7199914D01*
X16665314Y-7214200D01*
X16651028Y-7228486D01*
X16965314Y-7399914D02*
X16936743Y-7385629D01*
X16922457Y-7371343D01*
X16908171Y-7342771D01*
X16908171Y-7257057D01*
X16922457Y-7228486D01*
X16936743Y-7214200D01*
X16965314Y-7199914D01*
X17008171Y-7199914D01*
X17036743Y-7214200D01*
X17051028Y-7228486D01*
X17065314Y-7257057D01*
X17065314Y-7342771D01*
X17051028Y-7371343D01*
X17036743Y-7385629D01*
X17008171Y-7399914D01*
X16965314Y-7399914D01*
X17236743Y-7399914D02*
X17208171Y-7385629D01*
X17193886Y-7357057D01*
X17193886Y-7099914D01*
X17465314Y-7385629D02*
X17436743Y-7399914D01*
X17379600Y-7399914D01*
X17351028Y-7385629D01*
X17336743Y-7357057D01*
X17336743Y-7242771D01*
X17351028Y-7214200D01*
X17379600Y-7199914D01*
X17436743Y-7199914D01*
X17465314Y-7214200D01*
X17479600Y-7242771D01*
X17479600Y-7271343D01*
X17336743Y-7299914D01*
X17593886Y-7385629D02*
X17622457Y-7399914D01*
X17679600Y-7399914D01*
X17708171Y-7385629D01*
X17722457Y-7357057D01*
X17722457Y-7342771D01*
X17708171Y-7314200D01*
X17679600Y-7299914D01*
X17636743Y-7299914D01*
X17608171Y-7285629D01*
X17593886Y-7257057D01*
X17593886Y-7242771D01*
X17608171Y-7214200D01*
X17636743Y-7199914D01*
X17679600Y-7199914D01*
X17708171Y-7214200D01*
X17822457Y-7514200D02*
X17836743Y-7499914D01*
X17865314Y-7457057D01*
X17879600Y-7428486D01*
X17893886Y-7385629D01*
X17908171Y-7314200D01*
X17908171Y-7257057D01*
X17893886Y-7185629D01*
X17879600Y-7142771D01*
X17865314Y-7114200D01*
X17836743Y-7071343D01*
X17822457Y-7057057D01*
X18365314Y-7514200D02*
X18351028Y-7499914D01*
X18322457Y-7457057D01*
X18308171Y-7428486D01*
X18293886Y-7385629D01*
X18279600Y-7314200D01*
X18279600Y-7257057D01*
X18293886Y-7185629D01*
X18308171Y-7142771D01*
X18322457Y-7114200D01*
X18351028Y-7071343D01*
X18365314Y-7057057D01*
X18479600Y-7199914D02*
X18479600Y-7399914D01*
X18479600Y-7228486D02*
X18493886Y-7214200D01*
X18522457Y-7199914D01*
X18565314Y-7199914D01*
X18593886Y-7214200D01*
X18608171Y-7242771D01*
X18608171Y-7399914D01*
X18793886Y-7399914D02*
X18765314Y-7385629D01*
X18751028Y-7371343D01*
X18736743Y-7342771D01*
X18736743Y-7257057D01*
X18751028Y-7228486D01*
X18765314Y-7214200D01*
X18793886Y-7199914D01*
X18836743Y-7199914D01*
X18865314Y-7214200D01*
X18879600Y-7228486D01*
X18893886Y-7257057D01*
X18893886Y-7342771D01*
X18879600Y-7371343D01*
X18865314Y-7385629D01*
X18836743Y-7399914D01*
X18793886Y-7399914D01*
X18979600Y-7199914D02*
X19093886Y-7199914D01*
X19022457Y-7099914D02*
X19022457Y-7357057D01*
X19036743Y-7385629D01*
X19065314Y-7399914D01*
X19093886Y-7399914D01*
X19422457Y-7199914D02*
X19422457Y-7499914D01*
X19422457Y-7214200D02*
X19451028Y-7199914D01*
X19508171Y-7199914D01*
X19536743Y-7214200D01*
X19551028Y-7228486D01*
X19565314Y-7257057D01*
X19565314Y-7342771D01*
X19551028Y-7371343D01*
X19536743Y-7385629D01*
X19508171Y-7399914D01*
X19451028Y-7399914D01*
X19422457Y-7385629D01*
X19736743Y-7399914D02*
X19708171Y-7385629D01*
X19693886Y-7357057D01*
X19693886Y-7099914D01*
X19979600Y-7399914D02*
X19979600Y-7242771D01*
X19965314Y-7214200D01*
X19936743Y-7199914D01*
X19879600Y-7199914D01*
X19851028Y-7214200D01*
X19979600Y-7385629D02*
X19951028Y-7399914D01*
X19879600Y-7399914D01*
X19851028Y-7385629D01*
X19836743Y-7357057D01*
X19836743Y-7328486D01*
X19851028Y-7299914D01*
X19879600Y-7285629D01*
X19951028Y-7285629D01*
X19979600Y-7271343D01*
X20079600Y-7199914D02*
X20193886Y-7199914D01*
X20122457Y-7099914D02*
X20122457Y-7357057D01*
X20136743Y-7385629D01*
X20165314Y-7399914D01*
X20193886Y-7399914D01*
X20408171Y-7385629D02*
X20379600Y-7399914D01*
X20322457Y-7399914D01*
X20293886Y-7385629D01*
X20279600Y-7357057D01*
X20279600Y-7242771D01*
X20293886Y-7214200D01*
X20322457Y-7199914D01*
X20379600Y-7199914D01*
X20408171Y-7214200D01*
X20422457Y-7242771D01*
X20422457Y-7271343D01*
X20279600Y-7299914D01*
X20679600Y-7399914D02*
X20679600Y-7099914D01*
X20679600Y-7385629D02*
X20651028Y-7399914D01*
X20593886Y-7399914D01*
X20565314Y-7385629D01*
X20551028Y-7371343D01*
X20536743Y-7342771D01*
X20536743Y-7257057D01*
X20551028Y-7228486D01*
X20565314Y-7214200D01*
X20593886Y-7199914D01*
X20651028Y-7199914D01*
X20679600Y-7214200D01*
X20793886Y-7514200D02*
X20808171Y-7499914D01*
X20836743Y-7457057D01*
X20851028Y-7428486D01*
X20865314Y-7385629D01*
X20879600Y-7314200D01*
X20879600Y-7257057D01*
X20865314Y-7185629D01*
X20851028Y-7142771D01*
X20836743Y-7114200D01*
X20808171Y-7071343D01*
X20793886Y-7057057D01*
X10764600Y-7660200D02*
G75*
G03*
X10764600Y-7660200I-162500J0D01*
G01*
X11022457Y-7495914D02*
X11208171Y-7495914D01*
X11108171Y-7610200D01*
X11151028Y-7610200D01*
X11179600Y-7624486D01*
X11193886Y-7638771D01*
X11208171Y-7667343D01*
X11208171Y-7738771D01*
X11193886Y-7767343D01*
X11179600Y-7781629D01*
X11151028Y-7795914D01*
X11065314Y-7795914D01*
X11036743Y-7781629D01*
X11022457Y-7767343D01*
X11336743Y-7767343D02*
X11351028Y-7781629D01*
X11336743Y-7795914D01*
X11322457Y-7781629D01*
X11336743Y-7767343D01*
X11336743Y-7795914D01*
X11465314Y-7524486D02*
X11479600Y-7510200D01*
X11508171Y-7495914D01*
X11579600Y-7495914D01*
X11608171Y-7510200D01*
X11622457Y-7524486D01*
X11636743Y-7553057D01*
X11636743Y-7581629D01*
X11622457Y-7624486D01*
X11451028Y-7795914D01*
X11636743Y-7795914D01*
X11908171Y-7495914D02*
X11765314Y-7495914D01*
X11751028Y-7638771D01*
X11765314Y-7624486D01*
X11793886Y-7610200D01*
X11865314Y-7610200D01*
X11893886Y-7624486D01*
X11908171Y-7638771D01*
X11922457Y-7667343D01*
X11922457Y-7738771D01*
X11908171Y-7767343D01*
X11893886Y-7781629D01*
X11865314Y-7795914D01*
X11793886Y-7795914D01*
X11765314Y-7781629D01*
X11751028Y-7767343D01*
X12108171Y-7495914D02*
X12136743Y-7495914D01*
X12165314Y-7510200D01*
X12179600Y-7524486D01*
X12193886Y-7553057D01*
X12208171Y-7610200D01*
X12208171Y-7681629D01*
X12193886Y-7738771D01*
X12179600Y-7767343D01*
X12165314Y-7781629D01*
X12136743Y-7795914D01*
X12108171Y-7795914D01*
X12079600Y-7781629D01*
X12065314Y-7767343D01*
X12051028Y-7738771D01*
X12036743Y-7681629D01*
X12036743Y-7610200D01*
X12051028Y-7553057D01*
X12065314Y-7524486D01*
X12079600Y-7510200D01*
X12108171Y-7495914D01*
X12336743Y-7795914D02*
X12336743Y-7595914D01*
X12336743Y-7624486D02*
X12351028Y-7610200D01*
X12379600Y-7595914D01*
X12422457Y-7595914D01*
X12451028Y-7610200D01*
X12465314Y-7638771D01*
X12465314Y-7795914D01*
X12465314Y-7638771D02*
X12479600Y-7610200D01*
X12508171Y-7595914D01*
X12551028Y-7595914D01*
X12579600Y-7610200D01*
X12593886Y-7638771D01*
X12593886Y-7795914D01*
X12736743Y-7795914D02*
X12736743Y-7595914D01*
X12736743Y-7624486D02*
X12751028Y-7610200D01*
X12779600Y-7595914D01*
X12822457Y-7595914D01*
X12851028Y-7610200D01*
X12865314Y-7638771D01*
X12865314Y-7795914D01*
X12865314Y-7638771D02*
X12879600Y-7610200D01*
X12908171Y-7595914D01*
X12951028Y-7595914D01*
X12979600Y-7610200D01*
X12993886Y-7638771D01*
X12993886Y-7795914D01*
X13579600Y-7481629D02*
X13322457Y-7867343D01*
X13965314Y-7495914D02*
X13993886Y-7495914D01*
X14022457Y-7510200D01*
X14036743Y-7524486D01*
X14051028Y-7553057D01*
X14065314Y-7610200D01*
X14065314Y-7681629D01*
X14051028Y-7738771D01*
X14036743Y-7767343D01*
X14022457Y-7781629D01*
X13993886Y-7795914D01*
X13965314Y-7795914D01*
X13936743Y-7781629D01*
X13922457Y-7767343D01*
X13908171Y-7738771D01*
X13893886Y-7681629D01*
X13893886Y-7610200D01*
X13908171Y-7553057D01*
X13922457Y-7524486D01*
X13936743Y-7510200D01*
X13965314Y-7495914D01*
X14193886Y-7767343D02*
X14208171Y-7781629D01*
X14193886Y-7795914D01*
X14179600Y-7781629D01*
X14193886Y-7767343D01*
X14193886Y-7795914D01*
X14493886Y-7795914D02*
X14322457Y-7795914D01*
X14408171Y-7795914D02*
X14408171Y-7495914D01*
X14379600Y-7538771D01*
X14351028Y-7567343D01*
X14322457Y-7581629D01*
X14608171Y-7524486D02*
X14622457Y-7510200D01*
X14651028Y-7495914D01*
X14722457Y-7495914D01*
X14751028Y-7510200D01*
X14765314Y-7524486D01*
X14779600Y-7553057D01*
X14779600Y-7581629D01*
X14765314Y-7624486D01*
X14593886Y-7795914D01*
X14779600Y-7795914D01*
X14951028Y-7624486D02*
X14922457Y-7610200D01*
X14908171Y-7595914D01*
X14893886Y-7567343D01*
X14893886Y-7553057D01*
X14908171Y-7524486D01*
X14922457Y-7510200D01*
X14951028Y-7495914D01*
X15008171Y-7495914D01*
X15036743Y-7510200D01*
X15051028Y-7524486D01*
X15065314Y-7553057D01*
X15065314Y-7567343D01*
X15051028Y-7595914D01*
X15036743Y-7610200D01*
X15008171Y-7624486D01*
X14951028Y-7624486D01*
X14922457Y-7638771D01*
X14908171Y-7653057D01*
X14893886Y-7681629D01*
X14893886Y-7738771D01*
X14908171Y-7767343D01*
X14922457Y-7781629D01*
X14951028Y-7795914D01*
X15008171Y-7795914D01*
X15036743Y-7781629D01*
X15051028Y-7767343D01*
X15065314Y-7738771D01*
X15065314Y-7681629D01*
X15051028Y-7653057D01*
X15036743Y-7638771D01*
X15008171Y-7624486D01*
X15251028Y-7495914D02*
X15279600Y-7495914D01*
X15308171Y-7510200D01*
X15322457Y-7524486D01*
X15336743Y-7553057D01*
X15351028Y-7610200D01*
X15351028Y-7681629D01*
X15336743Y-7738771D01*
X15322457Y-7767343D01*
X15308171Y-7781629D01*
X15279600Y-7795914D01*
X15251028Y-7795914D01*
X15222457Y-7781629D01*
X15208171Y-7767343D01*
X15193886Y-7738771D01*
X15179600Y-7681629D01*
X15179600Y-7610200D01*
X15193886Y-7553057D01*
X15208171Y-7524486D01*
X15222457Y-7510200D01*
X15251028Y-7495914D01*
X15465314Y-7495914D02*
X15465314Y-7553057D01*
X15579600Y-7495914D02*
X15579600Y-7553057D01*
X16022457Y-7910200D02*
X16008171Y-7895914D01*
X15979600Y-7853057D01*
X15965314Y-7824486D01*
X15951028Y-7781629D01*
X15936743Y-7710200D01*
X15936743Y-7653057D01*
X15951028Y-7581629D01*
X15965314Y-7538771D01*
X15979600Y-7510200D01*
X16008171Y-7467343D01*
X16022457Y-7453057D01*
X16122457Y-7524486D02*
X16136743Y-7510200D01*
X16165314Y-7495914D01*
X16236743Y-7495914D01*
X16265314Y-7510200D01*
X16279600Y-7524486D01*
X16293886Y-7553057D01*
X16293886Y-7581629D01*
X16279600Y-7624486D01*
X16108171Y-7795914D01*
X16293886Y-7795914D01*
X16651028Y-7795914D02*
X16651028Y-7495914D01*
X16779600Y-7795914D02*
X16779600Y-7638771D01*
X16765314Y-7610200D01*
X16736743Y-7595914D01*
X16693886Y-7595914D01*
X16665314Y-7610200D01*
X16651028Y-7624486D01*
X16965314Y-7795914D02*
X16936743Y-7781629D01*
X16922457Y-7767343D01*
X16908171Y-7738771D01*
X16908171Y-7653057D01*
X16922457Y-7624486D01*
X16936743Y-7610200D01*
X16965314Y-7595914D01*
X17008171Y-7595914D01*
X17036743Y-7610200D01*
X17051028Y-7624486D01*
X17065314Y-7653057D01*
X17065314Y-7738771D01*
X17051028Y-7767343D01*
X17036743Y-7781629D01*
X17008171Y-7795914D01*
X16965314Y-7795914D01*
X17236743Y-7795914D02*
X17208171Y-7781629D01*
X17193886Y-7753057D01*
X17193886Y-7495914D01*
X17465314Y-7781629D02*
X17436743Y-7795914D01*
X17379600Y-7795914D01*
X17351028Y-7781629D01*
X17336743Y-7753057D01*
X17336743Y-7638771D01*
X17351028Y-7610200D01*
X17379600Y-7595914D01*
X17436743Y-7595914D01*
X17465314Y-7610200D01*
X17479600Y-7638771D01*
X17479600Y-7667343D01*
X17336743Y-7695914D01*
X17593886Y-7781629D02*
X17622457Y-7795914D01*
X17679600Y-7795914D01*
X17708171Y-7781629D01*
X17722457Y-7753057D01*
X17722457Y-7738771D01*
X17708171Y-7710200D01*
X17679600Y-7695914D01*
X17636743Y-7695914D01*
X17608171Y-7681629D01*
X17593886Y-7653057D01*
X17593886Y-7638771D01*
X17608171Y-7610200D01*
X17636743Y-7595914D01*
X17679600Y-7595914D01*
X17708171Y-7610200D01*
X17822457Y-7910200D02*
X17836743Y-7895914D01*
X17865314Y-7853057D01*
X17879600Y-7824486D01*
X17893886Y-7781629D01*
X17908171Y-7710200D01*
X17908171Y-7653057D01*
X17893886Y-7581629D01*
X17879600Y-7538771D01*
X17865314Y-7510200D01*
X17836743Y-7467343D01*
X17822457Y-7453057D01*
X18365314Y-7910200D02*
X18351028Y-7895914D01*
X18322457Y-7853057D01*
X18308171Y-7824486D01*
X18293886Y-7781629D01*
X18279600Y-7710200D01*
X18279600Y-7653057D01*
X18293886Y-7581629D01*
X18308171Y-7538771D01*
X18322457Y-7510200D01*
X18351028Y-7467343D01*
X18365314Y-7453057D01*
X18479600Y-7595914D02*
X18479600Y-7795914D01*
X18479600Y-7624486D02*
X18493886Y-7610200D01*
X18522457Y-7595914D01*
X18565314Y-7595914D01*
X18593886Y-7610200D01*
X18608171Y-7638771D01*
X18608171Y-7795914D01*
X18793886Y-7795914D02*
X18765314Y-7781629D01*
X18751028Y-7767343D01*
X18736743Y-7738771D01*
X18736743Y-7653057D01*
X18751028Y-7624486D01*
X18765314Y-7610200D01*
X18793886Y-7595914D01*
X18836743Y-7595914D01*
X18865314Y-7610200D01*
X18879600Y-7624486D01*
X18893886Y-7653057D01*
X18893886Y-7738771D01*
X18879600Y-7767343D01*
X18865314Y-7781629D01*
X18836743Y-7795914D01*
X18793886Y-7795914D01*
X18979600Y-7595914D02*
X19093886Y-7595914D01*
X19022457Y-7495914D02*
X19022457Y-7753057D01*
X19036743Y-7781629D01*
X19065314Y-7795914D01*
X19093886Y-7795914D01*
X19422457Y-7595914D02*
X19422457Y-7895914D01*
X19422457Y-7610200D02*
X19451028Y-7595914D01*
X19508171Y-7595914D01*
X19536743Y-7610200D01*
X19551028Y-7624486D01*
X19565314Y-7653057D01*
X19565314Y-7738771D01*
X19551028Y-7767343D01*
X19536743Y-7781629D01*
X19508171Y-7795914D01*
X19451028Y-7795914D01*
X19422457Y-7781629D01*
X19736743Y-7795914D02*
X19708171Y-7781629D01*
X19693886Y-7753057D01*
X19693886Y-7495914D01*
X19979600Y-7795914D02*
X19979600Y-7638771D01*
X19965314Y-7610200D01*
X19936743Y-7595914D01*
X19879600Y-7595914D01*
X19851028Y-7610200D01*
X19979600Y-7781629D02*
X19951028Y-7795914D01*
X19879600Y-7795914D01*
X19851028Y-7781629D01*
X19836743Y-7753057D01*
X19836743Y-7724486D01*
X19851028Y-7695914D01*
X19879600Y-7681629D01*
X19951028Y-7681629D01*
X19979600Y-7667343D01*
X20079600Y-7595914D02*
X20193886Y-7595914D01*
X20122457Y-7495914D02*
X20122457Y-7753057D01*
X20136743Y-7781629D01*
X20165314Y-7795914D01*
X20193886Y-7795914D01*
X20408171Y-7781629D02*
X20379600Y-7795914D01*
X20322457Y-7795914D01*
X20293886Y-7781629D01*
X20279600Y-7753057D01*
X20279600Y-7638771D01*
X20293886Y-7610200D01*
X20322457Y-7595914D01*
X20379600Y-7595914D01*
X20408171Y-7610200D01*
X20422457Y-7638771D01*
X20422457Y-7667343D01*
X20279600Y-7695914D01*
X20679600Y-7795914D02*
X20679600Y-7495914D01*
X20679600Y-7781629D02*
X20651028Y-7795914D01*
X20593886Y-7795914D01*
X20565314Y-7781629D01*
X20551028Y-7767343D01*
X20536743Y-7738771D01*
X20536743Y-7653057D01*
X20551028Y-7624486D01*
X20565314Y-7610200D01*
X20593886Y-7595914D01*
X20651028Y-7595914D01*
X20679600Y-7610200D01*
X20793886Y-7910200D02*
X20808171Y-7895914D01*
X20836743Y-7853057D01*
X20851028Y-7824486D01*
X20865314Y-7781629D01*
X20879600Y-7710200D01*
X20879600Y-7653057D01*
X20865314Y-7581629D01*
X20851028Y-7538771D01*
X20836743Y-7510200D01*
X20808171Y-7467343D01*
X20793886Y-7453057D01*
M02*
